<svg xmlns="http://www.w3.org/2000/svg" xmlns:xlink="http://www.w3.org/1999/xlink" width="80" height="80" viewBox="0 0 80 80">
  <defs>
    <clipPath id="clip-path">
      <rect id="Rectangle_279" data-name="Rectangle 279" width="80" height="80" transform="translate(170 214)" fill="#fff"/>
    </clipPath>
  </defs>
  <g id="icon-data-red" transform="translate(-170 -214)" clip-path="url(#clip-path)">
    <g id="Groupe_2081" data-name="Groupe 2081" transform="translate(-38.208 42.02) rotate(-8)">
      <rect id="Rectangle_266" data-name="Rectangle 266" width="67.1" height="53.68" rx="4" transform="translate(186.681 221.575) rotate(3)" fill="#fad7d7"/>
      <rect id="Rectangle_267" data-name="Rectangle 267" width="67.1" height="53.68" rx="4" transform="translate(180 218.324)" fill="#fff"/>
      <g id="Groupe_2079" data-name="Groupe 2079" transform="translate(239.551 263.617) rotate(180)">
        <rect id="Rectangle_268" data-name="Rectangle 268" width="1.678" height="33.55" rx="0.839" transform="translate(0 0)" fill="#e9edf3"/>
        <rect id="Rectangle_269" data-name="Rectangle 269" width="1.678" height="20.969" rx="0.839" transform="translate(10.065 0)" fill="#e9edf3"/>
        <rect id="Rectangle_270" data-name="Rectangle 270" width="1.678" height="16.775" rx="0.839" transform="translate(20.13 0)" fill="#e9edf3"/>
        <rect id="Rectangle_271" data-name="Rectangle 271" width="1.678" height="25.163" rx="0.839" transform="translate(30.195 0)" fill="#e9edf3"/>
        <rect id="Rectangle_272" data-name="Rectangle 272" width="1.678" height="16.775" rx="0.839" transform="translate(40.26 0)" fill="#e9edf3"/>
        <rect id="Rectangle_273" data-name="Rectangle 273" width="1.678" height="8.388" rx="0.839" transform="translate(50.325 0)" fill="#e9edf3"/>
        <rect id="Rectangle_274" data-name="Rectangle 274" width="1.678" height="29.356" rx="0.839" transform="translate(5.033 0)" fill="#e9edf3"/>
        <rect id="Rectangle_275" data-name="Rectangle 275" width="1.678" height="25.163" rx="0.839" transform="translate(15.098 0)" fill="#e9edf3"/>
        <rect id="Rectangle_276" data-name="Rectangle 276" width="1.678" height="12.581" rx="0.839" transform="translate(25.163 0)" fill="#e9edf3"/>
        <rect id="Rectangle_277" data-name="Rectangle 277" width="1.678" height="12.581" rx="0.839" transform="translate(35.228 0)" fill="#e9edf3"/>
        <rect id="Rectangle_278" data-name="Rectangle 278" width="1.678" height="12.581" rx="0.839" transform="translate(45.293 0)" fill="#e9edf3"/>
      </g>
      <g id="Groupe_2080" data-name="Groupe 2080" transform="translate(187.549 209.608)">
        <path id="Tracé_121" data-name="Tracé 121" d="M-4688,259.8l21-18,6.914,8.989,22.727-17.732" transform="translate(4688 -225.132)" fill="none" stroke="#e63a2e" stroke-linecap="round" stroke-linejoin="round" stroke-width="2"/>
        <path id="Polygone_8" data-name="Polygone 8" d="M4.194,0,8.388,6.71H0Z" transform="translate(52.528) rotate(48)" fill="none" stroke="#e63a2e" stroke-linecap="round" stroke-linejoin="round" stroke-width="2"/>
      </g>
    </g>
  </g>
</svg>
