<svg xmlns="http://www.w3.org/2000/svg" xmlns:xlink="http://www.w3.org/1999/xlink" width="80" height="80" viewBox="0 0 80 80">
  <defs>
    <clipPath id="clip-path">
      <rect id="Rectangle_265" data-name="Rectangle 265" width="80" height="80" transform="translate(170 214)" fill="#fff"/>
    </clipPath>
  </defs>
  <g id="icon-data-yellow" transform="translate(-170 -214)" clip-path="url(#clip-path)">
    <g id="Groupe_2078" data-name="Groupe 2078" transform="translate(-38.208 42.02) rotate(-8)">
      <rect id="Rectangle_252" data-name="Rectangle 252" width="67.1" height="53.68" rx="4" transform="translate(186.681 221.575) rotate(3)" fill="#fcee92"/>
      <rect id="Rectangle_253" data-name="Rectangle 253" width="67.1" height="53.68" rx="4" transform="translate(180 218.324)" fill="#fff"/>
      <g id="Groupe_2076" data-name="Groupe 2076" transform="translate(239.551 263.617) rotate(180)">
        <rect id="Rectangle_254" data-name="Rectangle 254" width="1.678" height="33.55" rx="0.839" transform="translate(0 0)" fill="#e9edf3"/>
        <rect id="Rectangle_255" data-name="Rectangle 255" width="1.678" height="20.969" rx="0.839" transform="translate(10.065 0)" fill="#e9edf3"/>
        <rect id="Rectangle_256" data-name="Rectangle 256" width="1.678" height="16.775" rx="0.839" transform="translate(20.13 0)" fill="#e9edf3"/>
        <rect id="Rectangle_257" data-name="Rectangle 257" width="1.678" height="25.163" rx="0.839" transform="translate(30.195 0)" fill="#e9edf3"/>
        <rect id="Rectangle_258" data-name="Rectangle 258" width="1.678" height="16.775" rx="0.839" transform="translate(40.26 0)" fill="#e9edf3"/>
        <rect id="Rectangle_259" data-name="Rectangle 259" width="1.678" height="8.388" rx="0.839" transform="translate(50.325 0)" fill="#e9edf3"/>
        <rect id="Rectangle_260" data-name="Rectangle 260" width="1.678" height="29.356" rx="0.839" transform="translate(5.033 0)" fill="#e9edf3"/>
        <rect id="Rectangle_261" data-name="Rectangle 261" width="1.678" height="25.163" rx="0.839" transform="translate(15.098 0)" fill="#e9edf3"/>
        <rect id="Rectangle_262" data-name="Rectangle 262" width="1.678" height="12.581" rx="0.839" transform="translate(25.163 0)" fill="#e9edf3"/>
        <rect id="Rectangle_263" data-name="Rectangle 263" width="1.678" height="12.581" rx="0.839" transform="translate(35.228 0)" fill="#e9edf3"/>
        <rect id="Rectangle_264" data-name="Rectangle 264" width="1.678" height="12.581" rx="0.839" transform="translate(45.293 0)" fill="#e9edf3"/>
      </g>
      <g id="Groupe_2077" data-name="Groupe 2077" transform="translate(187.549 209.608)">
        <path id="Tracé_120" data-name="Tracé 120" d="M-4688,259.8l21-18,6.914,8.989,22.727-17.732" transform="translate(4688 -225.132)" fill="none" stroke="#f0b000" stroke-linecap="round" stroke-linejoin="round" stroke-width="2"/>
        <path id="Polygone_7" data-name="Polygone 7" d="M4.194,0,8.388,6.71H0Z" transform="translate(52.528) rotate(48)" fill="none" stroke="#f0b000" stroke-linecap="round" stroke-linejoin="round" stroke-width="2"/>
      </g>
    </g>
  </g>
</svg>
