<svg xmlns="http://www.w3.org/2000/svg" xmlns:xlink="http://www.w3.org/1999/xlink" width="80" height="80" viewBox="0 0 80 80">
  <defs>
    <clipPath id="clip-path">
      <rect id="Rectangle_210" data-name="Rectangle 210" width="80" height="80" transform="translate(170 214)" fill="#fff"/>
    </clipPath>
  </defs>
  <g id="icon-data-green" transform="translate(-170 -214)" clip-path="url(#clip-path)">
    <g id="Groupe_1931" data-name="Groupe 1931" transform="translate(-38.208 42.02) rotate(-8)">
      <rect id="Rectangle_197" data-name="Rectangle 197" width="67.1" height="53.68" rx="4" transform="translate(186.681 221.575) rotate(3)" fill="#beecc1"/>
      <rect id="Rectangle_198" data-name="Rectangle 198" width="67.1" height="53.68" rx="4" transform="translate(180 218.324)" fill="#fff"/>
      <g id="Groupe_1929" data-name="Groupe 1929" transform="translate(239.551 263.617) rotate(180)">
        <rect id="Rectangle_199" data-name="Rectangle 199" width="1.678" height="33.55" rx="0.839" transform="translate(0 0)" fill="#e9edf3"/>
        <rect id="Rectangle_200" data-name="Rectangle 200" width="1.678" height="20.969" rx="0.839" transform="translate(10.065 0)" fill="#e9edf3"/>
        <rect id="Rectangle_201" data-name="Rectangle 201" width="1.678" height="16.775" rx="0.839" transform="translate(20.13 0)" fill="#e9edf3"/>
        <rect id="Rectangle_202" data-name="Rectangle 202" width="1.678" height="25.163" rx="0.839" transform="translate(30.195 0)" fill="#e9edf3"/>
        <rect id="Rectangle_203" data-name="Rectangle 203" width="1.678" height="16.775" rx="0.839" transform="translate(40.26 0)" fill="#e9edf3"/>
        <rect id="Rectangle_204" data-name="Rectangle 204" width="1.678" height="8.388" rx="0.839" transform="translate(50.325 0)" fill="#e9edf3"/>
        <rect id="Rectangle_205" data-name="Rectangle 205" width="1.678" height="29.356" rx="0.839" transform="translate(5.033 0)" fill="#e9edf3"/>
        <rect id="Rectangle_206" data-name="Rectangle 206" width="1.678" height="25.163" rx="0.839" transform="translate(15.098 0)" fill="#e9edf3"/>
        <rect id="Rectangle_207" data-name="Rectangle 207" width="1.678" height="12.581" rx="0.839" transform="translate(25.163 0)" fill="#e9edf3"/>
        <rect id="Rectangle_208" data-name="Rectangle 208" width="1.678" height="12.581" rx="0.839" transform="translate(35.228 0)" fill="#e9edf3"/>
        <rect id="Rectangle_209" data-name="Rectangle 209" width="1.678" height="12.581" rx="0.839" transform="translate(45.293 0)" fill="#e9edf3"/>
      </g>
      <g id="Groupe_1930" data-name="Groupe 1930" transform="translate(187.549 209.608)">
        <path id="Tracé_98" data-name="Tracé 98" d="M-4688,259.8l21-18,6.914,8.989,22.727-17.732" transform="translate(4688 -225.132)" fill="none" stroke="#009940" stroke-linecap="round" stroke-linejoin="round" stroke-width="2"/>
        <path id="Polygone_4" data-name="Polygone 4" d="M4.194,0,8.388,6.71H0Z" transform="translate(52.528) rotate(48)" fill="none" stroke="#009940" stroke-linecap="round" stroke-linejoin="round" stroke-width="2"/>
      </g>
    </g>
  </g>
</svg>
