<svg xmlns="http://www.w3.org/2000/svg" xmlns:xlink="http://www.w3.org/1999/xlink" width="80" height="80" viewBox="0 0 80 80">
  <defs>
    <clipPath id="clip-path">
      <rect id="Rectangle_167" data-name="Rectangle 167" width="80" height="80" transform="translate(170 214)" fill="#fff"/>
    </clipPath>
  </defs>
  <g id="icon-data-blue" transform="translate(-170 -214)" clip-path="url(#clip-path)">
    <g id="Groupe_1922" data-name="Groupe 1922" transform="translate(-38.208 42.02) rotate(-8)">
      <rect id="Rectangle_166" data-name="Rectangle 166" width="67.1" height="53.68" rx="4" transform="translate(186.681 221.575) rotate(3)" fill="#bedefa"/>
      <rect id="Rectangle_153" data-name="Rectangle 153" width="67.1" height="53.68" rx="4" transform="translate(180 218.324)" fill="#fff"/>
      <g id="Groupe_1920" data-name="Groupe 1920" transform="translate(239.551 263.617) rotate(180)">
        <rect id="Rectangle_154" data-name="Rectangle 154" width="1.678" height="33.55" rx="0.839" transform="translate(0 0)" fill="#e9edf3"/>
        <rect id="Rectangle_157" data-name="Rectangle 157" width="1.678" height="20.969" rx="0.839" transform="translate(10.065 0)" fill="#e9edf3"/>
        <rect id="Rectangle_159" data-name="Rectangle 159" width="1.678" height="16.775" rx="0.839" transform="translate(20.13 0)" fill="#e9edf3"/>
        <rect id="Rectangle_161" data-name="Rectangle 161" width="1.678" height="25.163" rx="0.839" transform="translate(30.195 0)" fill="#e9edf3"/>
        <rect id="Rectangle_163" data-name="Rectangle 163" width="1.678" height="16.775" rx="0.839" transform="translate(40.26 0)" fill="#e9edf3"/>
        <rect id="Rectangle_165" data-name="Rectangle 165" width="1.678" height="8.388" rx="0.839" transform="translate(50.325 0)" fill="#e9edf3"/>
        <rect id="Rectangle_155" data-name="Rectangle 155" width="1.678" height="29.356" rx="0.839" transform="translate(5.033 0)" fill="#e9edf3"/>
        <rect id="Rectangle_156" data-name="Rectangle 156" width="1.678" height="25.163" rx="0.839" transform="translate(15.098 0)" fill="#e9edf3"/>
        <rect id="Rectangle_158" data-name="Rectangle 158" width="1.678" height="12.581" rx="0.839" transform="translate(25.163 0)" fill="#e9edf3"/>
        <rect id="Rectangle_160" data-name="Rectangle 160" width="1.678" height="12.581" rx="0.839" transform="translate(35.228 0)" fill="#e9edf3"/>
        <rect id="Rectangle_162" data-name="Rectangle 162" width="1.678" height="12.581" rx="0.839" transform="translate(45.293 0)" fill="#e9edf3"/>
      </g>
      <g id="Groupe_1921" data-name="Groupe 1921" transform="translate(187.549 209.608)">
        <path id="Tracé_95" data-name="Tracé 95" d="M-4688,259.8l21-18,6.914,8.989,22.727-17.732" transform="translate(4688 -225.132)" fill="none" stroke="#0569f5" stroke-linecap="round" stroke-linejoin="round" stroke-width="2"/>
        <path id="Polygone_1" data-name="Polygone 1" d="M4.194,0,8.388,6.71H0Z" transform="translate(52.528) rotate(48)" fill="none" stroke="#0569f5" stroke-linecap="round" stroke-linejoin="round" stroke-width="2"/>
      </g>
    </g>
  </g>
</svg>
