<svg xmlns="http://www.w3.org/2000/svg" xmlns:xlink="http://www.w3.org/1999/xlink" width="80" height="80" viewBox="0 0 80 80">
  <defs>
    <clipPath id="clip-path">
      <rect id="Rectangle_225" data-name="Rectangle 225" width="80" height="80" transform="translate(170 214)" fill="#fff"/>
    </clipPath>
  </defs>
  <g id="icon-data-purple" transform="translate(-170 -214)" clip-path="url(#clip-path)">
    <g id="Groupe_1934" data-name="Groupe 1934" transform="translate(-38.208 42.02) rotate(-8)">
      <rect id="Rectangle_212" data-name="Rectangle 212" width="67.1" height="53.68" rx="4" transform="translate(186.681 221.575) rotate(3)" fill="#dec0fc"/>
      <rect id="Rectangle_213" data-name="Rectangle 213" width="67.1" height="53.68" rx="4" transform="translate(180 218.324)" fill="#fff"/>
      <g id="Groupe_1932" data-name="Groupe 1932" transform="translate(239.551 263.617) rotate(180)">
        <rect id="Rectangle_214" data-name="Rectangle 214" width="1.678" height="33.55" rx="0.839" transform="translate(0 0)" fill="#e9edf3"/>
        <rect id="Rectangle_215" data-name="Rectangle 215" width="1.678" height="20.969" rx="0.839" transform="translate(10.065 0)" fill="#e9edf3"/>
        <rect id="Rectangle_216" data-name="Rectangle 216" width="1.678" height="16.775" rx="0.839" transform="translate(20.13 0)" fill="#e9edf3"/>
        <rect id="Rectangle_217" data-name="Rectangle 217" width="1.678" height="25.163" rx="0.839" transform="translate(30.195 0)" fill="#e9edf3"/>
        <rect id="Rectangle_218" data-name="Rectangle 218" width="1.678" height="16.775" rx="0.839" transform="translate(40.26 0)" fill="#e9edf3"/>
        <rect id="Rectangle_219" data-name="Rectangle 219" width="1.678" height="8.388" rx="0.839" transform="translate(50.325 0)" fill="#e9edf3"/>
        <rect id="Rectangle_220" data-name="Rectangle 220" width="1.678" height="29.356" rx="0.839" transform="translate(5.033 0)" fill="#e9edf3"/>
        <rect id="Rectangle_221" data-name="Rectangle 221" width="1.678" height="25.163" rx="0.839" transform="translate(15.098 0)" fill="#e9edf3"/>
        <rect id="Rectangle_222" data-name="Rectangle 222" width="1.678" height="12.581" rx="0.839" transform="translate(25.163 0)" fill="#e9edf3"/>
        <rect id="Rectangle_223" data-name="Rectangle 223" width="1.678" height="12.581" rx="0.839" transform="translate(35.228 0)" fill="#e9edf3"/>
        <rect id="Rectangle_224" data-name="Rectangle 224" width="1.678" height="12.581" rx="0.839" transform="translate(45.293 0)" fill="#e9edf3"/>
      </g>
      <g id="Groupe_1933" data-name="Groupe 1933" transform="translate(187.549 209.608)">
        <path id="Tracé_99" data-name="Tracé 99" d="M-4688,259.8l21-18,6.914,8.989,22.727-17.732" transform="translate(4688 -225.132)" fill="none" stroke="#8b16d9" stroke-linecap="round" stroke-linejoin="round" stroke-width="2"/>
        <path id="Polygone_5" data-name="Polygone 5" d="M4.194,0,8.388,6.71H0Z" transform="translate(52.528) rotate(48)" fill="none" stroke="#8b16d9" stroke-linecap="round" stroke-linejoin="round" stroke-width="2"/>
      </g>
    </g>
  </g>
</svg>
