<svg xmlns="http://www.w3.org/2000/svg" xmlns:xlink="http://www.w3.org/1999/xlink" width="80" height="80" viewBox="0 0 80 80">
  <defs>
    <clipPath id="clip-path">
      <rect id="Rectangle_240" data-name="Rectangle 240" width="80" height="80" transform="translate(170 214)" fill="#fff"/>
    </clipPath>
  </defs>
  <g id="icon-data-main" transform="translate(-170 -214)" clip-path="url(#clip-path)">
    <g id="Groupe_1937" data-name="Groupe 1937" transform="translate(-38.208 42.02) rotate(-8)">
      <rect id="Rectangle_227" data-name="Rectangle 227" width="67.1" height="53.68" rx="4" transform="translate(186.681 221.575) rotate(3)" fill="#bedefa"/>
      <rect id="Rectangle_228" data-name="Rectangle 228" width="67.1" height="53.68" rx="4" transform="translate(180 218.324)" fill="#fff"/>
      <g id="Groupe_1935" data-name="Groupe 1935" transform="translate(239.551 263.617) rotate(180)">
        <rect id="Rectangle_229" data-name="Rectangle 229" width="1.678" height="33.55" rx="0.839" transform="translate(0 0)" fill="#e9edf3"/>
        <rect id="Rectangle_230" data-name="Rectangle 230" width="1.678" height="20.969" rx="0.839" transform="translate(10.065 0)" fill="#e9edf3"/>
        <rect id="Rectangle_231" data-name="Rectangle 231" width="1.678" height="16.775" rx="0.839" transform="translate(20.13 0)" fill="#e9edf3"/>
        <rect id="Rectangle_232" data-name="Rectangle 232" width="1.678" height="25.163" rx="0.839" transform="translate(30.195 0)" fill="#e9edf3"/>
        <rect id="Rectangle_233" data-name="Rectangle 233" width="1.678" height="16.775" rx="0.839" transform="translate(40.26 0)" fill="#e9edf3"/>
        <rect id="Rectangle_234" data-name="Rectangle 234" width="1.678" height="8.388" rx="0.839" transform="translate(50.325 0)" fill="#e9edf3"/>
        <rect id="Rectangle_235" data-name="Rectangle 235" width="1.678" height="29.356" rx="0.839" transform="translate(5.033 0)" fill="#e9edf3"/>
        <rect id="Rectangle_236" data-name="Rectangle 236" width="1.678" height="25.163" rx="0.839" transform="translate(15.098 0)" fill="#e9edf3"/>
        <rect id="Rectangle_237" data-name="Rectangle 237" width="1.678" height="12.581" rx="0.839" transform="translate(25.163 0)" fill="#e9edf3"/>
        <rect id="Rectangle_238" data-name="Rectangle 238" width="1.678" height="12.581" rx="0.839" transform="translate(35.228 0)" fill="#e9edf3"/>
        <rect id="Rectangle_239" data-name="Rectangle 239" width="1.678" height="12.581" rx="0.839" transform="translate(45.293 0)" fill="#e9edf3"/>
      </g>
      <g id="Groupe_1936" data-name="Groupe 1936" transform="translate(187.549 209.608)">
        <path id="Tracé_100" data-name="Tracé 100" d="M-4688,259.8l21-18,6.914,8.989,22.727-17.732" transform="translate(4688 -225.132)" fill="none" stroke="#436ca8" stroke-linecap="round" stroke-linejoin="round" stroke-width="2"/>
        <path id="Polygone_6" data-name="Polygone 6" d="M4.194,0,8.388,6.71H0Z" transform="translate(52.528) rotate(48)" fill="none" stroke="#436ca8" stroke-linecap="round" stroke-linejoin="round" stroke-width="2"/>
      </g>
    </g>
  </g>
</svg>
