<svg id="Layer_1" data-name="Layer 1" xmlns="http://www.w3.org/2000/svg" viewBox="0 0 760 180"><path d="M343.4,142.5H318l-7.7-21.3H267.8l-7.6,21.3H234.7l40-107.9h28.6ZM289.1,61.8l-14.2,39.6h28.3Z"/><path d="M368.1,140.4a27,27,0,0,1-12.2-10.3,28.8,28.8,0,0,1-4.2-15.7V68.1h23v44.5c0,4,1.2,7.1,3.5,9.1a13.7,13.7,0,0,0,9.3,3.1,14.1,14.1,0,0,0,9.3-3.1c2.3-2,3.5-5.1,3.5-9.1V68.1h22.9v46.3a29,29,0,0,1-4.2,15.7,26.5,26.5,0,0,1-12.2,10.3c-5.3,2.3-11.8,3.5-19.3,3.5A49.4,49.4,0,0,1,368.1,140.4Z"/><path d="M450.8,141.4a52.5,52.5,0,0,1-14.9-6.9l9.3-16.3a48.1,48.1,0,0,0,10.7,5.9,29.3,29.3,0,0,0,11,2.3,9.5,9.5,0,0,0,5.5-1.3,4.2,4.2,0,0,0,2-3.7,4.1,4.1,0,0,0-1.2-3,9.2,9.2,0,0,0-3.2-2l-5.8-2.2a113,113,0,0,1-12.8-5.1A25.7,25.7,0,0,1,443,102q-3.6-4.6-3.6-12A21.3,21.3,0,0,1,443,77.6a23.1,23.1,0,0,1,10-8.1,36.8,36.8,0,0,1,15-2.8,53.5,53.5,0,0,1,14.2,2,49,49,0,0,1,13.2,5.8l-9.5,14.9a41.4,41.4,0,0,0-9-4.2,27.7,27.7,0,0,0-8.6-1.7,7.6,7.6,0,0,0-4.3,1.1,3.9,3.9,0,0,0-1.7,3.3,3.5,3.5,0,0,0,1.5,2.9,13,13,0,0,0,3.5,2.1l6.3,2.2a73.4,73.4,0,0,1,11.8,5,26.3,26.3,0,0,1,8.5,7.5,20.1,20.1,0,0,1,3.5,12,24.2,24.2,0,0,1-3.5,13.1,23,23,0,0,1-10.2,8.4,40,40,0,0,1-15.7,2.8A60.2,60.2,0,0,1,450.8,141.4Z"/><path d="M557.2,85.7H541.1v28.4c0,3.2.8,5.5,2.3,7.1a8.5,8.5,0,0,0,6.2,2.3h7.3v19H543.3c-7.9,0-14.1-2.1-18.5-6.3s-6.6-10.1-6.6-17.8V85.7H506.6V68.1h11.6V47.5h22.9V68.1h16.1Z"/><path d="M595.5,82.3a32.4,32.4,0,0,1,9.9-10.4A30.8,30.8,0,0,1,621,66.7V88.6c-8.1,0-14.2,1.8-18.2,5.5s-6.1,9.5-6.1,17.4v31H573.8V68.1h21.7Z"/><path d="M648.4,138.8a37.1,37.1,0,0,1-13.6-13.9,39.3,39.3,0,0,1-4.9-19.6,39.1,39.1,0,0,1,4.9-19.6,37.9,37.9,0,0,1,45.3-16.9,30.6,30.6,0,0,1,10.3,6.1V68.1h23v74.4h-23v-6.7a30.6,30.6,0,0,1-10.3,6.1,36.8,36.8,0,0,1-12.5,2A37.3,37.3,0,0,1,648.4,138.8ZM682,122.3a17.9,17.9,0,0,0,7-6.9,19.7,19.7,0,0,0,2.6-10.1A20,20,0,0,0,689,95.2a18.3,18.3,0,0,0-7-6.8,19.3,19.3,0,0,0-9.8-2.5,20.3,20.3,0,0,0-9.8,2.4,18.3,18.3,0,0,0-7,6.8,22.1,22.1,0,0,0,0,20.4,18.3,18.3,0,0,0,7,6.8,19.3,19.3,0,0,0,9.8,2.5A20.4,20.4,0,0,0,682,122.3Z"/><path d="M755.3,142.5h-23V34.6h23Z"/><path d="M700.4,170.5l5-14.3h5.4l-7.4,20.2h-6.1L690,156.2h5.3Z"/><path d="M717.6,176.1a4.8,4.8,0,0,1-2.7-2.1,6.3,6.3,0,0,1-1.1-3.8h5a2.4,2.4,0,0,0,.7,2,2.9,2.9,0,0,0,3.9-.1,3.2,3.2,0,0,0,.6-2,2.1,2.1,0,0,0-.7-1.8,2.9,2.9,0,0,0-1.9-.6h-1.3V164h1a3.4,3.4,0,0,0,1.7-.5,2.2,2.2,0,0,0,.7-1.6,2,2,0,0,0-.6-1.6,2.4,2.4,0,0,0-3.2,0,2.6,2.6,0,0,0-.5,1.7h-4.9a5.8,5.8,0,0,1,.9-3.3,5.9,5.9,0,0,1,2.5-2.2,8.6,8.6,0,0,1,3.6-.7,7.4,7.4,0,0,1,3.4.7,5,5,0,0,1,2.4,2.1,4.7,4.7,0,0,1,.9,2.8,4.1,4.1,0,0,1-.4,1.9,6.4,6.4,0,0,1-.8,1.4l-.9.8a3.9,3.9,0,0,1,1.4.8,4,4,0,0,1,1.2,1.6,6.1,6.1,0,0,1,.4,2.4,6.5,6.5,0,0,1-.9,3.5,5.2,5.2,0,0,1-2.6,2.2,8.4,8.4,0,0,1-4,.8A9.2,9.2,0,0,1,717.6,176.1Z"/><path d="M733.1,176.3a2,2,0,0,1-.9-.9,2.8,2.8,0,0,1,.9-3.6,3.1,3.1,0,0,1,1.3-.3,2.8,2.8,0,0,1,1.3.3l1,1a3,3,0,0,1,0,2.6,2.8,2.8,0,0,1-1,.9,2,2,0,0,1-1.3.4A2.2,2.2,0,0,1,733.1,176.3Z"/><path d="M742,174.2c-1.3-1.7-2-4.4-2-7.9s.7-6.1,2-7.9a6.8,6.8,0,0,1,5.7-2.6,7,7,0,0,1,5.7,2.6c1.3,1.8,1.9,4.4,1.9,7.9s-.6,6.2-1.9,7.9a7,7,0,0,1-5.7,2.6A6.8,6.8,0,0,1,742,174.2Zm7.7-3.2a10.7,10.7,0,0,0,.8-4.7,11,11,0,0,0-.8-4.7,2.2,2.2,0,0,0-2-1.5,2.3,2.3,0,0,0-2.1,1.5,11.3,11.3,0,0,0-.7,4.7,11,11,0,0,0,.7,4.7,2.3,2.3,0,0,0,2.1,1.5A2.2,2.2,0,0,0,749.7,171Z"/><rect x="86.2" y="-3.2" width="77.6" height="186.3" rx="38.8" transform="translate(-28.2 74.6) rotate(-30)"/><path d="M24.2,170.7h0a38.8,38.8,0,0,1-14.2-53v-.2a38.8,38.8,0,0,1,53-14.2h0a38.7,38.7,0,0,1,14.2,53v.2A38.8,38.8,0,0,1,24.2,170.7Z"/></svg>