<svg xmlns="http://www.w3.org/2000/svg" xmlns:xlink="http://www.w3.org/1999/xlink" width="200" height="200" viewBox="0 0 200 200">
  <defs>
    <clipPath id="clip-austral-icon-calandar">
      <rect width="200" height="200"/>
    </clipPath>
  </defs>
  <g id="austral-icon-calandar" clip-path="url(#clip-austral-icon-calandar)">
    <g id="Groupe_41" data-name="Groupe 41">
      <rect id="BG" width="200" height="200" fill="none"/>
      <path id="Shadow" d="M147.4,30H52.6A32.691,32.691,0,0,0,20,62.6V137.4A32.692,32.692,0,0,0,52.6,170H147.4A32.692,32.692,0,0,0,180,137.4V62.6A32.691,32.691,0,0,0,147.4,30Z" transform="translate(214 214) rotate(180)" fill="#fcee92"/>
      <g id="Icon">
        <path id="Tracé_34" data-name="Tracé 34" d="M147.4,30H52.6A32.691,32.691,0,0,0,20,62.6V137.4A32.692,32.692,0,0,0,52.6,170H147.4A32.692,32.692,0,0,0,180,137.4V62.6A32.691,32.691,0,0,0,147.4,30Z" fill="#fff"/>
        <path id="Tracé_76" data-name="Tracé 76" d="M131.479,30H48.521C32.834,30,20,42.573,20,57.939v64.122C20,137.427,32.834,150,48.521,150h82.957C147.165,150,160,137.427,160,122.061V57.939C160,42.573,147.165,30,131.479,30Z" transform="translate(10 10)" fill="#f0b000"/>
        <path id="Union_1" data-name="Union 1" d="M-398.286,80.979a11.082,11.082,0,0,1,11.143-11.02A11.082,11.082,0,0,1-376,80.979,11.082,11.082,0,0,1-387.143,92,11.082,11.082,0,0,1-398.286,80.979Zm-27.238,0a11.082,11.082,0,0,1,11.143-11.02,11.082,11.082,0,0,1,11.142,11.02A11.082,11.082,0,0,1-414.381,92,11.082,11.082,0,0,1-425.524,80.979Zm-27.238,0a11.082,11.082,0,0,1,11.143-11.02,11.082,11.082,0,0,1,11.143,11.02A11.082,11.082,0,0,1-441.619,92,11.082,11.082,0,0,1-452.762,80.979Zm-27.238,0a11.082,11.082,0,0,1,11.142-11.02,11.082,11.082,0,0,1,11.143,11.02A11.082,11.082,0,0,1-468.857,92,11.082,11.082,0,0,1-480,80.979ZM-398.286,56A11.082,11.082,0,0,1-387.143,44.98,11.082,11.082,0,0,1-376,56a11.082,11.082,0,0,1-11.142,11.02A11.082,11.082,0,0,1-398.286,56Zm-27.238,0A11.082,11.082,0,0,1-414.381,44.98,11.082,11.082,0,0,1-403.238,56a11.082,11.082,0,0,1-11.142,11.02A11.082,11.082,0,0,1-425.524,56Zm-27.238,0A11.082,11.082,0,0,1-441.619,44.98,11.082,11.082,0,0,1-430.476,56a11.082,11.082,0,0,1-11.143,11.02A11.082,11.082,0,0,1-452.762,56ZM-480,56A11.082,11.082,0,0,1-468.857,44.98,11.082,11.082,0,0,1-457.714,56a11.082,11.082,0,0,1-11.143,11.02A11.082,11.082,0,0,1-480,56Zm81.714-24.98A11.082,11.082,0,0,1-387.143,20,11.082,11.082,0,0,1-376,31.02a11.082,11.082,0,0,1-11.142,11.021A11.082,11.082,0,0,1-398.286,31.02Zm-27.238,0A11.082,11.082,0,0,1-414.381,20,11.082,11.082,0,0,1-403.238,31.02a11.082,11.082,0,0,1-11.142,11.021A11.082,11.082,0,0,1-425.524,31.02Zm-27.238,0A11.082,11.082,0,0,1-441.619,20,11.082,11.082,0,0,1-430.476,31.02a11.082,11.082,0,0,1-11.143,11.021A11.082,11.082,0,0,1-452.762,31.02Zm-27.238,0A11.082,11.082,0,0,1-468.857,20,11.082,11.082,0,0,1-457.714,31.02a11.082,11.082,0,0,1-11.143,11.021A11.082,11.082,0,0,1-480,31.02Z" transform="translate(528 52)" fill="#fff" stroke="rgba(0,0,0,0)" stroke-miterlimit="10" stroke-width="1"/>
        <g id="Groupe_73" data-name="Groupe 73">
          <rect id="Rectangle_23" data-name="Rectangle 23" width="14" height="44" rx="7" transform="translate(57 11)" fill="#fcee92"/>
          <rect id="Rectangle_54" data-name="Rectangle 54" width="14" height="44" rx="7" transform="translate(128 11)" fill="#fcee92"/>
        </g>
      </g>
    </g>
  </g>
</svg>
