<svg xmlns="http://www.w3.org/2000/svg" xmlns:xlink="http://www.w3.org/1999/xlink" width="200" height="200" viewBox="0 0 200 200">
  <defs>
    <linearGradient id="linear-gradient" x1="0.5" x2="0.5" y2="1" gradientUnits="objectBoundingBox">
      <stop offset="0" stop-color="#fff9bf"/>
      <stop offset="1" stop-color="#fff"/>
    </linearGradient>
    <clipPath id="clip-austral-icon-email">
      <rect width="200" height="200"/>
    </clipPath>
  </defs>
  <g id="austral-icon-email" clip-path="url(#clip-austral-icon-email)">
    <g id="Groupe_17" data-name="Groupe 17">
      <rect id="BG" width="200" height="200" fill="none"/>
      <path id="Shadow" d="M741.481,800.685a18,18,0,0,0-34.593-6.986,32.768,32.768,0,0,0-8.007-1.014h-74.8a32.691,32.691,0,0,0-32.6,32.6v74.8a32.6,32.6,0,0,0,32.6,32.6h74.8a32.6,32.6,0,0,0,32.6-32.6v-74.8a32.758,32.758,0,0,0-1.014-8.007A18.005,18.005,0,0,0,741.481,800.685Z" transform="translate(-547.481 -748.685)" fill="#fcee92"/>
      <g id="Icon">
        <path id="Rectangle_7" data-name="Rectangle 7" d="M0,0H140a0,0,0,0,1,0,0V67.4A32.6,32.6,0,0,1,107.4,100H32.6A32.6,32.6,0,0,1,0,67.4V0A0,0,0,0,1,0,0Z" transform="translate(30 70)" fill="url(#linear-gradient)"/>
        <path id="Tracé_22" data-name="Tracé 22" d="M100,110,30,83V62.6A32.692,32.692,0,0,1,62.6,30H137.4A32.692,32.692,0,0,1,170,62.6V83Z" fill="#fff"/>
        <circle id="Ellipse_3" data-name="Ellipse 3" cx="18" cy="18" r="18" transform="translate(144 20)" fill="#f0b000"/>
      </g>
    </g>
  </g>
</svg>
