<svg xmlns="http://www.w3.org/2000/svg" xmlns:xlink="http://www.w3.org/1999/xlink" width="200" height="200" viewBox="0 0 200 200">
  <defs>
    <linearGradient id="linear-gradient" x1="0.5" y1="0.003" x2="0.5" y2="0.995" gradientUnits="objectBoundingBox">
      <stop offset="0" stop-color="#fff9bf"/>
      <stop offset="1" stop-color="#fff"/>
    </linearGradient>
    <linearGradient id="linear-gradient-2" x1="0.5" y1="1" x2="0.5" gradientUnits="objectBoundingBox">
      <stop offset="0" stop-color="#fffbd5"/>
      <stop offset="1" stop-color="#fff"/>
    </linearGradient>
    <clipPath id="clip-austral-icon-user">
      <rect width="200" height="200"/>
    </clipPath>
  </defs>
  <g id="austral-icon-user" clip-path="url(#clip-austral-icon-user)">
    <g id="Groupe_8" data-name="Groupe 8">
      <rect id="BG" width="200" height="200" fill="none"/>
      <path id="Shadow" d="M714.577,873.5l-21.7-8.678a39.835,39.835,0,0,0,13.542-29.96v-3.425a6.847,6.847,0,1,0,0-13.694v-5.706A39.941,39.941,0,0,0,666.482,772.1h0a39.941,39.941,0,0,0-39.94,39.941v5.706a6.847,6.847,0,0,0,0,13.694v3.425a39.836,39.836,0,0,0,13.541,29.96l-21.7,8.678A50.567,50.567,0,0,0,586.6,920.45v11.412c0,6.3,35.765,11.412,79.882,11.412q2.217,0,4.4-.018h.007c42.067-.327,75.476-5.3,75.476-11.394V920.45A50.566,50.566,0,0,0,714.577,873.5Z" transform="translate(-553.598 -748.096)" fill="#fcee92"/>
      <g id="Icon">
        <path id="Tracé_5" data-name="Tracé 5" d="M147.172,111.2,121.9,101.091H76.253L50.98,111.2a50.567,50.567,0,0,0-31.787,46.95h0v11.412c0,6.3,35.765,11.412,79.883,11.412s79.883-5.109,79.883-11.412V158.15h0A50.565,50.565,0,0,0,147.172,111.2Z" fill="url(#linear-gradient)"/>
        <path id="Tracé_6" data-name="Tracé 6" d="M121.9,101.091H76.441l18.612,79.868q2,.015,4.023.015,2.22,0,4.407-.018l20.2-79.151Z" fill="#f0b000"/>
        <path id="Tracé_7" data-name="Tracé 7" d="M147.006,168.421,133.312,170.7l-13.694-2.282v-5.706h27.388Z" fill="#f0b000"/>
        <g id="Groupe_6" data-name="Groupe 6">
          <g id="Groupe_5" data-name="Groupe 5">
            <circle id="Ellipse_1" data-name="Ellipse 1" cx="6.847" cy="6.847" r="6.847" transform="translate(52.288 55.443)" fill="url(#linear-gradient-2)"/>
            <circle id="Ellipse_2" data-name="Ellipse 2" cx="6.847" cy="6.847" r="6.847" transform="translate(132.171 55.443)" fill="url(#linear-gradient-2)"/>
          </g>
          <rect id="Rectangle_4" data-name="Rectangle 4" width="79.883" height="102.707" rx="39.941" transform="translate(59.135 9.796)" fill="#fff"/>
          <path id="Tracé_8" data-name="Tracé 8" d="M98.007,82.056l-3.679-2.943A1.711,1.711,0,0,1,95.4,76.065h7.358a1.712,1.712,0,0,1,1.07,3.048l-3.679,2.943A1.71,1.71,0,0,1,98.007,82.056Z" fill="#fcee92"/>
        </g>
      </g>
    </g>
  </g>
</svg>
