<svg xmlns="http://www.w3.org/2000/svg" xmlns:xlink="http://www.w3.org/1999/xlink" width="200" height="200" viewBox="0 0 200 200">
  <defs>
    <clipPath id="clip-austral-icon-gear">
      <rect width="200" height="200"/>
    </clipPath>
  </defs>
  <g id="austral-icon-gear" clip-path="url(#clip-austral-icon-gear)">
    <g id="Groupe_14" data-name="Groupe 14">
      <rect id="BG" width="200" height="200" fill="none"/>
      <path id="Shadow" d="M748.481,871.858V843.512l-23.759-3.96A60.608,60.608,0,0,0,720.5,829.3l13.985-19.58-20.039-20.039L694.861,803.67a60.605,60.605,0,0,0-10.247-4.226l-3.96-23.759H652.308l-3.96,23.759a60.722,60.722,0,0,0-10.247,4.227L618.52,789.685l-20.039,20.039,13.986,19.582a60.588,60.588,0,0,0-4.226,10.246l-23.76,3.96v28.346l23.76,3.96a60.588,60.588,0,0,0,4.226,10.246l-13.986,19.582,20.039,20.039L638.1,911.7a60.588,60.588,0,0,0,10.246,4.226l3.96,23.76h28.346l3.96-23.759a60.6,60.6,0,0,0,10.247-4.227l19.581,13.986,20.039-20.039L720.5,886.065a60.6,60.6,0,0,0,4.226-10.247Z" transform="translate(-552.481 -743.685)" fill="#86bef7"/>
      <g id="Icon">
        <g id="Groupe_13" data-name="Groupe 13">
          <g id="Groupe_15" data-name="Groupe 15">
            <path id="Tracé_10" data-name="Tracé 10" d="M120.247,54.444H79.753L85.827,18h28.346Z" fill="#fff"/>
            <path id="Tracé_11" data-name="Tracé 11" d="M79.753,145.556h40.494L114.173,182H85.827Z" fill="#fff"/>
            <path id="Tracé_12" data-name="Tracé 12" d="M145.556,120.247V79.753L182,85.827v28.346Z" fill="#fff"/>
            <path id="Tracé_13" data-name="Tracé 13" d="M54.444,79.753v40.494L18,114.173V85.827Z" fill="#fff"/>
            <path id="Tracé_14" data-name="Tracé 14" d="M146.529,82.1,117.9,53.471,147.961,32,168,52.039Z" fill="#fff"/>
            <path id="Tracé_15" data-name="Tracé 15" d="M53.471,117.9,82.1,146.529,52.039,168,32,147.961Z" fill="#fff"/>
            <path id="Tracé_16" data-name="Tracé 16" d="M117.9,146.529,146.529,117.9,168,147.961,147.961,168Z" fill="#fff"/>
            <path id="Tracé_17" data-name="Tracé 17" d="M82.1,53.471,53.471,82.1,32,52.039,52.039,32Z" fill="#fff"/>
          </g>
        </g>
        <path id="Tracé_18" data-name="Tracé 18" d="M141.889,56.652a60.271,60.271,0,1,0,0,85.236A60.272,60.272,0,0,0,141.889,56.652Zm-42.618,60.2A17.579,17.579,0,1,1,116.85,99.271,17.58,17.58,0,0,1,99.271,116.85Z" transform="translate(0.729 0.729)" fill="#fff"/>
        <path id="Tracé_19" data-name="Tracé 19" d="M102.621,61a41.621,41.621,0,1,0,41.621,41.621A41.621,41.621,0,0,0,102.621,61Z" transform="translate(202.621 202.621) rotate(180)" fill="#0569f5"/>
        <path id="Tracé_79" data-name="Tracé 79" d="M85.194,61a24.194,24.194,0,1,0,24.194,24.194A24.194,24.194,0,0,0,85.194,61Z" transform="translate(185.194 185.194) rotate(180)" fill="#86bef7"/>
      </g>
    </g>
  </g>
</svg>
