<!-- Generated by IcoMoon.io -->
<svg version="1.1" xmlns="http://www.w3.org/2000/svg" width="24" height="24" viewBox="0 0 24 24">
<title>align-right</title>
<path d="M3 5h18q0.414 0 0.707 0.293t0.293 0.707-0.293 0.707-0.707 0.293h-18q-0.414 0-0.707-0.293t-0.293-0.707 0.293-0.707 0.707-0.293zM7 17h14q0.414 0 0.707 0.293t0.293 0.707-0.293 0.707-0.707 0.293h-14q-0.414 0-0.707-0.293t-0.293-0.707 0.293-0.707 0.707-0.293zM3 13h18q0.414 0 0.707 0.293t0.293 0.707-0.293 0.707-0.707 0.293h-18q-0.414 0-0.707-0.293t-0.293-0.707 0.293-0.707 0.707-0.293zM7 9h14q0.414 0 0.707 0.293t0.293 0.707-0.293 0.707-0.707 0.293h-14q-0.414 0-0.707-0.293t-0.293-0.707 0.293-0.707 0.707-0.293z"></path>
</svg>
