<!-- Generated by IcoMoon.io -->
<svg version="1.1" xmlns="http://www.w3.org/2000/svg" width="24" height="24" viewBox="0 0 24 24">
<title>archive</title>
<path d="M6 3h12l6 6v9q0 1.242-0.879 2.121t-2.121 0.879h-18q-1.242 0-2.121-0.879t-0.879-2.121v-9zM22 18v-7h-4.39q-0.664 1.735-2.215 2.867t-3.395 1.133q-1.226 0-2.383-0.524t-2.016-1.433-1.289-2.043h-4.313v7q0 0.407 0.289 0.703t0.711 0.297h18q0.414 0 0.707-0.293t0.293-0.707zM21.172 9l-3.961-4h-10.383l-4 4h5.172q0 0.992 0.531 1.914t1.465 1.504 2.004 0.582 2.004-0.582 1.465-1.504 0.531-1.914h5.172z"></path>
</svg>
