<!-- Generated by IcoMoon.io -->
<svg version="1.1" xmlns="http://www.w3.org/2000/svg" width="24" height="24" viewBox="0 0 24 24">
<title>arobase</title>
<path d="M6.078 12.303c0-1.438 0.488-2.672 1.46-3.7 0.991-1.028 2.194-1.543 3.613-1.543 0.619 0 1.178 0.088 1.672 0.265 0.566 0.197 1.019 0.497 1.353 0.906v-0.959h2.044v7.909c0 0.303 0.131 0.568 0.397 0.8 0.247 0.212 0.556 0.319 0.928 0.319 0.884 0 1.637-0.45 2.256-1.353 0.619-0.884 0.928-1.966 0.928-3.241 0-2.231-0.85-4.141-2.553-5.734-1.719-1.575-3.785-2.362-6.197-2.362s-4.469 0.86-6.169 2.575c-1.703 1.715-2.553 3.797-2.553 6.241 0 2.247 0.85 4.159 2.55 5.735 1.7 1.594 3.753 2.391 6.16 2.391 1.131 0 2.169-0.125 3.107-0.372 0.919-0.247 1.691-0.603 2.309-1.063l0.928 1.7c-0.763 0.531-1.682 0.938-2.762 1.222-1.096 0.284-2.293 0.425-3.584 0.425-2.991 0-5.55-0.981-7.675-2.947-2.094-1.95-3.147-4.313-3.147-7.090 0-3.009 1.060-5.575 3.182-7.7s4.675-3.188 7.663-3.188c3.006 0 5.569 0.991 7.691 2.975 2.122 1.981 3.181 4.382 3.181 7.197 0 1.841-0.522 3.406-1.562 4.7-1.040 1.309-2.293 1.966-3.759 1.966-0.828 0-1.553-0.193-2.169-0.584-0.619-0.407-0.997-0.919-1.138-1.541-0.3 0.46-0.725 0.822-1.275 1.088s-1.15 0.397-1.806 0.397c-1.415 0-2.619-0.541-3.613-1.625-0.969-1.063-1.457-2.331-1.457-3.806zM8.256 12.319c0 0.884 0.275 1.647 0.822 2.284 0.55 0.656 1.238 0.981 2.072 0.981 0.85 0 1.565-0.329 2.15-0.981 0.584-0.637 0.875-1.397 0.875-2.284 0-0.884-0.29-1.647-0.875-2.285s-1.3-0.956-2.15-0.956c-0.831 0-1.522 0.329-2.072 0.981-0.547 0.64-0.822 1.39-0.822 2.259z"></path>
</svg>
