<!-- Generated by IcoMoon.io -->
<svg version="1.1" xmlns="http://www.w3.org/2000/svg" width="24" height="24" viewBox="0 0 24 24">
<title>arrange</title>
<path d="M7.187 3.094c0.281 0 0.518 0.096 0.711 0.289l4.5 4.5c0.193 0.193 0.289 0.43 0.289 0.711 0 0.286-0.095 0.525-0.285 0.715s-0.428 0.285-0.715 0.285c-0.281 0-0.518-0.096-0.711-0.289l-2.789-2.797v13.086c0 0.276-0.098 0.511-0.293 0.707s-0.431 0.293-0.707 0.293c-0.276 0-0.512-0.098-0.707-0.293s-0.293-0.431-0.293-0.707v-13.086l-2.789 2.797c-0.193 0.193-0.43 0.289-0.711 0.289-0.287 0-0.525-0.095-0.715-0.285s-0.285-0.428-0.285-0.715c0-0.281 0.096-0.518 0.289-0.711l4.5-4.5c0.193-0.193 0.43-0.289 0.711-0.289z"></path>
<path d="M16.813 20.906c-0.281 0-0.518-0.096-0.711-0.289l-4.5-4.5c-0.193-0.193-0.289-0.43-0.289-0.711 0-0.287 0.095-0.525 0.285-0.715s0.428-0.285 0.715-0.285c0.281 0 0.518 0.096 0.711 0.289l2.789 2.797v-13.086c0-0.276 0.098-0.512 0.293-0.707s0.431-0.293 0.707-0.293 0.512 0.098 0.707 0.293 0.293 0.431 0.293 0.707v13.086l2.789-2.797c0.193-0.193 0.43-0.289 0.711-0.289 0.287 0 0.525 0.095 0.715 0.285s0.285 0.428 0.285 0.715c0 0.281-0.096 0.518-0.289 0.711l-4.5 4.5c-0.193 0.193-0.43 0.289-0.711 0.289z"></path>
</svg>
