<!-- Generated by IcoMoon.io -->
<svg version="1.1" xmlns="http://www.w3.org/2000/svg" width="24" height="24" viewBox="0 0 24 24">
<title>arrow-rightup</title>
<path d="M7.753 4.931c0.2-0.2 0.434-0.297 0.707-0.297h9.9c0.272 0 0.509 0.1 0.706 0.297 0.2 0.2 0.297 0.434 0.297 0.707v9.9c0 0.272-0.1 0.509-0.297 0.707-0.203 0.203-0.437 0.303-0.706 0.303s-0.503-0.1-0.707-0.303c-0.2-0.2-0.297-0.434-0.297-0.707l0.006-7.484-11.022 11.022c-0.194 0.194-0.431 0.294-0.707 0.294s-0.512-0.097-0.707-0.294c-0.194-0.194-0.294-0.431-0.294-0.706s0.097-0.512 0.294-0.707l11.022-11.022-7.484 0.006c-0.272 0-0.509-0.1-0.707-0.297-0.203-0.203-0.303-0.437-0.303-0.707s0.097-0.509 0.297-0.713z"></path>
</svg>
