<!-- Generated by IcoMoon.io -->
<svg version="1.1" xmlns="http://www.w3.org/2000/svg" width="24" height="24" viewBox="0 0 24 24">
<title>arrow-leftup</title>
<path d="M4.928 16.247c-0.2-0.2-0.297-0.434-0.297-0.707v-9.9c0-0.271 0.1-0.509 0.297-0.707 0.2-0.2 0.434-0.297 0.707-0.297h9.9c0.272 0 0.509 0.1 0.707 0.297 0.203 0.203 0.303 0.437 0.303 0.707s-0.1 0.503-0.303 0.707c-0.2 0.2-0.434 0.297-0.707 0.297l-7.484-0.006 11.022 11.022c0.194 0.193 0.294 0.431 0.294 0.706s-0.097 0.512-0.294 0.706c-0.193 0.194-0.431 0.294-0.706 0.294s-0.512-0.097-0.706-0.294l-11.022-11.022 0.006 7.484c0 0.272-0.1 0.509-0.297 0.707-0.203 0.203-0.437 0.303-0.707 0.303s-0.509-0.097-0.713-0.297z"></path>
</svg>
