<!-- Generated by IcoMoon.io -->
<svg version="1.1" xmlns="http://www.w3.org/2000/svg" width="24" height="24" viewBox="0 0 24 24">
<title>arrow-rightdown</title>
<path d="M19.069 7.757c0.2 0.2 0.297 0.434 0.297 0.707v9.9c0 0.272-0.1 0.509-0.297 0.707-0.2 0.2-0.434 0.297-0.707 0.297h-9.9c-0.272 0-0.509-0.1-0.707-0.297-0.203-0.203-0.303-0.437-0.303-0.707s0.1-0.503 0.303-0.706c0.2-0.2 0.434-0.297 0.707-0.297l7.484 0.006-11.022-11.022c-0.193-0.194-0.294-0.431-0.294-0.707s0.097-0.512 0.294-0.707c0.194-0.194 0.431-0.294 0.707-0.294s0.512 0.097 0.707 0.294l11.022 11.022-0.006-7.484c0-0.272 0.1-0.509 0.297-0.707 0.203-0.203 0.437-0.303 0.707-0.303s0.509 0.097 0.712 0.297z"></path>
</svg>
