<!-- Generated by IcoMoon.io -->
<svg version="1.1" xmlns="http://www.w3.org/2000/svg" width="24" height="24" viewBox="0 0 24 24">
<title>bag</title>
<path d="M12 0c0.677 0 1.324 0.133 1.942 0.398s1.148 0.621 1.594 1.067 0.801 0.977 1.067 1.594 0.398 1.264 0.398 1.942v1h5.406l-1.562 15c0 0.828-0.293 1.535-0.879 2.121s-1.293 0.879-2.121 0.879h-11.687c-0.828 0-1.535-0.293-2.121-0.879s-0.879-1.293-0.879-2.121l-1.562-15h5.406v-1c0-0.677 0.133-1.324 0.398-1.942s0.621-1.148 1.066-1.594 0.976-0.801 1.594-1.067 1.264-0.398 1.942-0.398zM18.656 21l1.532-13h-16.375l1.531 13c0 0.276 0.098 0.511 0.293 0.707s0.431 0.293 0.707 0.293h11.312c0.276 0 0.512-0.098 0.707-0.293s0.293-0.431 0.293-0.707zM12 2c-0.828 0-1.535 0.293-2.121 0.879s-0.879 1.293-0.879 2.121v1h6v-1c0-0.828-0.293-1.535-0.879-2.121s-1.293-0.879-2.121-0.879z"></path>
</svg>
