<!-- Generated by IcoMoon.io -->
<svg version="1.1" xmlns="http://www.w3.org/2000/svg" width="24" height="24" viewBox="0 0 24 24">
<title>bold</title>
<path d="M18.999 8.355c0 1.339-0.645 2.629-2.257 3.347 2.033 0.62 2.777 2.777 2.777 3.869 0 3.868-2.901 5.108-6.497 5.108-2.752 0-5.48 0-8.233 0v-17.358c2.728 0 5.48 0 8.233 0 3.422 0 5.976 1.537 5.976 5.034zM8.014 10.289h5.009c2.058 0 2.728-0.868 2.728-1.86 0-0.793-0.645-2.132-2.728-2.132h-5.009v3.992zM8.014 17.629h5.009c1.339 0 3.248-0.446 3.248-2.083 0-1.562-1.91-2.381-3.248-2.381h-5.009v4.463z"></path>
</svg>
