<!-- Generated by IcoMoon.io -->
<svg version="1.1" xmlns="http://www.w3.org/2000/svg" width="24" height="24" viewBox="0 0 24 24">
<title>branching</title>
<path d="M22.625 12.985h-6.125c-0.552 0-1 0.448-1 1v0 2.094h-2.469v-5.156h2.031c0.552 0 1-0.448 1-1v0-6.125c0-0.552-0.448-1-1-1v0h-6.125c-0.552 0-1 0.448-1 1v0 6.125c0 0.552 0.448 1 1 1v0h2.094v5.156h-2.656v-2.094c0-0.552-0.448-1-1-1v0h-6.125c-0.552 0-1 0.448-1 1v0 6.125c0 0.552 0.448 1 1 1v0h6.125c0.552 0 1-0.448 1-1v0-2.031h7.125v2.031c0 0.552 0.448 1 1 1v0h6.125c0.552 0 1-0.448 1-1v0-6.125c0-0.552-0.448-1-1-1v0zM6.375 19.109h-4.125v-4.125h4.125zM9.938 8.922v-4.125h4.125v4.125zM21.625 19.109h-4.125v-4.125h4.125z"></path>
</svg>
