<!-- Generated by IcoMoon.io -->
<svg version="1.1" xmlns="http://www.w3.org/2000/svg" width="24" height="24" viewBox="0 0 24 24">
<title>calendar</title>
<path d="M22.121 3.879c-0.586-0.586-1.293-0.879-2.121-0.879h-2.063v-1.211c0-0.552-0.448-1-1-1s-1 0.448-1 1v1.211h-7.875v-1.211c0-0.552-0.448-1-1-1s-1 0.448-1 1v1.211h-2.063c-0.828 0-1.535 0.293-2.121 0.879s-0.879 1.293-0.879 2.121v14c0 0.828 0.293 1.535 0.879 2.121s1.293 0.879 2.121 0.879h16c0.828 0 1.535-0.293 2.121-0.879s0.879-1.293 0.879-2.121v-14c0-0.828-0.293-1.535-0.879-2.121zM21 20c0 0.276-0.098 0.511-0.293 0.707s-0.431 0.293-0.707 0.293h-16c-0.276 0-0.512-0.098-0.707-0.293s-0.293-0.431-0.293-0.707v-14c0-0.276 0.098-0.512 0.293-0.707s0.431-0.293 0.707-0.293h2.063v1.086c0 0.552 0.448 1 1 1s1-0.448 1-1v-1.086h7.875v1.086c0 0.552 0.448 1 1 1s1-0.448 1-1v-1.086h2.063c0.276 0 0.511 0.098 0.707 0.293s0.293 0.431 0.293 0.707v14z"></path>
<path d="M5 9.125h2v2h-2v-2z"></path>
<path d="M17 9.125h2v2h-2v-2z"></path>
<path d="M13 9.125h2v2h-2v-2z"></path>
<path d="M9 9.125h2v2h-2v-2z"></path>
<path d="M5 17.125h2v2h-2v-2z"></path>
<path d="M5 13.125h2v2h-2v-2z"></path>
<path d="M17 17.125h2v2h-2v-2z"></path>
<path d="M17 13.125h2v2h-2v-2z"></path>
<path d="M13 17.125h2v2h-2v-2z"></path>
<path d="M9 17.125h2v2h-2v-2z"></path>
<path d="M9 13.125h2v2h-2v-2z"></path>
<path d="M13 13.125h2v2h-2v-2z"></path>
</svg>
