<!-- Generated by IcoMoon.io -->
<svg version="1.1" xmlns="http://www.w3.org/2000/svg" width="24" height="24" viewBox="0 0 24 24">
<title>caution</title>
<path d="M21.931 22.447h-19.862c-0.725 0-1.393-0.394-1.75-1.025-0.353-0.628-0.338-1.4 0.034-2.016l9.928-16.878c0.003-0.003 0.006-0.010 0.009-0.013 0.366-0.6 1.007-0.959 1.709-0.959s1.344 0.359 1.709 0.959c0.003 0.003 0.006 0.010 0.009 0.013l9.928 16.881c0.372 0.616 0.385 1.388 0.035 2.016-0.356 0.628-1.025 1.022-1.75 1.022zM2.066 20.447c0 0 0.003 0 0 0h19.866c0 0 0.003 0 0.003 0s0 0 0-0.003c0 0 0 0 0 0-0.003-0.006-0.006-0.009-0.009-0.016l-9.925-16.875c0 0-0.003 0-0.003 0l-9.925 16.875c0 0.006-0.003 0.009-0.006 0.019 0-0.003 0-0.003 0 0 0-0.003 0 0 0 0z"></path>
<path d="M12 15.875c-0.553 0-1-0.447-1-1v-5.625c0-0.553 0.447-1 1-1s1 0.447 1 1v5.625c0 0.553-0.447 1-1 1z"></path>
<path d="M12 18.844c-0.262 0-0.522-0.107-0.707-0.294-0.184-0.184-0.294-0.444-0.294-0.706s0.106-0.522 0.294-0.707c0.188-0.188 0.444-0.294 0.707-0.294s0.522 0.106 0.707 0.294c0.188 0.188 0.294 0.444 0.294 0.707s-0.106 0.522-0.294 0.706c-0.184 0.188-0.444 0.294-0.707 0.294z"></path>
</svg>
