<!-- Generated by IcoMoon.io -->
<svg version="1.1" xmlns="http://www.w3.org/2000/svg" width="24" height="24" viewBox="0 0 24 24">
<title>charts</title>
<path d="M12 1.050c-6.075 0-10.95 4.95-10.95 10.95 0 6.075 4.95 10.95 10.95 10.95s10.95-4.95 10.95-10.95c0-6.075-4.875-10.95-10.95-10.95zM11.025 3.075v3.975c0 0.525 0.45 0.975 0.975 0.975 2.25 0 4.050 1.8 4.050 4.050s-1.8 4.050-4.050 4.050c-1.050 0-2.1-0.45-2.85-1.2-0.15-0.15-0.45-0.3-0.675-0.3s-0.525 0.075-0.675 0.3l-2.775 2.775c-1.275-1.575-2.025-3.525-2.025-5.625 0-4.725 3.525-8.55 8.025-9zM12 21.075c-2.175 0-4.125-0.75-5.625-2.025l2.175-2.175c0.975 0.75 2.25 1.125 3.45 1.125 3.3 0 6-2.7 6-6 0-3-2.175-5.4-5.025-5.925v-3.075c4.5 0.525 8.025 4.35 8.025 9 0 5.025-4.050 9.075-9 9.075z"></path>
</svg>
