<!-- Generated by IcoMoon.io -->
<svg version="1.1" xmlns="http://www.w3.org/2000/svg" width="24" height="24" viewBox="0 0 24 24">
<title>charts-3</title>
<path d="M12 1.050c-0.525 0-0.975 0.45-0.975 0.975v1.575c-3.9 0.45-6.975 3.525-7.425 7.425h-1.575c-0.525 0-0.975 0.45-0.975 0.975 0 6.075 4.95 10.95 10.95 10.95s10.95-4.95 10.95-10.95c0-6.075-4.875-10.95-10.95-10.95zM11.025 5.55v1.425c0 0.525 0.45 0.975 0.975 0.975 2.25 0 4.050 1.8 4.050 4.050s-1.8 4.050-4.050 4.050c-1.050 0-2.1-0.45-2.85-1.2s-1.2-1.8-1.2-2.85c0-0.525-0.45-0.975-0.975-0.975h-1.425c0.45-2.775 2.625-5.025 5.475-5.475zM12 21.075c-4.65 0-8.475-3.525-9-8.025h3.075c0.225 1.2 0.75 2.325 1.65 3.225 1.125 1.125 2.625 1.725 4.2 1.725 3.3 0 6-2.7 6-6 0-3-2.175-5.4-5.025-5.925v-3.075c4.5 0.525 8.025 4.35 8.025 9 0.075 5.025-3.975 9.075-8.925 9.075z"></path>
</svg>
