<!-- Generated by IcoMoon.io -->
<svg version="1.1" xmlns="http://www.w3.org/2000/svg" width="24" height="24" viewBox="0 0 24 24">
<title>chrono</title>
<path d="M20.258 9.7c-0.329-0.769-0.738-1.465-1.226-2.087l0.825-0.825c0.403-0.403 0.403-1.056 0-1.459s-1.056-0.403-1.459 0l-0.825 0.825c-0.622-0.487-1.317-0.896-2.087-1.226-0.79-0.338-1.609-0.555-2.456-0.652v-1.403h1.468c0.569 0 1.031-0.462 1.031-1.031s-0.462-1.031-1.031-1.031h-5c-0.569 0-1.031 0.462-1.031 1.031s0.462 1.031 1.031 1.031h1.469v1.403c-0.847 0.097-1.666 0.313-2.456 0.652-1.106 0.473-2.059 1.111-2.86 1.911s-1.438 1.754-1.911 2.86c-0.473 1.106-0.71 2.269-0.71 3.488s0.237 2.381 0.71 3.487 1.111 2.059 1.911 2.86c0.8 0.8 1.754 1.438 2.86 1.911s2.269 0.71 3.488 0.71 2.381-0.237 3.487-0.71 2.059-1.111 2.86-1.911c0.8-0.8 1.438-1.754 1.911-2.86s0.71-2.269 0.71-3.488-0.237-2.381-0.71-3.488zM18.362 15.863c-0.367 0.859-0.863 1.603-1.473 2.213s-1.354 1.106-2.213 1.473c-0.855 0.366-1.73 0.544-2.676 0.544s-1.821-0.178-2.676-0.544c-0.859-0.367-1.603-0.863-2.213-1.473s-1.105-1.354-1.473-2.213c-0.366-0.855-0.544-1.73-0.544-2.676s0.178-1.821 0.544-2.676c0.368-0.859 0.863-1.603 1.473-2.213s1.354-1.105 2.213-1.473c0.805-0.344 1.627-0.522 2.509-0.542 0.054 0.009 0.11 0.014 0.167 0.014s0.112-0.005 0.167-0.014c0.882 0.019 1.705 0.197 2.509 0.542 0.859 0.368 1.603 0.863 2.213 1.473s1.106 1.354 1.473 2.213c0.366 0.855 0.544 1.73 0.544 2.676s-0.178 1.821-0.544 2.676z"></path>
<path d="M13 12.773v-4.649c0-0.276-0.098-0.511-0.293-0.707s-0.431-0.293-0.707-0.293c-0.276 0-0.511 0.098-0.707 0.293s-0.293 0.431-0.293 0.707v5.063c0 0.281 0.096 0.518 0.289 0.711l3 3c0.193 0.193 0.43 0.289 0.711 0.289s0.518-0.096 0.711-0.289 0.289-0.43 0.289-0.711-0.096-0.518-0.289-0.711l-2.711-2.703z"></path>
</svg>
