<!-- Generated by IcoMoon.io -->
<svg version="1.1" xmlns="http://www.w3.org/2000/svg" width="24" height="24" viewBox="0 0 24 24">
<title>circle-check</title>
<path d="M12 1q2.243 0 4.277 0.871t3.508 2.344 2.344 3.508 0.871 4.277-0.871 4.277-2.344 3.508-3.508 2.344-4.277 0.871-4.277-0.871-3.508-2.344-2.344-3.508-0.871-4.277 0.871-4.277 2.344-3.508 3.508-2.344 4.277-0.871zM12 3q-1.829 0-3.496 0.715t-2.871 1.918-1.918 2.871-0.715 3.496 0.715 3.496 1.918 2.871 2.871 1.918 3.496 0.715 3.496-0.715 2.871-1.918 1.918-2.871 0.715-3.496-0.715-3.496-1.918-2.871-2.871-1.918-3.496-0.715zM15.367 8.992q0.414 0 0.707 0.293t0.293 0.707-0.297 0.711l-4.242 4.242q-0.289 0.289-0.704 0.289-0.422 0-0.711-0.289l-2.125-2.117q-0.289-0.289-0.289-0.711 0-0.414 0.293-0.707t0.707-0.293 0.711 0.297l1.414 1.414 3.531-3.539q0.297-0.297 0.711-0.297z"></path>
</svg>
