<!-- Generated by IcoMoon.io -->
<svg version="1.1" xmlns="http://www.w3.org/2000/svg" width="24" height="24" viewBox="0 0 24 24">
<title>circles</title>
<path d="M22.366 11.897c-0.425-0.991-0.997-1.85-1.706-2.559s-1.569-1.281-2.56-1.706c-0.431-0.184-0.862-0.329-1.306-0.431-0.103-0.441-0.247-0.875-0.431-1.307-0.425-0.991-0.997-1.85-1.706-2.559s-1.569-1.281-2.56-1.706c-0.991-0.422-2.006-0.628-3.097-0.628s-2.106 0.206-3.104 0.634c-0.991 0.425-1.85 0.997-2.56 1.706s-1.281 1.569-1.706 2.559c-0.425 0.994-0.632 2.009-0.632 3.1s0.206 2.106 0.635 3.104c0.425 0.991 0.997 1.85 1.706 2.56s1.569 1.281 2.559 1.706c0.431 0.184 0.862 0.328 1.307 0.431 0.103 0.44 0.247 0.875 0.431 1.306 0.425 0.991 0.997 1.85 1.706 2.56s1.569 1.281 2.559 1.706c0.997 0.428 2.009 0.634 3.103 0.634s2.106-0.206 3.103-0.634c0.991-0.425 1.85-0.997 2.56-1.706s1.281-1.569 1.706-2.56c0.428-0.997 0.634-2.009 0.634-3.103s-0.216-2.11-0.643-3.106zM4.753 13.247c-0.528-0.528-0.959-1.178-1.281-1.931-0.319-0.744-0.472-1.5-0.472-2.316s0.153-1.572 0.472-2.316c0.322-0.753 0.753-1.403 1.281-1.931s1.178-0.959 1.931-1.281c0.741-0.319 1.5-0.472 2.316-0.472s1.572 0.153 2.316 0.472c0.753 0.322 1.403 0.753 1.931 1.281s0.959 1.178 1.281 1.931c0.047 0.106 0.088 0.215 0.128 0.322-0.962 0.041-1.866 0.244-2.756 0.625-0.991 0.425-1.85 0.997-2.559 1.706s-1.281 1.569-1.706 2.559c-0.381 0.891-0.587 1.794-0.625 2.756-0.106-0.038-0.215-0.081-0.322-0.128-0.756-0.322-1.406-0.753-1.934-1.278zM15 9c0 0.816-0.153 1.572-0.472 2.316-0.322 0.753-0.753 1.403-1.281 1.931s-1.178 0.959-1.931 1.281c-0.741 0.319-1.5 0.472-2.316 0.472 0-0.815 0.153-1.572 0.472-2.315 0.322-0.753 0.753-1.403 1.281-1.931s1.178-0.959 1.931-1.281c0.744-0.319 1.5-0.472 2.315-0.472zM20.528 17.315c-0.322 0.753-0.753 1.403-1.281 1.931s-1.178 0.959-1.931 1.281c-0.741 0.319-1.5 0.472-2.315 0.472s-1.572-0.153-2.315-0.472c-0.753-0.322-1.403-0.753-1.931-1.281s-0.959-1.178-1.281-1.931c-0.047-0.106-0.088-0.216-0.128-0.322 0.962-0.040 1.866-0.244 2.756-0.625 0.991-0.425 1.85-0.997 2.56-1.706s1.281-1.569 1.706-2.56c0.381-0.891 0.587-1.794 0.625-2.756 0.107 0.038 0.216 0.081 0.322 0.128 0.753 0.322 1.403 0.753 1.931 1.281s0.959 1.178 1.281 1.931c0.319 0.741 0.472 1.5 0.472 2.315s-0.15 1.569-0.469 2.312z"></path>
</svg>
