<!-- Generated by IcoMoon.io -->
<svg version="1.1" xmlns="http://www.w3.org/2000/svg" width="24" height="24" viewBox="0 0 24 24">
<title>clock-2</title>
<path d="M12.977 12.071v-4.648c0-0.277-0.098-0.511-0.293-0.708s-0.431-0.293-0.708-0.293-0.511 0.098-0.708 0.293-0.293 0.431-0.293 0.708v5.062c0 0.281 0.096 0.518 0.288 0.71l3 3c0.192 0.192 0.429 0.288 0.71 0.288s0.518-0.096 0.71-0.288 0.288-0.429 0.288-0.71-0.096-0.518-0.288-0.71l-2.707-2.705z"></path>
<path d="M11.977 3.518c-4.952 0-8.967 4.015-8.967 8.967 0 2.117 0.733 4.064 1.962 5.597l-1.362 1.362c-0.389 0.389-0.389 1.019 0 1.409 0.194 0.194 0.45 0.29 0.706 0.29s0.511-0.096 0.706-0.29l1.362-1.362c1.535 1.228 3.481 1.962 5.597 1.962s4.064-0.734 5.597-1.962l1.378 1.378c0.194 0.194 0.45 0.29 0.706 0.29s0.511-0.098 0.706-0.29c0.389-0.389 0.389-1.019 0-1.409l-1.378-1.378c1.228-1.535 1.962-3.481 1.962-5.597-0.005-4.952-4.019-8.967-8.972-8.967zM11.977 19.46c-0.942 0-1.856-0.185-2.714-0.548-0.829-0.352-1.577-0.856-2.217-1.495-0.642-0.642-1.144-1.388-1.495-2.217-0.363-0.858-0.548-1.772-0.548-2.714s0.185-1.856 0.548-2.714c0.352-0.829 0.856-1.577 1.495-2.217 0.642-0.642 1.387-1.144 2.217-1.495 0.858-0.365 1.772-0.548 2.714-0.548s1.856 0.185 2.714 0.548c0.83 0.352 1.577 0.856 2.217 1.495 0.642 0.642 1.144 1.388 1.495 2.217 0.363 0.858 0.548 1.772 0.548 2.714s-0.185 1.856-0.548 2.714c-0.352 0.83-0.856 1.577-1.495 2.217-0.642 0.642-1.388 1.144-2.217 1.495-0.858 0.363-1.772 0.548-2.714 0.548z"></path>
<path d="M21.921 5.869c-0.829-1.244-1.87-2.309-3.091-3.167-0.45-0.317-1.071-0.206-1.388 0.244s-0.206 1.071 0.244 1.388c1.019 0.715 1.887 1.603 2.581 2.641 0.192 0.288 0.508 0.443 0.829 0.443 0.19 0 0.382-0.054 0.553-0.169 0.452-0.304 0.577-0.923 0.272-1.381z"></path>
<path d="M3.724 6.923c0.689-1.019 1.547-1.891 2.545-2.59 0.45-0.317 0.56-0.938 0.244-1.388s-0.938-0.56-1.388-0.244c-1.198 0.839-2.224 1.885-3.052 3.106-0.31 0.454-0.19 1.075 0.267 1.383 0.171 0.115 0.365 0.171 0.558 0.171 0.319 0 0.633-0.152 0.825-0.438z"></path>
</svg>
