<!-- Generated by IcoMoon.io -->
<svg version="1.1" xmlns="http://www.w3.org/2000/svg" width="24" height="24" viewBox="0 0 24 24">
<title>code</title>
<path d="M14.625 20c-0.276 0-0.511-0.098-0.707-0.293s-0.293-0.431-0.293-0.707c0-0.276 0.099-0.513 0.297-0.711l6.289-6.289-6.289-6.289c-0.198-0.198-0.297-0.435-0.297-0.711s0.098-0.511 0.293-0.707 0.431-0.293 0.707-0.293c0.281 0 0.518 0.096 0.711 0.289l7 7c0.193 0.193 0.289 0.43 0.289 0.711s-0.096 0.518-0.289 0.711l-7 7c-0.193 0.193-0.43 0.289-0.711 0.289zM9.375 4c0.276 0 0.511 0.097 0.707 0.293s0.293 0.431 0.293 0.707-0.099 0.513-0.297 0.711l-6.289 6.289 6.289 6.289c0.198 0.198 0.297 0.435 0.297 0.711s-0.098 0.511-0.293 0.707-0.431 0.293-0.707 0.293c-0.281 0-0.518-0.096-0.711-0.289l-7-7c-0.193-0.193-0.289-0.43-0.289-0.711s0.096-0.518 0.289-0.711l7-7c0.193-0.193 0.43-0.289 0.711-0.289z"></path>
</svg>
