<!-- Generated by IcoMoon.io -->
<svg version="1.1" xmlns="http://www.w3.org/2000/svg" width="24" height="24" viewBox="0 0 24 24">
<title>company</title>
<path d="M2.219 22.765h19.688c0.552 0 1-0.448 1-1v0-11.813c0-0.552-0.448-1-1-1v0h-8.844v-6.875c0-0.552-0.448-1-1-1v0h-9.844c-0.552 0-1 0.448-1 1v0 19.688c0 0.552 0.448 1 1 1v0zM13.063 10.953h7.843v9.812h-7.843zM3.219 3.078h7.844v17.687h-7.844z"></path>
<path d="M8.406 5.094h-2.531c-0.552 0-1 0.448-1 1s0.448 1 1 1v0h2.531c0.552 0 1-0.448 1-1s-0.448-1-1-1v0z"></path>
<path d="M8.406 9.031h-2.531c-0.552 0-1 0.448-1 1s0.448 1 1 1v0h2.531c0.552 0 1-0.448 1-1s-0.448-1-1-1v0z"></path>
<path d="M8.406 12.969h-2.531c-0.552 0-1 0.448-1 1s0.448 1 1 1v0h2.531c0.552 0 1-0.448 1-1s-0.448-1-1-1v0z"></path>
<path d="M8.406 16.907h-2.531c-0.552 0-1 0.448-1 1s0.448 1 1 1v0h2.531c0.552 0 1-0.448 1-1s-0.448-1-1-1v0z"></path>
<path d="M18.25 12.969h-2.531c-0.552 0-1 0.448-1 1s0.448 1 1 1v0h2.531c0.552 0 1-0.448 1-1s-0.448-1-1-1v0z"></path>
<path d="M18.25 16.907h-2.531c-0.552 0-1 0.448-1 1s0.448 1 1 1v0h2.531c0.552 0 1-0.448 1-1s-0.448-1-1-1v0z"></path>
</svg>
