<!-- Generated by IcoMoon.io -->
<svg version="1.1" xmlns="http://www.w3.org/2000/svg" width="24" height="24" viewBox="0 0 24 24">
<title>corner-forward</title>
<path d="M15.64 3.633q-0.407 0-0.703 0.293t-0.297 0.707 0.297 0.711l4.656 4.656h-9.594q-1.829 0-3.496 0.711t-2.871 1.918-1.918 2.871-0.715 3.5v1q0 0.414 0.293 0.707t0.707 0.293q0.407 0 0.704-0.297t0.297-0.704v-1q0-1.422 0.555-2.719t1.492-2.234 2.234-1.492 2.719-0.555h9.594l-4.656 4.664q-0.297 0.297-0.297 0.703 0 0.414 0.293 0.711t0.707 0.297 0.711-0.297l6.359-6.367q0.289-0.289 0.289-0.711 0-0.414-0.289-0.704l-6.359-6.368q-0.297-0.297-0.711-0.297z"></path>
</svg>
