<!-- Generated by IcoMoon.io -->
<svg version="1.1" xmlns="http://www.w3.org/2000/svg" width="24" height="24" viewBox="0 0 24 24">
<title>cpu-2</title>
<path d="M22.047 13c0.553 0 1-0.447 1-1s-0.447-1-1-1h-1.547v-2h1.547c0.553 0 1-0.447 1-1s-0.447-1-1-1h-1.547v-0.5c0-0.828-0.294-1.534-0.878-2.122s-1.294-0.878-2.122-0.878h-0.5v-1.547c0-0.553-0.447-1-1-1s-1 0.447-1 1v1.547h-2v-1.547c0-0.553-0.447-1-1-1s-1 0.447-1 1v1.547h-2v-1.547c0-0.553-0.447-1-1-1s-1 0.447-1 1v1.547h-0.5c-0.828 0-1.534 0.294-2.122 0.878s-0.878 1.294-0.878 2.122v0.5h-1.547c-0.553 0-1 0.447-1 1s0.447 1 1 1h1.547v2h-1.547c-0.553 0-1 0.447-1 1s0.447 1 1 1h1.547v2h-1.547c-0.553 0-1 0.447-1 1s0.447 1 1 1h1.547v0.5c0 0.828 0.294 1.535 0.878 2.122s1.294 0.878 2.122 0.878h0.5v1.547c0 0.553 0.447 1 1 1s1-0.447 1-1v-1.547h2v1.547c0 0.553 0.447 1 1 1s1-0.447 1-1v-1.547h2v1.547c0 0.553 0.447 1 1 1s1-0.447 1-1v-1.547h0.5c0.828 0 1.534-0.294 2.122-0.878s0.878-1.294 0.878-2.122v-0.5h1.547c0.553 0 1-0.447 1-1s-0.447-1-1-1h-1.547v-2h1.547zM18.5 17.5c0 0.275-0.097 0.512-0.294 0.706s-0.431 0.294-0.706 0.294h-11c-0.275 0-0.512-0.097-0.707-0.294s-0.294-0.431-0.294-0.706v-11c0-0.275 0.097-0.512 0.294-0.707s0.431-0.294 0.707-0.294h11c0.275 0 0.512 0.097 0.706 0.294s0.294 0.431 0.294 0.707v11z"></path>
<path d="M14.344 8.5h-4.688c-0.637 0-1.156 0.519-1.156 1.156v4.688c0 0.638 0.519 1.157 1.156 1.157h4.688c0.638 0 1.157-0.519 1.157-1.157v-4.688c0-0.637-0.519-1.156-1.157-1.156zM13.5 13.5h-3v-3h3v3z"></path>
</svg>
