<!-- Generated by IcoMoon.io -->
<svg version="1.1" xmlns="http://www.w3.org/2000/svg" width="24" height="24" viewBox="0 0 24 24">
<title>credit-card-2</title>
<path d="M23.121 3.817c-0.586-0.586-1.293-0.879-2.121-0.879h-18c-0.828 0-1.535 0.293-2.121 0.879s-0.879 1.293-0.879 2.121v12.125c0 0.828 0.293 1.535 0.879 2.121s1.293 0.879 2.121 0.879h18c0.828 0 1.535-0.293 2.121-0.879s0.879-1.293 0.879-2.121v-12.125c0-0.828-0.293-1.535-0.879-2.121zM2.293 5.231c0.195-0.195 0.431-0.293 0.707-0.293h18c0.276 0 0.511 0.097 0.707 0.293s0.293 0.431 0.293 0.707v1h-20v-1c0-0.276 0.098-0.511 0.293-0.707zM21.707 18.77c-0.195 0.195-0.431 0.293-0.707 0.293h-18c-0.276 0-0.511-0.098-0.707-0.293s-0.293-0.431-0.293-0.707v-7.125h20v7.125c0 0.276-0.098 0.511-0.293 0.707z"></path>
</svg>
