<!-- Generated by IcoMoon.io -->
<svg version="1.1" xmlns="http://www.w3.org/2000/svg" width="24" height="24" viewBox="0 0 24 24">
<title>cube</title>
<path d="M0 0h5.25v5.25h-5.25c0 0 0-5.25 0-5.25z"></path>
<path d="M18.75 0h5.25v5.25h-5.25c0 0 0-5.25 0-5.25z"></path>
<path d="M9.375 0h5.25v5.25h-5.25c0 0 0-5.25 0-5.25z"></path>
<path d="M0 9.375h5.25v5.25h-5.25c0 0 0-5.25 0-5.25z"></path>
<path d="M18.75 9.375h5.25v5.25h-5.25c0 0 0-5.25 0-5.25z"></path>
<path d="M9.375 9.375h5.25v5.25h-5.25c0 0 0-5.25 0-5.25z"></path>
<path d="M0 18.75h5.25v5.25h-5.25c0 0 0-5.25 0-5.25z"></path>
<path d="M18.75 18.75h5.25v5.25h-5.25c0 0 0-5.25 0-5.25z"></path>
<path d="M9.375 18.75h5.25v5.25h-5.25c0 0 0-5.25 0-5.25z"></path>
</svg>
