<!-- Generated by IcoMoon.io -->
<svg version="1.1" xmlns="http://www.w3.org/2000/svg" width="24" height="24" viewBox="0 0 24 24">
<title>ellipsis-vertical</title>
<path d="M9 4c0-0.828 0.293-1.535 0.879-2.121s1.293-0.879 2.121-0.879 1.535 0.293 2.121 0.879 0.879 1.293 0.879 2.121-0.293 1.535-0.879 2.121-1.293 0.879-2.121 0.879-1.535-0.293-2.121-0.879-0.879-1.293-0.879-2.121zM9 20c0-0.828 0.293-1.535 0.879-2.121s1.293-0.879 2.121-0.879 1.535 0.293 2.121 0.879 0.879 1.293 0.879 2.121-0.293 1.535-0.879 2.121-1.293 0.879-2.121 0.879-1.535-0.293-2.121-0.879-0.879-1.293-0.879-2.121zM11 20c0 0.276 0.098 0.511 0.293 0.707s0.431 0.293 0.707 0.293c0.276 0 0.511-0.098 0.707-0.293s0.293-0.431 0.293-0.707-0.097-0.512-0.293-0.707-0.431-0.293-0.707-0.293c-0.276 0-0.511 0.097-0.707 0.293s-0.293 0.431-0.293 0.707zM9 12c0-0.828 0.293-1.535 0.879-2.121s1.293-0.879 2.121-0.879 1.535 0.293 2.121 0.879 0.879 1.293 0.879 2.121-0.293 1.535-0.879 2.121-1.293 0.879-2.121 0.879-1.535-0.293-2.121-0.879-0.879-1.293-0.879-2.121zM11 12c0 0.276 0.098 0.511 0.293 0.707s0.431 0.293 0.707 0.293c0.276 0 0.511-0.098 0.707-0.293s0.293-0.431 0.293-0.707-0.097-0.512-0.293-0.707-0.431-0.293-0.707-0.293c-0.276 0-0.511 0.098-0.707 0.293s-0.293 0.431-0.293 0.707zM11 4c0 0.276 0.098 0.512 0.293 0.707s0.431 0.293 0.707 0.293c0.276 0 0.511-0.097 0.707-0.293s0.293-0.431 0.293-0.707-0.097-0.512-0.293-0.707-0.431-0.293-0.707-0.293c-0.276 0-0.511 0.097-0.707 0.293s-0.293 0.431-0.293 0.707z"></path>
</svg>
