<!-- Generated by IcoMoon.io -->
<svg version="1.1" xmlns="http://www.w3.org/2000/svg" width="24" height="24" viewBox="0 0 24 24">
<title>equal</title>
<path d="M4.25 7.094h15.5c0.275 0 0.512 0.097 0.706 0.294s0.294 0.431 0.294 0.707c0 0.275-0.097 0.512-0.294 0.707s-0.431 0.294-0.706 0.294h-15.5c-0.275 0-0.512-0.097-0.707-0.294s-0.294-0.431-0.294-0.707c0-0.275 0.097-0.512 0.294-0.707s0.431-0.294 0.707-0.294zM4.25 14.906h15.5c0.275 0 0.512 0.097 0.706 0.294s0.294 0.431 0.294 0.706c0 0.275-0.097 0.512-0.294 0.707s-0.431 0.294-0.706 0.294h-15.5c-0.275 0-0.512-0.097-0.707-0.294s-0.294-0.431-0.294-0.707c0-0.275 0.097-0.512 0.294-0.706s0.431-0.294 0.707-0.294v0z"></path>
</svg>
