<!-- Generated by IcoMoon.io -->
<svg version="1.1" xmlns="http://www.w3.org/2000/svg" width="24" height="24" viewBox="0 0 24 24">
<title>euro</title>
<path d="M19.165 18.944c-0.416 0.274-0.859 0.509-1.316 0.702-1.022 0.431-2.107 0.652-3.229 0.652s-2.207-0.218-3.229-0.652c-0.987-0.419-1.875-1.016-2.638-1.779-0.626-0.626-1.138-1.333-1.534-2.11h9.787v-1.922h-10.48c-0.134-0.597-0.204-1.211-0.204-1.834s0.067-1.238 0.204-1.834h10.48v-1.921h-9.787c0.396-0.777 0.908-1.488 1.534-2.111 0.763-0.763 1.651-1.363 2.638-1.779 1.022-0.431 2.107-0.652 3.229-0.652s2.207 0.218 3.229 0.652c0.457 0.192 0.9 0.431 1.316 0.702l0.023 0.014 1.051-1.607-0.023-0.014c-1.663-1.092-3.599-1.668-5.596-1.668-1.38 0-2.72 0.271-3.977 0.803-1.217 0.515-2.309 1.252-3.249 2.189s-1.674 2.032-2.189 3.249c-0.032 0.073-0.061 0.149-0.090 0.221h-2.606v1.921h2.056c-0.108 0.6-0.163 1.214-0.163 1.834s0.055 1.235 0.163 1.834h-2.056v1.922h2.606c0.029 0.076 0.059 0.148 0.090 0.221 0.515 1.217 1.252 2.308 2.189 3.249 0.937 0.938 2.032 1.674 3.249 2.189 1.261 0.532 2.597 0.803 3.977 0.803 1.997 0 3.933-0.577 5.596-1.668l0.023-0.014-1.051-1.607-0.023 0.014z"></path>
</svg>
