<!-- Generated by IcoMoon.io -->
<svg version="1.1" xmlns="http://www.w3.org/2000/svg" width="24" height="24" viewBox="0 0 24 24">
<title>eyenot</title>
<path d="M12 8c-1.103 0-2.047 0.391-2.828 1.172s-1.172 1.725-1.172 2.828c0 0.366 0.043 0.713 0.128 1.044l4.915-4.915c-0.332-0.085-0.678-0.128-1.044-0.128z"></path>
<path d="M12 16c1.103 0 2.047-0.391 2.828-1.172s1.172-1.725 1.172-2.828c0-0.366-0.043-0.713-0.128-1.044l-4.916 4.916c0.332 0.085 0.678 0.128 1.044 0.128z"></path>
<path d="M2.2 15.566c0.437 0.6 0.975 1.2 1.606 1.8l1.416-1.415c-0.112-0.11-0.222-0.219-0.328-0.329-0.394-0.412-0.775-0.86-1.144-1.337s-0.662-0.884-0.881-1.225c-0.219-0.341-0.425-0.681-0.619-1.019 0.194-0.344 0.4-0.688 0.619-1.031s0.512-0.759 0.881-1.24c0.369-0.482 0.75-0.932 1.144-1.35s0.859-0.844 1.4-1.278 1.091-0.8 1.656-1.106c0.566-0.306 1.2-0.553 1.903-0.747s1.419-0.287 2.15-0.287c0.728 0 1.444 0.097 2.15 0.287 0.46 0.125 0.887 0.275 1.288 0.447l1.509-1.51c-0.541-0.281-1.131-0.525-1.769-0.731-1.034-0.329-2.094-0.494-3.181-0.494-0.853 0-1.694 0.107-2.515 0.316-0.822 0.212-1.562 0.485-2.222 0.815s-1.303 0.737-1.931 1.216-1.172 0.947-1.628 1.412-0.903 0.972-1.331 1.516c-0.431 0.544-0.775 1.015-1.037 1.412s-0.512 0.806-0.744 1.219c-0.231 0.413-0.378 0.684-0.441 0.816s-0.112 0.238-0.15 0.316l0.235 0.494c0.163 0.335 0.412 0.763 0.753 1.288 0.34 0.528 0.747 1.109 1.213 1.747z"></path>
<path d="M23.766 11.5c-0.163-0.329-0.413-0.756-0.753-1.285s-0.744-1.112-1.213-1.753c-0.44-0.606-0.978-1.213-1.616-1.819l-1.415 1.415c0.116 0.113 0.228 0.228 0.335 0.341 0.394 0.415 0.775 0.865 1.144 1.344s0.662 0.891 0.881 1.235 0.425 0.684 0.619 1.025c-0.194 0.337-0.4 0.681-0.619 1.025s-0.512 0.756-0.881 1.235c-0.369 0.478-0.75 0.928-1.144 1.344s-0.86 0.841-1.4 1.269-1.091 0.797-1.656 1.096-1.2 0.55-1.904 0.744-1.415 0.284-2.144 0.284c-0.728 0-1.444-0.094-2.15-0.284-0.46-0.125-0.891-0.275-1.291-0.447l-1.506 1.506c0.541 0.281 1.131 0.525 1.772 0.728 1.028 0.332 2.087 0.497 3.175 0.497 0.853 0 1.693-0.107 2.515-0.316 0.822-0.212 1.562-0.482 2.222-0.812s1.303-0.734 1.931-1.206 1.172-0.944 1.628-1.409 0.903-0.969 1.331-1.506 0.775-1.006 1.037-1.406 0.509-0.803 0.744-1.213c0.231-0.41 0.378-0.681 0.44-0.812s0.113-0.238 0.15-0.316l-0.235-0.503z"></path>
<path d="M2.5 22.5c-0.256 0-0.512-0.097-0.707-0.294-0.391-0.391-0.391-1.025 0-1.415l19-19c0.391-0.391 1.025-0.391 1.415 0s0.391 1.025 0 1.416l-19 19c-0.197 0.197-0.453 0.294-0.709 0.294z"></path>
</svg>
