<!-- Generated by IcoMoon.io -->
<svg version="1.1" xmlns="http://www.w3.org/2000/svg" width="24" height="24" viewBox="0 0 24 24">
<title>feather</title>
<path d="M20.486 3.43c-2.575-2.575-6.865-2.575-9.44 0l-6.389 6.484c-0.19 0.191-0.286 0.381-0.286 0.668v7.723l-2.575 2.575c-0.381 0.382-0.381 0.953 0 1.335 0.191 0.191 0.381 0.286 0.667 0.286s0.477-0.095 0.668-0.286l2.575-2.575h7.723c0.286 0 0.477-0.095 0.668-0.286l6.389-6.484c2.67-2.575 2.67-6.77 0-9.44zM13.049 17.733h-5.435l1.907-1.907h5.435l-1.907 1.907zM19.151 11.535v0l-2.288 2.383c0 0 0 0-0.095 0h-5.339l5.053-5.053c0.382-0.381 0.382-0.953 0-1.335s-0.953-0.381-1.335 0l-8.867 8.867v-5.434l6.197-6.197c1.907-1.907 4.862-1.907 6.769 0 1.811 1.907 1.811 4.958-0.095 6.77z"></path>
</svg>
