<!-- Generated by IcoMoon.io -->
<svg version="1.1" xmlns="http://www.w3.org/2000/svg" width="24" height="24" viewBox="0 0 24 24">
<title>figure</title>
<path d="M18.188 1h1.813c0.828 0 1.535 0.294 2.122 0.878s0.878 1.294 0.878 2.122v1.813c0 0.828-0.294 1.534-0.878 2.122s-1.294 0.878-2.122 0.878h-1.813c-0.828 0-1.535-0.294-2.122-0.878s-0.878-1.294-0.878-2.122v-1.813c0-0.828 0.294-1.534 0.878-2.122s1.294-0.878 2.122-0.878zM4 15.188h1.813c0.828 0 1.534 0.294 2.122 0.878s0.878 1.294 0.878 2.122v1.813c0 0.828-0.294 1.535-0.878 2.122s-1.294 0.878-2.122 0.878h-1.813c-0.828 0-1.534-0.294-2.122-0.878s-0.878-1.294-0.878-2.122v-1.813c0-0.828 0.294-1.535 0.878-2.122s1.294-0.878 2.122-0.878zM5.813 17.188h-1.813c-0.275 0-0.512 0.097-0.707 0.294s-0.294 0.431-0.294 0.706v1.813c0 0.275 0.097 0.512 0.294 0.707s0.431 0.294 0.707 0.294h1.813c0.275 0 0.512-0.097 0.707-0.294s0.294-0.431 0.294-0.707v-1.813c0-0.275-0.097-0.512-0.294-0.706s-0.431-0.294-0.707-0.294zM4 1h1.813c0.828 0 1.534 0.294 2.122 0.878s0.878 1.294 0.878 2.122v1.813c0 0.828-0.294 1.534-0.878 2.122s-1.294 0.878-2.122 0.878h-1.813c-0.828 0-1.534-0.294-2.122-0.878s-0.878-1.294-0.878-2.122v-1.813c0-0.828 0.294-1.534 0.878-2.122s1.294-0.878 2.122-0.878zM5.813 3h-1.813c-0.275 0-0.512 0.097-0.707 0.294s-0.294 0.431-0.294 0.707v1.813c0 0.275 0.097 0.512 0.294 0.707s0.431 0.294 0.707 0.294h1.813c0.275 0 0.512-0.097 0.707-0.294s0.294-0.431 0.294-0.707v-1.813c0-0.275-0.097-0.512-0.294-0.707s-0.431-0.294-0.707-0.294zM18.188 15.188h1.813c0.828 0 1.535 0.294 2.122 0.878s0.878 1.294 0.878 2.122v1.813c0 0.828-0.294 1.535-0.878 2.122s-1.294 0.878-2.122 0.878h-1.813c-0.828 0-1.535-0.294-2.122-0.878s-0.878-1.294-0.878-2.122v-1.813c0-0.828 0.294-1.535 0.878-2.122s1.294-0.878 2.122-0.878zM20 17.188h-1.813c-0.275 0-0.512 0.097-0.706 0.294s-0.294 0.431-0.294 0.706v1.813c0 0.275 0.097 0.512 0.294 0.707s0.431 0.294 0.706 0.294h1.813c0.275 0 0.512-0.097 0.706-0.294s0.294-0.431 0.294-0.707v-1.813c0-0.275-0.097-0.512-0.294-0.706s-0.431-0.294-0.706-0.294zM20 3h-1.813c-0.275 0-0.512 0.097-0.706 0.294s-0.294 0.431-0.294 0.707v1.813c0 0.275 0.097 0.512 0.294 0.707s0.431 0.294 0.706 0.294h1.813c0.275 0 0.512-0.097 0.706-0.294s0.294-0.431 0.294-0.707v-1.813c0-0.275-0.097-0.512-0.294-0.707s-0.431-0.294-0.706-0.294z"></path>
<path d="M8.813 3.906h6.375v2h-6.375v-2z"></path>
<path d="M8.813 18.094h6.375v2h-6.375v-2z"></path>
<path d="M20.094 8.813v6.375h-2v-6.375h2z"></path>
<path d="M5.906 8.813v6.375h-2v-6.375h2z"></path>
</svg>
