<!-- Generated by IcoMoon.io -->
<svg version="1.1" xmlns="http://www.w3.org/2000/svg" width="24" height="24" viewBox="0 0 24 24">
<title>file-upload</title>
<path d="M5 0h14c0.828 0 1.535 0.293 2.121 0.879s0.879 1.293 0.879 2.121v18c0 0.828-0.293 1.535-0.879 2.121s-1.293 0.879-2.121 0.879h-14c-0.828 0-1.535-0.293-2.121-0.879s-0.879-1.293-0.879-2.121v-18c0-0.828 0.293-1.535 0.879-2.121s1.293-0.879 2.121-0.879zM19 2h-14c-0.276 0-0.511 0.097-0.707 0.293s-0.293 0.431-0.293 0.707v18c0 0.276 0.098 0.512 0.293 0.707s0.431 0.293 0.707 0.293h14c0.276 0 0.511-0.097 0.707-0.293s0.293-0.431 0.293-0.707v-18c0-0.276-0.098-0.511-0.293-0.707s-0.431-0.293-0.707-0.293z"></path>
<path d="M12 6.5c0.276 0 0.513 0.099 0.711 0.297l3 3c0.193 0.193 0.289 0.427 0.289 0.704 0 0.287-0.095 0.525-0.285 0.715s-0.428 0.285-0.715 0.285c-0.281 0-0.518-0.096-0.711-0.289l-1.289-1.297v6.586c0 0.276-0.098 0.511-0.293 0.707s-0.431 0.293-0.707 0.293-0.511-0.098-0.707-0.293-0.293-0.431-0.293-0.707v-6.586l-1.289 1.297c-0.193 0.193-0.43 0.289-0.711 0.289-0.276 0-0.511-0.098-0.707-0.293s-0.293-0.431-0.293-0.707c0-0.265 0.096-0.5 0.289-0.704l3-3c0.198-0.198 0.435-0.297 0.711-0.297z"></path>
</svg>
