<!-- Generated by IcoMoon.io -->
<svg version="1.1" xmlns="http://www.w3.org/2000/svg" width="24" height="24" viewBox="0 0 24 24">
<title>filter</title>
<path d="M20.698 1.965c-0.355-0.617-1.013-0.996-1.725-0.996h-13.946c-0.712 0-1.37 0.379-1.725 0.996s-0.356 1.376 0 1.992l4.687 8.121c0.417 0.756 0.706 1.279 0.905 1.629v7.688c0 0.796 0.474 1.516 1.205 1.83 0.253 0.109 0.521 0.162 0.787 0.162 0.5 0 0.993-0.188 1.37-0.546l2.227-2.11c0.397-0.377 0.622-0.899 0.622-1.446v-5.73c0.171-0.259 0.449-0.718 0.905-1.477l4.688-8.121c0.355-0.617 0.355-1.376 0-1.992zM13.113 19.285l-2.227 2.11v-8.32h2.227v6.211zM14.285 11.082h-4.571l-4.687-8.121h13.946l-4.688 8.121z"></path>
</svg>
