<!-- Generated by IcoMoon.io -->
<svg version="1.1" xmlns="http://www.w3.org/2000/svg" width="24" height="24" viewBox="0 0 24 24">
<title>folder-subtract</title>
<path d="M4 2h5l2 3h9c0.828 0 1.535 0.294 2.122 0.878s0.878 1.294 0.878 2.122v11c0 0.828-0.294 1.535-0.878 2.122s-1.294 0.878-2.122 0.878h-16c-0.828 0-1.534-0.294-2.122-0.878s-0.878-1.294-0.878-2.122v-14c0-0.828 0.294-1.534 0.878-2.122s1.294-0.878 2.122-0.878zM9.931 7l-1.931-3h-4c-0.275 0-0.512 0.097-0.706 0.294s-0.294 0.431-0.294 0.707v14c0 0.275 0.097 0.512 0.294 0.706s0.431 0.294 0.706 0.294h16c0.275 0 0.512-0.097 0.706-0.294s0.294-0.431 0.294-0.706v-11c0-0.275-0.097-0.512-0.294-0.707s-0.431-0.294-0.706-0.294h-10.069z"></path>
<path d="M9 14.5c-0.275 0-0.512-0.097-0.707-0.294s-0.294-0.431-0.294-0.706 0.097-0.512 0.294-0.707 0.431-0.294 0.707-0.294h6c0.275 0 0.512 0.097 0.707 0.294s0.294 0.431 0.294 0.707-0.097 0.512-0.294 0.706-0.431 0.294-0.707 0.294h-6z"></path>
</svg>
