<!-- Generated by IcoMoon.io -->
<svg version="1.1" xmlns="http://www.w3.org/2000/svg" width="24" height="24" viewBox="0 0 24 24">
<title>gantt</title>
<path d="M10 4h-8c-0.554 0-1-0.447-1-1v0c0-0.553 0.447-1 1-1h8c0.553 0 1 0.447 1 1v0c0 0.553-0.447 1-1 1z"></path>
<path d="M22 10h-20c-0.554 0-1-0.447-1-1v0c0-0.553 0.447-1 1-1h20c0.553 0 1 0.447 1 1v0c0 0.553-0.447 1-1 1z"></path>
<path d="M22 22h-9c-0.553 0-1-0.447-1-1v0c0-0.553 0.447-1 1-1h9c0.553 0 1 0.447 1 1v0c0 0.553-0.447 1-1 1z"></path>
<path d="M11 16h-9c-0.554 0-1-0.447-1-1v0c0-0.553 0.447-1 1-1h9c0.553 0 1 0.447 1 1v0c0 0.553-0.447 1-1 1z"></path>
</svg>
