<!-- Generated by IcoMoon.io -->
<svg version="1.1" xmlns="http://www.w3.org/2000/svg" width="24" height="24" viewBox="0 0 24 24">
<title>globe</title>
<path d="M12 1q0.281 0 0.422 0.008 1.454 0.055 2.825 0.481t2.535 1.144 2.137 1.73 1.648 2.199 1.054 2.582 0.379 2.855-0.379 2.855-1.054 2.582-1.648 2.199-2.137 1.73-2.535 1.145-2.824 0.481q-0.141 0.008-0.422 0.008t-0.422-0.008q-1.454-0.055-2.825-0.481t-2.535-1.144-2.137-1.73-1.648-2.199-1.054-2.582-0.379-2.855 0.379-2.855 1.054-2.582 1.649-2.199 2.137-1.73 2.535-1.145 2.825-0.481q0.141-0.008 0.422-0.008zM7.039 13h-3.985q0.313 2.789 2.149 4.898t4.516 2.813q-1.016-1.539-1.769-3.488t-0.91-4.223zM14.961 13h-5.922q0.078 1 0.324 2t0.55 1.769 0.704 1.52 0.718 1.235 0.664 0.93q0.344-0.445 0.664-0.934t0.718-1.238 0.703-1.52 0.55-1.765 0.324-1.996zM9.719 3.289q-2.68 0.703-4.516 2.813t-2.149 4.898h3.985q0.274-4.079 2.68-7.711zM20.945 13h-3.977q-0.289 4.086-2.687 7.711 2.68-0.703 4.516-2.813t2.149-4.898zM12 3.547q-0.344 0.446-0.66 0.934t-0.719 1.238-0.707 1.519-0.55 1.766-0.324 1.996h5.922q-0.078-1-0.324-2t-0.55-1.769-0.703-1.519-0.718-1.235-0.664-0.93zM14.282 3.289q2.398 3.625 2.687 7.711h3.977q-0.313-2.789-2.149-4.898t-4.516-2.813z"></path>
</svg>
