<!-- Generated by IcoMoon.io -->
<svg version="1.1" xmlns="http://www.w3.org/2000/svg" width="24" height="24" viewBox="0 0 24 24">
<title>go-out</title>
<path d="M7 12c0-0.276 0.098-0.511 0.293-0.707s0.431-0.293 0.707-0.293h11.586l-3.297-3.289c-0.193-0.193-0.289-0.43-0.289-0.711 0-0.287 0.095-0.525 0.285-0.715s0.428-0.285 0.715-0.285c0.281 0 0.518 0.096 0.711 0.289l5 5c0.193 0.193 0.289 0.43 0.289 0.711s-0.096 0.518-0.289 0.711l-5 5c-0.203 0.193-0.44 0.289-0.711 0.289-0.276 0-0.511-0.098-0.707-0.293s-0.293-0.431-0.293-0.707c0-0.281 0.096-0.518 0.289-0.711l3.297-3.289h-11.586c-0.276 0-0.512-0.098-0.707-0.293s-0.293-0.431-0.293-0.707z"></path>
<path d="M3.841 23.003c-0.597 0-1.33-0.191-1.966-0.824-0.575-0.561-0.878-1.281-0.878-2.081v-16.149c0-0.807 0.302-1.535 0.873-2.107 1.001-1.001 2.472-0.782 2.637-0.754 0.038 0.007 0.076 0.015 0.113 0.026l4.997 1.458c0.538 0.157 0.847 0.721 0.691 1.259s-0.721 0.848-1.259 0.691l-4.921-1.436c-0.214-0.021-0.627 0-0.819 0.192s-0.278 0.399-0.278 0.671v16.149c0 0.259 0.080 0.447 0.268 0.63 0.003 0.003 0.007 0.007 0.010 0.010 0.286 0.287 0.58 0.244 0.684 0.217 0.028-0.012 0.020-0.008 0.060-0.019l4.996-1.458c0.539-0.157 1.103 0.152 1.259 0.691s-0.152 1.102-0.691 1.259l-4.969 1.45c-0.206 0.071-0.487 0.125-0.806 0.126z"></path>
</svg>
