<!-- Generated by IcoMoon.io -->
<svg version="1.1" xmlns="http://www.w3.org/2000/svg" width="24" height="24" viewBox="0 0 24 24">
<title>grid-2</title>
<path d="M4 1h16q1.242 0 2.121 0.879t0.879 2.121v16q0 1.242-0.879 2.121t-2.121 0.879h-16q-1.242 0-2.121-0.879t-0.879-2.121v-16q0-1.242 0.879-2.121t2.121-0.879zM11 21v-8h-8v7q0 0.414 0.293 0.707t0.707 0.293h7zM11 11v-8h-7q-0.414 0-0.707 0.293t-0.293 0.707v7h8zM21 20v-7h-8v8h7q0.414 0 0.707-0.293t0.293-0.707zM20 3h-7v8h8v-7q0-0.414-0.293-0.707t-0.707-0.293z"></path>
</svg>
