<!-- Generated by IcoMoon.io -->
<svg version="1.1" xmlns="http://www.w3.org/2000/svg" width="24" height="24" viewBox="0 0 24 24">
<title>handicap-access</title>
<path d="M22.328 22.2l-3.2-8c-0.168-0.432-0.624-0.672-1.080-0.584l-7.136 1.424-1.064-3.68h5.752c0.528 0 0.96-0.432 0.96-0.96s-0.432-0.96-0.96-0.96h-6.304l-0.48-1.648c1.432-0.504 2.464-1.872 2.464-3.472 0-2.032-1.648-3.68-3.68-3.68s-3.68 1.648-3.68 3.68c0 1.776 1.264 3.256 2.936 3.608l0.44 1.52c-3.696 0.16-6.656 3.216-6.656 6.952 0 3.84 3.12 6.96 6.96 6.96s6.96-3.12 6.96-6.96c0-0.040 0-0.080-0.008-0.12l3.096-0.616 2.904 7.256c0.152 0.376 0.512 0.6 0.888 0.6 0.12 0 0.24-0.024 0.36-0.072 0.488-0.192 0.728-0.752 0.528-1.248zM5.84 4.32c0-0.968 0.792-1.76 1.76-1.76s1.76 0.792 1.76 1.76-0.792 1.76-1.76 1.76-1.76-0.792-1.76-1.76zM7.6 21.44c-2.776 0-5.040-2.264-5.040-5.040s2.264-5.040 5.040-5.040h0.248l1.464 5.064c0.136 0.48 0.624 0.776 1.112 0.672l2.208-0.44c-0.136 2.664-2.344 4.784-5.032 4.784z"></path>
</svg>
