<!-- Generated by IcoMoon.io -->
<svg version="1.1" xmlns="http://www.w3.org/2000/svg" width="24" height="24" viewBox="0 0 24 24">
<title>heart</title>
<path d="M17.657 2q1.633 0 3.012 0.805t2.183 2.183 0.805 3.012q0 1.172-0.449 2.277t-1.309 1.965l-9.898 9.899-9.899-9.899q-0.859-0.86-1.309-1.965t-0.449-2.277q0-1.633 0.805-3.012t2.183-2.183 3.012-0.805q1.18 0 2.277 0.446t1.965 1.312l1.414 1.414 1.414-1.414q0.86-0.859 1.965-1.309t2.277-0.449zM17.657 4q-0.782 0-1.516 0.297t-1.313 0.875l-2.828 2.828-2.828-2.828q-0.578-0.578-1.313-0.875t-1.516-0.297q-1.094 0-2.011 0.536t-1.454 1.454-0.536 2.011q0 0.781 0.297 1.516t0.875 1.313l8.485 8.485 8.484-8.485q0.578-0.578 0.875-1.313t0.297-1.516q0-1.093-0.535-2.011t-1.453-1.453-2.011-0.535z"></path>
</svg>
