<!-- Generated by IcoMoon.io -->
<svg version="1.1" xmlns="http://www.w3.org/2000/svg" width="24" height="24" viewBox="0 0 24 24">
<title>heart-full</title>
<path d="M17.657 2c1.088 0 2.093 0.268 3.012 0.805s1.647 1.264 2.183 2.183 0.805 1.923 0.805 3.012c0 0.781-0.15 1.54-0.449 2.277s-0.736 1.392-1.309 1.965l-9.898 9.899-9.899-9.899c-0.573-0.573-1.009-1.228-1.309-1.965s-0.449-1.496-0.449-2.277c0-1.088 0.269-2.092 0.805-3.012s1.265-1.647 2.183-2.183 1.923-0.805 3.012-0.805c0.787 0 1.546 0.148 2.277 0.446s1.387 0.734 1.965 1.312l1.414 1.414 1.414-1.414c0.573-0.573 1.228-1.009 1.965-1.309s1.496-0.449 2.277-0.449z"></path>
</svg>
