<!-- Generated by IcoMoon.io -->
<svg version="1.1" xmlns="http://www.w3.org/2000/svg" width="24" height="24" viewBox="0 0 24 24">
<title>historic</title>
<path d="M16.919 2.435c1.285 0.521 2.422 1.276 3.411 2.267s1.745 2.126 2.267 3.411c0.505 1.252 0.758 2.548 0.758 3.887s-0.253 2.635-0.758 3.887c-0.521 1.285-1.277 2.422-2.267 3.411s-2.126 1.744-3.411 2.266c-1.253 0.506-2.549 0.758-3.887 0.758s-2.635-0.253-3.887-0.758c-1.285-0.521-2.422-1.276-3.411-2.266-0.533-0.521-1.010-1.118-1.432-1.79s-0.757-1.361-1.004-2.065c-0.097-0.269-0.083-0.533 0.041-0.79s0.32-0.436 0.589-0.532c0.268-0.091 0.533-0.077 0.791 0.044s0.433 0.316 0.524 0.585c0.409 1.167 1.059 2.196 1.951 3.089 0.801 0.801 1.712 1.406 2.734 1.814 0.984 0.403 2.019 0.604 3.105 0.604s2.121-0.202 3.105-0.604c1.027-0.409 1.938-1.013 2.734-1.814 0.796-0.796 1.4-1.707 1.814-2.734 0.404-0.984 0.605-2.019 0.605-3.105s-0.202-2.121-0.605-3.105c-0.414-1.027-1.018-1.938-1.814-2.734-0.796-0.801-1.707-1.406-2.734-1.814-0.984-0.404-2.019-0.604-3.105-0.604s-2.121 0.202-3.105 0.604c-1.021 0.409-1.933 1.013-2.734 1.814-0.377 0.377-1.312 1.29-2.806 2.742h3.484c0.285 0 0.528 0.101 0.73 0.302s0.302 0.445 0.302 0.73-0.101 0.528-0.302 0.73-0.445 0.302-0.73 0.302h-6.193c-0.285 0-0.528-0.101-0.73-0.302s-0.302-0.445-0.302-0.73v-6.193c0-0.285 0.101-0.528 0.302-0.73s0.445-0.302 0.73-0.302 0.528 0.1 0.73 0.302 0.302 0.445 0.302 0.73v3.92c2.011-1.968 3.019-2.954 3.024-2.959 0.989-0.989 2.126-1.745 3.411-2.267 1.252-0.506 2.548-0.758 3.887-0.758s2.635 0.253 3.887 0.758z"></path>
<path d="M16.782 11.399h-2.766v-4.379c0-0.556-0.451-1.008-1.008-1.008s-1.008 0.452-1.008 1.008v5.387c0 0.053 0.004 0.104 0.011 0.154 0.074 0.484 0.492 0.854 0.997 0.854h3.774c0.557 0 1.008-0.452 1.008-1.008s-0.451-1.008-1.008-1.008z"></path>
</svg>
