<!-- Generated by IcoMoon.io -->
<svg version="1.1" xmlns="http://www.w3.org/2000/svg" width="24" height="24" viewBox="0 0 24 24">
<title>home</title>
<path d="M22.708 11.529l-10-10c-0.391-0.391-1.024-0.391-1.415 0l-10 10c-0.391 0.391-0.391 1.024 0 1.415s1.024 0.391 1.415 0l1.222-1.222v8.791c0 1.241 1.010 2.252 2.251 2.252h11.64c1.241 0 2.252-1.010 2.252-2.252v-8.791l1.222 1.222c0.195 0.195 0.452 0.293 0.707 0.293s0.511-0.098 0.707-0.293c0.391-0.391 0.391-1.024 0-1.414zM13.598 20.764h-3.197v-5.723c0-0.139 0.113-0.251 0.251-0.251h2.694c0.139 0 0.251 0.112 0.251 0.251v5.723zM18.071 20.513c0 0.139-0.112 0.251-0.251 0.251h-2.222v-5.723c0-1.241-1.010-2.252-2.251-2.252h-2.694c-1.241 0-2.252 1.010-2.252 2.252v5.723h-2.222c-0.139 0-0.251-0.112-0.251-0.251v-10.791l6.071-6.071 6.071 6.071v10.791z"></path>
</svg>
