<!-- Generated by IcoMoon.io -->
<svg version="1.1" xmlns="http://www.w3.org/2000/svg" width="24" height="24" viewBox="0 0 24 24">
<title>hourglass</title>
<path d="M15.747 13.325c-0.566-0.553-1.131-0.988-1.637-1.325 0.506-0.335 1.072-0.772 1.637-1.325 0.975-0.953 1.75-2.065 2.306-3.3 0.691-1.534 1.040-3.256 1.040-5.125 0-0.553-0.447-1-1-1h-12.188c-0.553 0-1 0.447-1 1 0 1.869 0.35 3.59 1.041 5.125 0.557 1.237 1.334 2.347 2.306 3.3 0.565 0.553 1.131 0.988 1.637 1.325-0.506 0.335-1.072 0.772-1.637 1.325-0.975 0.953-1.75 2.066-2.306 3.3-0.691 1.535-1.041 3.256-1.041 5.125 0 0.553 0.447 1 1 1h12.188c0.553 0 1-0.447 1-1 0-1.869-0.35-3.59-1.040-5.125-0.556-1.235-1.331-2.347-2.306-3.3zM7.769 6.553c-0.45-1-0.725-2.106-0.822-3.303h10.106c-0.097 1.175-0.362 2.266-0.8 3.254-0.444 1.004-1.066 1.907-1.843 2.684-0.947 0.947-1.913 1.484-2.406 1.722-0.485-0.235-1.419-0.753-2.347-1.663-0.8-0.778-1.431-1.685-1.888-2.694zM6.947 20.75c0.097-1.175 0.362-2.266 0.8-3.254 0.444-1.003 1.066-1.906 1.844-2.684 0.947-0.947 1.912-1.484 2.406-1.722 0.485 0.235 1.419 0.753 2.347 1.663 0.793 0.778 1.428 1.684 1.881 2.694 0.45 1 0.725 2.106 0.822 3.303h-10.1z"></path>
<path d="M12.947 16.181c-0.328-0.322-0.653-0.578-0.947-0.782-0.306 0.212-0.653 0.485-0.994 0.828-0.603 0.603-1.085 1.303-1.428 2.078-0.062 0.144-0.122 0.29-0.178 0.444h5.203c-0.059-0.166-0.125-0.325-0.197-0.482-0.35-0.782-0.841-1.481-1.46-2.087z"></path>
</svg>
