<!-- Generated by IcoMoon.io -->
<svg version="1.1" xmlns="http://www.w3.org/2000/svg" width="24" height="24" viewBox="0 0 24 24">
<title>indent-less</title>
<path d="M3 5h18c0.276 0 0.511 0.098 0.707 0.293s0.293 0.431 0.293 0.707-0.098 0.511-0.293 0.707-0.431 0.293-0.707 0.293h-18c-0.276 0-0.511-0.098-0.707-0.293s-0.293-0.431-0.293-0.707 0.098-0.512 0.293-0.707 0.431-0.293 0.707-0.293zM3 17h18c0.276 0 0.511 0.098 0.707 0.293s0.293 0.431 0.293 0.707-0.098 0.512-0.293 0.707-0.431 0.293-0.707 0.293h-18c-0.276 0-0.511-0.097-0.707-0.293s-0.293-0.431-0.293-0.707 0.098-0.511 0.293-0.707 0.431-0.293 0.707-0.293zM12 13h9c0.276 0 0.511 0.098 0.707 0.293s0.293 0.431 0.293 0.707-0.098 0.511-0.293 0.707-0.431 0.293-0.707 0.293h-9c-0.276 0-0.512-0.097-0.707-0.293s-0.293-0.431-0.293-0.707 0.098-0.511 0.293-0.707 0.431-0.293 0.707-0.293zM12 9h9c0.276 0 0.511 0.098 0.707 0.293s0.293 0.431 0.293 0.707-0.098 0.512-0.293 0.707-0.431 0.293-0.707 0.293h-9c-0.276 0-0.512-0.098-0.707-0.293s-0.293-0.431-0.293-0.707 0.098-0.511 0.293-0.707 0.431-0.293 0.707-0.293zM8.906 14.957v-5.915l-4.918 2.957 4.918 2.957z"></path>
</svg>
