<!-- Generated by IcoMoon.io -->
<svg version="1.1" xmlns="http://www.w3.org/2000/svg" width="24" height="24" viewBox="0 0 24 24">
<title>infinity</title>
<path d="M17.5 8.5c0.934 0 1.813 0.362 2.475 1.025 0.659 0.662 1.025 1.541 1.025 2.475s-0.366 1.813-1.025 2.475c-0.662 0.662-1.541 1.025-2.475 1.025-1.184 0-2.631-1.040-3.869-2.781l-0.509-0.718 0.509-0.719c1.237-1.741 2.684-2.781 3.869-2.781zM6.5 8.5c1.184 0 2.631 1.040 3.868 2.781l0.509 0.718-0.509 0.719c-1.237 1.744-2.684 2.781-3.869 2.781-0.935 0-1.813-0.362-2.475-1.025-0.659-0.662-1.025-1.54-1.025-2.475s0.365-1.813 1.025-2.475c0.662-0.662 1.54-1.025 2.475-1.025zM17.5 6.5c-2.113 0-4.078 1.625-5.5 3.625-1.422-2-3.388-3.625-5.5-3.625-3.037 0-5.5 2.462-5.5 5.5s2.462 5.5 5.5 5.5c2.113 0 4.078-1.625 5.5-3.625 1.422 2 3.388 3.625 5.5 3.625 3.038 0 5.5-2.462 5.5-5.5s-2.462-5.5-5.5-5.5v0z"></path>
</svg>
