<!-- Generated by IcoMoon.io -->
<svg version="1.1" xmlns="http://www.w3.org/2000/svg" width="17" height="24" viewBox="0 0 17 24">
<title>info</title>
<path d="M12.012 20.014l-0.248 0.905c-0.999 0.352-1.798 0.59-2.399 0.733-0.599 0.134-1.104 0.209-1.532 0.209-0.866 0-1.522-0.2-1.951-0.59-0.438-0.39-0.657-0.875-0.657-1.457 0-0.219 0.019-0.447 0.067-0.685s0.114-0.533 0.209-0.895l1.437-5.282c0.085-0.333 0.171-0.686 0.247-1.066 0.086-0.381 0.124-0.704 0.124-0.971 0-0.533-0.105-0.885-0.304-1.057s-0.609-0.266-1.228-0.266c-0.238 0-0.552 0.028-0.952 0.095s-0.694 0.124-0.904 0.171l0.247-0.904c0.847-0.333 1.609-0.581 2.284-0.742s1.209-0.238 1.599-0.238c0.895 0 1.532 0.181 1.942 0.552 0.4 0.371 0.599 0.866 0.599 1.494 0 0.171-0.019 0.4-0.067 0.694s-0.105 0.59-0.2 0.885l-1.447 5.282c-0.105 0.371-0.2 0.733-0.286 1.085s-0.124 0.647-0.124 0.875c0 0.542 0.143 0.913 0.418 1.104 0.276 0.2 0.723 0.295 1.342 0.295 0.209 0 0.505-0.019 0.885-0.067 0.4-0.038 0.695-0.095 0.895-0.162zM13.078 3.958c0 0.542-0.2 1.009-0.599 1.409s-0.904 0.599-1.504 0.599c-0.552 0-1.028-0.191-1.437-0.571-0.4-0.381-0.599-0.818-0.599-1.313 0-0.524 0.2-0.971 0.599-1.361s0.875-0.58 1.437-0.58c0.619 0 1.123 0.181 1.514 0.542 0.4 0.361 0.59 0.79 0.59 1.275z"></path>
</svg>
