<!-- Generated by IcoMoon.io -->
<svg version="1.1" xmlns="http://www.w3.org/2000/svg" width="24" height="24" viewBox="0 0 24 24">
<title>interdict</title>
<path d="M22.187 7.862c-0.549-1.37-1.352-2.584-2.408-3.641s-2.27-1.86-3.64-2.408c-1.37-0.549-2.75-0.823-4.138-0.823s-2.768 0.274-4.138 0.823c-1.37 0.549-2.584 1.351-3.641 2.408s-1.86 2.27-2.408 3.641-0.823 2.749-0.823 4.138 0.274 2.768 0.823 4.138c0.549 1.37 1.351 2.584 2.408 3.64s2.27 1.86 3.641 2.408 2.75 0.823 4.138 0.823c1.388 0 2.768-0.274 4.138-0.823s2.584-1.352 3.64-2.408 1.86-2.27 2.408-3.64c0.549-1.37 0.823-2.75 0.823-4.138s-0.274-2.767-0.823-4.138zM2.996 12c0-1.134 0.225-2.263 0.674-3.386s1.105-2.116 1.966-2.978c0.862-0.862 1.854-1.517 2.978-1.966s2.252-0.674 3.386-0.674 2.263 0.225 3.386 0.674c0.809 0.324 1.55 0.755 2.225 1.293l-12.772 12.489c-0.481-0.631-0.871-1.319-1.169-2.065-0.449-1.124-0.674-2.252-0.674-3.386zM20.33 15.386c-0.449 1.123-1.105 2.116-1.966 2.977s-1.854 1.517-2.977 1.966-2.252 0.674-3.386 0.674c-1.134 0-2.264-0.225-3.386-0.674-0.878-0.351-1.676-0.829-2.394-1.433l12.807-12.523c0.543 0.677 0.979 1.423 1.304 2.238 0.449 1.123 0.674 2.252 0.674 3.386s-0.225 2.264-0.674 3.386z"></path>
</svg>
