<!-- Generated by IcoMoon.io -->
<svg version="1.1" xmlns="http://www.w3.org/2000/svg" width="24" height="24" viewBox="0 0 24 24">
<title>lightning</title>
<path d="M19.553 9.006l-4.428 0.884v-8.906c0 0 0-0.001 0-0.001 0-0.552-0.448-1-1-1-0.328 0-0.619 0.158-0.801 0.401l-0.002 0.002-9.844 13.219c-0.122 0.164-0.194 0.37-0.194 0.593 0 0.554 0.449 1.003 1.003 1.003 0.067 0 0.133-0.007 0.197-0.019l-0.007 0.001 4.428-0.884v8.622c0 0.439 0.282 0.812 0.674 0.948l0.007 0.002c0.094 0.032 0.202 0.050 0.314 0.050 0.002 0 0.003 0 0.005 0v0c0 0 0 0 0 0 0.324 0 0.612-0.153 0.795-0.392l0.002-0.002 9.844-12.938c0.127-0.166 0.203-0.376 0.203-0.604 0-0.552-0.448-1-1-1-0.070 0-0.137 0.007-0.203 0.021l0.007-0.002zM10.906 19.956v-6.878c-0.001-0.311-0.142-0.587-0.364-0.77l-0.002-0.002c-0.172-0.141-0.393-0.226-0.634-0.228v0c-0.002 0-0.004 0-0.006 0-0.068 0-0.134 0.008-0.197 0.023l-3.066 0.611 6.488-8.71v7.106c0 0 0 0.001 0 0.001 0 0.552 0.448 1 1 1 0.070 0 0.138-0.007 0.203-0.021l-0.007 0.001 3.031-0.606z"></path>
</svg>
