<!-- Generated by IcoMoon.io -->
<svg version="1.1" xmlns="http://www.w3.org/2000/svg" width="24" height="24" viewBox="0 0 24 24">
<title>list</title>
<path d="M4 13h4c0.828 0 1.534 0.294 2.122 0.878s0.878 1.294 0.878 2.122v4c0 0.828-0.294 1.535-0.878 2.122s-1.294 0.878-2.122 0.878h-4c-0.828 0-1.534-0.294-2.122-0.878s-0.878-1.294-0.878-2.122v-4c0-0.828 0.294-1.534 0.878-2.122s1.294-0.878 2.122-0.878zM8 15h-4c-0.275 0-0.512 0.097-0.707 0.294s-0.294 0.431-0.294 0.706v4c0 0.275 0.097 0.512 0.294 0.706s0.431 0.294 0.707 0.294h4c0.275 0 0.512-0.097 0.707-0.294s0.294-0.431 0.294-0.706v-4c0-0.275-0.097-0.512-0.294-0.707s-0.431-0.294-0.707-0.294zM4 1h4c0.828 0 1.534 0.294 2.122 0.878s0.878 1.294 0.878 2.122v4c0 0.828-0.294 1.534-0.878 2.122s-1.294 0.878-2.122 0.878h-4c-0.828 0-1.534-0.294-2.122-0.878s-0.878-1.294-0.878-2.122v-4c0-0.828 0.294-1.534 0.878-2.122s1.294-0.878 2.122-0.878zM8 3h-4c-0.275 0-0.512 0.097-0.707 0.294s-0.294 0.431-0.294 0.707v4c0 0.275 0.097 0.512 0.294 0.707s0.431 0.294 0.707 0.294h4c0.275 0 0.512-0.097 0.707-0.294s0.294-0.431 0.294-0.707v-4c0-0.275-0.097-0.512-0.294-0.706s-0.431-0.294-0.707-0.294z"></path>
<path d="M22 4h-8c-0.553 0-1-0.447-1-1v0c0-0.553 0.447-1 1-1h8c0.553 0 1 0.447 1 1v0c0 0.553-0.447 1-1 1z"></path>
<path d="M22 10h-8c-0.553 0-1-0.447-1-1v0c0-0.553 0.447-1 1-1h8c0.553 0 1 0.447 1 1v0c0 0.553-0.447 1-1 1z"></path>
<path d="M22 16h-8c-0.553 0-1-0.447-1-1v0c0-0.553 0.447-1 1-1h8c0.553 0 1 0.447 1 1v0c0 0.553-0.447 1-1 1z"></path>
<path d="M22 22h-8c-0.553 0-1-0.447-1-1v0c0-0.553 0.447-1 1-1h8c0.553 0 1 0.447 1 1v0c0 0.553-0.447 1-1 1z"></path>
</svg>
