<!-- Generated by IcoMoon.io -->
<svg version="1.1" xmlns="http://www.w3.org/2000/svg" width="24" height="24" viewBox="0 0 24 24">
<title>list-ul</title>
<path d="M21 17h-11.125c-0.276 0-0.511 0.098-0.707 0.293s-0.293 0.431-0.293 0.707 0.098 0.512 0.293 0.707 0.431 0.293 0.707 0.293h11.125c0.276 0 0.511-0.097 0.707-0.293s0.293-0.431 0.293-0.707-0.098-0.511-0.293-0.707-0.431-0.293-0.707-0.293z"></path>
<path d="M9.875 7h11.125c0.276 0 0.511-0.098 0.707-0.293s0.293-0.431 0.293-0.707-0.098-0.511-0.293-0.707-0.431-0.293-0.707-0.293h-11.125c-0.276 0-0.511 0.097-0.707 0.293s-0.293 0.431-0.293 0.707 0.098 0.512 0.293 0.707 0.431 0.293 0.707 0.293z"></path>
<path d="M21 11h-11.125c-0.276 0-0.511 0.098-0.707 0.293s-0.293 0.431-0.293 0.707c0 0.276 0.098 0.511 0.293 0.707s0.431 0.293 0.707 0.293h11.125c0.276 0 0.511-0.097 0.707-0.293s0.293-0.431 0.293-0.707c0-0.276-0.098-0.511-0.293-0.707s-0.431-0.293-0.707-0.293z"></path>
<path d="M5.375 17h-2.375c-0.276 0-0.511 0.098-0.707 0.293s-0.293 0.431-0.293 0.707 0.098 0.512 0.293 0.707 0.431 0.293 0.707 0.293h2.375c0.276 0 0.512-0.097 0.707-0.293s0.293-0.431 0.293-0.707-0.098-0.511-0.293-0.707-0.431-0.293-0.707-0.293z"></path>
<path d="M5.375 5h-2.375c-0.276 0-0.511 0.098-0.707 0.293s-0.293 0.431-0.293 0.707 0.098 0.511 0.293 0.707 0.431 0.293 0.707 0.293h2.375c0.276 0 0.512-0.098 0.707-0.293s0.293-0.431 0.293-0.707-0.098-0.512-0.293-0.707-0.431-0.293-0.707-0.293z"></path>
<path d="M5.375 11h-2.375c-0.276 0-0.511 0.098-0.707 0.293s-0.293 0.431-0.293 0.707c0 0.276 0.098 0.511 0.293 0.707s0.431 0.293 0.707 0.293h2.375c0.276 0 0.512-0.097 0.707-0.293s0.293-0.431 0.293-0.707c0-0.276-0.098-0.511-0.293-0.707s-0.431-0.293-0.707-0.293z"></path>
</svg>
