<!-- Generated by IcoMoon.io -->
<svg version="1.1" xmlns="http://www.w3.org/2000/svg" width="24" height="24" viewBox="0 0 24 24">
<title>list-add</title>
<path d="M3 1.95h18c0.525 0 0.975 0.45 0.975 0.975s-0.45 0.975-0.975 0.975h-18c-0.525 0-0.975-0.45-0.975-0.975s0.45-0.975 0.975-0.975z"></path>
<path d="M3 7.95h18c0.525 0 0.975 0.45 0.975 0.975s-0.45 0.975-0.975 0.975h-18c-0.525 0-0.975-0.45-0.975-0.975s0.45-0.975 0.975-0.975z"></path>
<path d="M3 13.425h4.8c0.525 0 0.975 0.45 0.975 0.975s-0.45 0.975-0.975 0.975h-4.8c-0.525 0-0.975-0.45-0.975-0.975s0.375-0.975 0.975-0.975z"></path>
<path d="M12.525 16.050h7.65c0.525 0 0.975 0.45 0.975 0.975s-0.45 0.975-0.975 0.975h-7.65c-0.525 0-0.975-0.45-0.975-0.975s0.45-0.975 0.975-0.975z"></path>
<path d="M16.35 12c0.525 0 0.975 0.45 0.975 0.975v8.025c0 0.525-0.45 0.975-0.975 0.975s-0.975-0.45-0.975-0.975v-8.025c0-0.525 0.375-0.975 0.975-0.975z"></path>
</svg>
