<!-- Generated by IcoMoon.io -->
<svg version="1.1" xmlns="http://www.w3.org/2000/svg" width="24" height="24" viewBox="0 0 24 24">
<title>location</title>
<path d="M12 1q2.243 0 4.277 0.871t3.508 2.344 2.344 3.508 0.871 4.277-0.871 4.277-2.344 3.508-3.508 2.344-4.277 0.871-4.277-0.871-3.508-2.344-2.344-3.508-0.871-4.277 0.871-4.277 2.344-3.508 3.508-2.344 4.277-0.871zM13 3.055v2.945q0 0.414-0.293 0.707t-0.707 0.293-0.707-0.293-0.293-0.707v-2.945q-1.547 0.172-2.933 0.851t-2.434 1.727-1.727 2.434-0.851 2.933h2.945q0.414 0 0.707 0.293t0.293 0.707-0.293 0.707-0.707 0.293h-2.945q0.172 1.547 0.851 2.933t1.726 2.434 2.434 1.726 2.933 0.851v-2.945q0-0.414 0.293-0.707t0.707-0.293 0.707 0.293 0.293 0.707v2.945q1.547-0.172 2.933-0.851t2.434-1.726 1.727-2.434 0.851-2.933h-2.945q-0.414 0-0.707-0.293t-0.293-0.707 0.293-0.707 0.707-0.293h2.945q-0.172-1.547-0.851-2.933t-1.727-2.434-2.434-1.727-2.933-0.851z"></path>
</svg>
