<!-- Generated by IcoMoon.io -->
<svg version="1.1" xmlns="http://www.w3.org/2000/svg" width="24" height="24" viewBox="0 0 24 24">
<title>lozenge</title>
<path d="M12 2.422c0.216 0 0.397 0.075 0.55 0.228l8.8 8.8c0.153 0.153 0.228 0.334 0.228 0.55s-0.075 0.397-0.228 0.55l-8.8 8.8c-0.153 0.153-0.335 0.228-0.55 0.228s-0.397-0.075-0.55-0.228l-8.8-8.8c-0.153-0.153-0.228-0.335-0.228-0.55s0.075-0.397 0.228-0.55l8.8-8.8c0.153-0.15 0.334-0.228 0.55-0.228zM12 0.422c-0.741 0-1.441 0.287-1.966 0.812l-8.797 8.8c-0.525 0.525-0.812 1.222-0.812 1.966s0.287 1.441 0.812 1.966l8.8 8.8c0.525 0.525 1.222 0.812 1.966 0.812s1.441-0.287 1.966-0.812l8.8-8.8c0.525-0.525 0.812-1.222 0.812-1.966s-0.287-1.441-0.812-1.966l-8.803-8.797c-0.525-0.525-1.225-0.815-1.966-0.815v0z"></path>
</svg>
