<!-- Generated by IcoMoon.io -->
<svg version="1.1" xmlns="http://www.w3.org/2000/svg" width="24" height="24" viewBox="0 0 24 24">
<title>man</title>
<path d="M21.452 3.029c-0.090-0.216-0.265-0.392-0.481-0.482-0.112-0.045-0.226-0.068-0.34-0.068h-4.417c-0.491 0-0.889 0.399-0.889 0.889s0.399 0.889 0.889 0.889h2.269l-3.089 3.090c-0.692-0.554-1.463-0.985-2.293-1.279-0.853-0.303-1.75-0.456-2.666-0.456-2.124 0-4.122 0.827-5.625 2.329-3.101 3.101-3.101 8.148 0 11.25 1.503 1.503 3.5 2.33 5.625 2.33 2.123 0 4.121-0.827 5.625-2.33s2.33-3.5 2.33-5.625c0-0.917-0.154-1.814-0.457-2.667-0.295-0.829-0.725-1.601-1.28-2.293l3.089-3.089v2.271c0 0.49 0.399 0.889 0.889 0.889s0.889-0.399 0.889-0.889v-4.418c0-0.116-0.023-0.23-0.067-0.341zM10.434 19.743c-1.65 0-3.201-0.643-4.368-1.81-1.165-1.164-1.807-2.715-1.807-4.367s0.641-3.202 1.807-4.367c1.167-1.167 2.718-1.81 4.368-1.81s3.202 0.643 4.368 1.81c1.167 1.165 1.81 2.716 1.81 4.367-0.002 1.65-0.643 3.201-1.81 4.367-1.167 1.167-2.718 1.81-4.368 1.81z"></path>
</svg>
