<!-- Generated by IcoMoon.io -->
<svg version="1.1" xmlns="http://www.w3.org/2000/svg" width="24" height="24" viewBox="0 0 24 24">
<title>media-rewind-fast</title>
<path d="M18 4q0.414 0 0.707 0.293t0.293 0.707-0.297 0.711l-6.289 6.289 6.289 6.289q0.297 0.297 0.297 0.711t-0.293 0.707-0.707 0.293q-0.422 0-0.711-0.289l-7-7q-0.289-0.289-0.289-0.711t0.289-0.711l7-7q0.289-0.289 0.711-0.289zM12 4q0.414 0 0.707 0.293t0.293 0.707-0.297 0.711l-6.289 6.289 6.289 6.289q0.297 0.297 0.297 0.711t-0.293 0.707-0.707 0.293q-0.422 0-0.711-0.289l-7-7q-0.289-0.289-0.289-0.711t0.289-0.711l7-7q0.289-0.289 0.711-0.289z"></path>
</svg>
