<!-- Generated by IcoMoon.io -->
<svg version="1.1" xmlns="http://www.w3.org/2000/svg" width="24" height="24" viewBox="0 0 24 24">
<title>media-forward-fast</title>
<path d="M11 4q0.414 0 0.704 0.289l7 7q0.297 0.297 0.297 0.711t-0.297 0.711l-7 7q-0.289 0.289-0.704 0.289t-0.707-0.293-0.293-0.707q0-0.422 0.289-0.711l6.289-6.289-6.289-6.289q-0.289-0.289-0.289-0.711 0-0.43 0.285-0.715t0.715-0.285zM5 4q0.414 0 0.704 0.289l7 7q0.297 0.297 0.297 0.711t-0.297 0.711l-7 7q-0.289 0.289-0.704 0.289t-0.707-0.293-0.293-0.707q0-0.422 0.289-0.711l6.289-6.289-6.289-6.289q-0.289-0.289-0.289-0.711 0-0.43 0.285-0.715t0.715-0.285z"></path>
</svg>
