<!-- Generated by IcoMoon.io -->
<svg version="1.1" xmlns="http://www.w3.org/2000/svg" width="24" height="24" viewBox="0 0 24 24">
<title>minimize</title>
<path d="M22 1q-0.422 0-0.711 0.289l-6.289 6.289v-4.586q0-0.414-0.293-0.707t-0.707-0.293-0.707 0.293-0.293 0.707v7q0 0.414 0.297 0.711t0.711 0.297h7q0.414 0 0.707-0.293t0.293-0.707-0.293-0.707-0.707-0.293h-4.586l6.289-6.289q0.289-0.289 0.289-0.711 0-0.43-0.285-0.715t-0.715-0.285zM9.992 13h-7q-0.414 0-0.707 0.293t-0.293 0.707 0.293 0.707 0.707 0.293h4.586l-6.281 6.289q-0.297 0.297-0.297 0.711t0.293 0.707 0.707 0.293q0.422 0 0.711-0.289l6.289-6.289v4.586q0 0.414 0.293 0.707t0.707 0.293 0.707-0.293 0.293-0.707v-7q0-0.414-0.297-0.711t-0.711-0.297z"></path>
</svg>
