<!-- Generated by IcoMoon.io -->
<svg version="1.1" xmlns="http://www.w3.org/2000/svg" width="24" height="24" viewBox="0 0 24 24">
<title>mouse</title>
<path d="M12 2c3.398 0 6.152 2.755 6.152 6.152v7.695c0 3.398-2.755 6.152-6.152 6.152s-6.152-2.755-6.152-6.152v-7.695c0-3.398 2.755-6.152 6.152-6.152zM12 0.007c-1.099 0-2.165 0.215-3.171 0.641-0.97 0.41-1.841 0.997-2.588 1.744s-1.334 1.619-1.745 2.588c-0.425 1.005-0.641 2.072-0.641 3.171v7.695c0 1.099 0.215 2.165 0.641 3.171 0.41 0.97 0.997 1.84 1.745 2.588s1.618 1.334 2.588 1.744c1.006 0.425 2.072 0.64 3.171 0.64s2.165-0.215 3.171-0.64c0.97-0.41 1.841-0.997 2.588-1.744s1.334-1.619 1.745-2.588c0.425-1.005 0.64-2.072 0.64-3.171v-7.695c0-1.099-0.215-2.165-0.64-3.171-0.41-0.97-0.998-1.841-1.745-2.588s-1.619-1.334-2.588-1.745c-1.005-0.425-2.072-0.64-3.171-0.64v0z"></path>
<path d="M12 10.473c-0.55 0-0.996-0.446-0.996-0.996v-4.453c0-0.551 0.446-0.996 0.996-0.996s0.996 0.446 0.996 0.996v4.453c0 0.55-0.446 0.996-0.996 0.996z"></path>
</svg>
