<!-- Generated by IcoMoon.io -->
<svg version="1.1" xmlns="http://www.w3.org/2000/svg" width="24" height="24" viewBox="0 0 24 24">
<title>move</title>
<path d="M12 0q0.422 0 0.711 0.289l3.531 3.539q0.297 0.297 0.297 0.711t-0.293 0.707-0.707 0.293-0.711-0.297l-1.829-1.829v7.586h7.586l-1.828-1.829q-0.297-0.297-0.297-0.711t0.293-0.707 0.707-0.293 0.711 0.297l3.539 3.531q0.289 0.289 0.289 0.711t-0.289 0.704l-3.539 3.539q-0.297 0.297-0.711 0.297t-0.707-0.293-0.293-0.707 0.297-0.711l1.829-1.829h-7.586v7.586l1.828-1.828q0.297-0.297 0.711-0.297t0.707 0.293 0.293 0.707-0.297 0.711l-3.531 3.539q-0.289 0.289-0.711 0.289-0.414 0-0.704-0.289l-3.539-3.539q-0.297-0.297-0.297-0.711t0.293-0.707 0.707-0.293 0.711 0.297l1.829 1.829v-7.586h-7.586l1.829 1.828q0.297 0.297 0.297 0.711t-0.293 0.707-0.707 0.293-0.711-0.297l-3.539-3.531q-0.289-0.289-0.289-0.711t0.289-0.711l3.539-3.531q0.297-0.297 0.711-0.297t0.707 0.293 0.293 0.707-0.297 0.711l-1.828 1.829h7.586v-7.586l-1.829 1.829q-0.297 0.297-0.711 0.297t-0.707-0.293-0.293-0.707 0.297-0.711l3.531-3.539q0.289-0.289 0.711-0.289z"></path>
</svg>
