<!-- Generated by IcoMoon.io -->
<svg version="1.1" xmlns="http://www.w3.org/2000/svg" width="24" height="24" viewBox="0 0 24 24">
<title>pad</title>
<path d="M3.062 20.938c-0.828 0-1.534-0.294-2.122-0.878s-0.878-1.294-0.878-2.122v-11.875c0-0.828 0.294-1.534 0.878-2.122s1.294-0.878 2.122-0.878h17.875c0.828 0 1.535 0.294 2.122 0.878s0.878 1.294 0.878 2.122v11.875c0 0.828-0.294 1.535-0.878 2.122s-1.294 0.878-2.122 0.878h-17.875zM20.938 5.063h-17.875c-0.275 0-0.512 0.097-0.707 0.294s-0.294 0.431-0.294 0.706v11.875c0 0.275 0.097 0.512 0.294 0.706s0.431 0.294 0.707 0.294h17.875c0.275 0 0.512-0.097 0.706-0.294s0.294-0.431 0.294-0.706v-11.875c0-0.275-0.097-0.512-0.294-0.707s-0.431-0.294-0.706-0.294z"></path>
<path d="M19.39 10.5c0.828 0 1.5 0.672 1.5 1.5s-0.672 1.5-1.5 1.5-1.5-0.672-1.5-1.5 0.672-1.5 1.5-1.5z"></path>
</svg>
