<!-- Generated by IcoMoon.io -->
<svg version="1.1" xmlns="http://www.w3.org/2000/svg" width="24" height="24" viewBox="0 0 24 24">
<title>paperplane</title>
<path d="M23.6 0.2c-0.31-0.231-0.721-0.265-1.063-0.084l-21 11c-0.331 0.169-0.538 0.509-0.538 0.881s0.203 0.712 0.531 0.887l7.156 3.787v6.328c0 0.444 0.29 0.831 0.716 0.959 0.094 0.029 0.191 0.040 0.284 0.040 0.332 0 0.65-0.166 0.838-0.453l2.86-4.388 5.147 2.725c0.147 0.078 0.306 0.115 0.469 0.115 0.147 0 0.294-0.032 0.428-0.097 0.284-0.134 0.491-0.397 0.553-0.706l4-20c0.075-0.378-0.072-0.766-0.381-0.997zM19.206 4.115l-9.737 10.706-5.325-2.819 15.062-7.888zM10.688 19.634v-1.903l0.922 0.487-0.922 1.415zM18.281 19.487l-4.778-2.531c0 0 0 0 0 0l-2.207-1.168 9.906-10.894-2.922 14.593z"></path>
</svg>
