<!-- Generated by IcoMoon.io -->
<svg version="1.1" xmlns="http://www.w3.org/2000/svg" width="24" height="24" viewBox="0 0 24 24">
<title>paper-clip</title>
<path d="M15.797 0q0.977 0 1.875 0.367 0.938 0.375 1.656 1.093 0.727 0.734 1.093 1.648 0.359 0.883 0.359 1.875t-0.359 1.875q-0.367 0.914-1.093 1.649l-9.203 9.203q-0.422 0.422-1 0.664-0.563 0.219-1.125 0.219t-1.125-0.219q-0.578-0.242-1-0.664-0.437-0.437-0.656-0.992-0.219-0.531-0.219-1.125 0-0.601 0.219-1.133 0.219-0.547 0.656-0.992l8.492-8.485q0.297-0.297 0.711-0.297 0.407 0 0.704 0.297t0.297 0.704q0 0.414-0.297 0.711l-8.492 8.485q-0.289 0.289-0.289 0.711 0 0.414 0.289 0.704 0.313 0.297 0.711 0.297t0.711-0.297l9.203-9.203q0.867-0.867 0.867-2.11t-0.867-2.11q-0.891-0.875-2.117-0.875-1.235 0-2.11 0.875l-9.226 9.18q-0.719 0.718-1.094 1.656-0.368 0.899-0.368 1.882 0 0.969 0.368 1.882 0.375 0.93 1.094 1.648 0.743 0.734 1.656 1.102t1.883 0.367 1.883-0.367 1.656-1.102l9.188-9.187q0.297-0.297 0.711-0.297 0.407 0 0.703 0.297t0.297 0.704q0 0.414-0.297 0.711l-9.188 9.188q-1.008 1.008-2.32 1.539-1.25 0.516-2.633 0.516-1.375 0-2.633-0.516-1.313-0.531-2.32-1.539-1-1-1.531-2.312-0.516-1.266-0.516-2.632 0-1.375 0.516-2.632 0.523-1.297 1.531-2.32h0.007l9.219-9.18q0.718-0.718 1.649-1.093 0.914-0.367 1.875-0.367z"></path>
</svg>
