<!-- Generated by IcoMoon.io -->
<svg version="1.1" xmlns="http://www.w3.org/2000/svg" width="24" height="24" viewBox="0 0 24 24">
<title>paragraph</title>
<path d="M10 1h9q0.414 0 0.707 0.293t0.293 0.707v20q0 0.414-0.293 0.707t-0.707 0.293-0.707-0.293-0.293-0.707v-19h-2v19q0 0.414-0.293 0.707t-0.707 0.293-0.707-0.293-0.293-0.707v-9h-4q-1.633 0-3.012-0.805t-2.183-2.183-0.805-3.012 0.805-3.012 2.183-2.183 3.012-0.805zM14 11v-8h-4q-1.656 0-2.828 1.172t-1.172 2.828 1.172 2.828 2.828 1.172h4z"></path>
</svg>
