<!-- Generated by IcoMoon.io -->
<svg version="1.1" xmlns="http://www.w3.org/2000/svg" width="24" height="24" viewBox="0 0 24 24">
<title>pause</title>
<path d="M16 3q1.242 0 2.121 0.879t0.879 2.121v12q0 1.242-0.879 2.121t-2.121 0.879-2.121-0.879-0.879-2.121v-12q0-1.242 0.879-2.121t2.121-0.879zM8 3q1.242 0 2.121 0.879t0.879 2.121v12q0 1.242-0.879 2.121t-2.121 0.879-2.121-0.879-0.879-2.121v-12q0-1.242 0.879-2.121t2.121-0.879zM8 5q-0.414 0-0.707 0.293t-0.293 0.707v12q0 0.414 0.293 0.707t0.707 0.293 0.707-0.293 0.293-0.707v-12q0-0.414-0.293-0.707t-0.707-0.293zM16 5q-0.414 0-0.707 0.293t-0.293 0.707v12q0 0.414 0.293 0.707t0.707 0.293 0.707-0.293 0.293-0.707v-12q0-0.414-0.293-0.707t-0.707-0.293z"></path>
</svg>
