<!-- Generated by IcoMoon.io -->
<svg version="1.1" xmlns="http://www.w3.org/2000/svg" width="24" height="24" viewBox="0 0 24 24">
<title>pen</title>
<path d="M21.243 2.757c-1.172-1.172-2.707-1.757-4.242-1.757s-3.070 0.586-4.242 1.757c0 0-0.001 0.001-0.001 0.001l-9.337 9.338v7.048l-1.541 1.541c-0.397 0.397-0.397 1.040 0 1.436 0.198 0.198 0.458 0.298 0.719 0.298s0.52-0.099 0.718-0.298l1.541-1.541h7.048l9.337-9.338c2.343-2.343 2.343-6.142 0-8.485zM5.452 13.044l5.504 5.504h-5.504v-5.504zM19.807 9.806l-7.361 7.36-5.611-5.611 7.361-7.361c0.749-0.749 1.746-1.162 2.806-1.162s2.057 0.412 2.806 1.162 1.162 1.746 1.162 2.806-0.412 2.056-1.162 2.806z"></path>
</svg>
