<!-- Generated by IcoMoon.io -->
<svg version="1.1" xmlns="http://www.w3.org/2000/svg" width="24" height="24" viewBox="0 0 24 24">
<title>pie-graph</title>
<path d="M12 1q2.243 0 4.277 0.871t3.508 2.344 2.344 3.508 0.871 4.277-0.871 4.277-2.344 3.508-3.508 2.344-4.277 0.871-4.277-0.871-3.508-2.344-2.344-3.508-0.871-4.277 0.871-4.277 2.344-3.508 3.508-2.344 4.277-0.871zM11 13v-9.945q-1.664 0.188-3.145 0.964t-2.547 1.957-1.688 2.75-0.621 3.274q0 1.829 0.715 3.496t1.918 2.871 2.871 1.918 3.496 0.715q1.703 0 3.274-0.621t2.75-1.688 1.957-2.547 0.965-3.145h-9.945zM13 3.055v7.945h7.946q-0.172-1.547-0.851-2.933t-1.726-2.434-2.434-1.727-2.933-0.851z"></path>
</svg>
