<!-- Generated by IcoMoon.io -->
<svg version="1.1" xmlns="http://www.w3.org/2000/svg" width="24" height="24" viewBox="0 0 24 24">
<title>pin</title>
<path d="M17.967 3.8c-1.458-1.6-3.501-2.445-5.909-2.445-4.418 0-8.151 3.759-8.151 8.209 0 4.414 3.863 8.846 6.684 12.082 0.12 0.138 0.238 0.273 0.354 0.407v0c0.043 0.048 0.566 0.625 1.264 0.625h0.049c0.652 0 1.159-0.515 1.253-0.616l0.009-0.010c1.802-2.072 3.191-3.94 4.249-5.712 1.52-2.548 2.291-4.828 2.291-6.776 0-2.236-0.743-4.282-2.094-5.764zM12.058 3.292c4.19 0 6.065 3.15 6.065 6.271 0 2.775-1.982 6.481-5.89 11.015l-0.18-0.207c-2.62-3.005-6.207-7.12-6.207-10.808 0-3.4 2.845-6.271 6.213-6.271z"></path>
<path d="M12.008 13.667c2.316 0 4.199-1.884 4.199-4.199s-1.884-4.199-4.199-4.199-4.199 1.884-4.199 4.199 1.884 4.199 4.199 4.199zM11.978 7.177c1.247 0 2.262 1.015 2.262 2.262 0 1.263-1.001 2.29-2.233 2.29-1.242 0-2.292-1.049-2.292-2.29 0-1.247 1.015-2.262 2.262-2.262z"></path>
</svg>
