<!-- Generated by IcoMoon.io -->
<svg version="1.1" xmlns="http://www.w3.org/2000/svg" width="24" height="24" viewBox="0 0 24 24">
<title>pizza</title>
<path d="M23.383 15.092c-2.176-6.879-7.58-12.28-14.456-14.456-0.52-0.165-1.075 0.118-1.246 0.636l-6.901 20.705c-0.119 0.358-0.025 0.755 0.24 1.019 0.191 0.19 0.446 0.293 0.704 0.293 0.106 0 0.212-0.016 0.315-0.050l20.705-6.901c0.518-0.175 0.801-0.729 0.639-1.246zM8.163 6.814c0.29-0.289 0.676-0.452 1.087-0.452s0.798 0.159 1.088 0.452c0.289 0.289 0.452 0.676 0.452 1.087s-0.159 0.798-0.452 1.087v0c-0.289 0.29-0.676 0.452-1.088 0.452s-0.798-0.159-1.087-0.452c-0.289-0.29-0.452-0.676-0.452-1.087s0.162-0.798 0.452-1.087zM6.745 10.388c0.003 0.003 0.006 0.006 0.009 0.009 0.667 0.667 1.556 1.035 2.497 1.035 0.944 0 1.829-0.367 2.497-1.035 0.561-0.561 0.91-1.275 1.007-2.051 0.53 0.433 1.041 0.895 1.531 1.384 1.733 1.733 3.114 3.731 4.117 5.95l-4.535 1.512c0.019-0.153 0.032-0.308 0.032-0.464 0-0.944-0.367-1.829-1.035-2.497-1.378-1.378-3.619-1.378-4.996 0-0.667 0.667-1.035 1.555-1.035 2.497 0 0.932 0.359 1.808 1.010 2.472l-4.541 1.515 3.444-10.326zM9.279 15.643c0.299-0.299 0.695-0.448 1.087-0.448s0.788 0.149 1.088 0.448c0.599 0.598 0.599 1.574 0 2.176 0 0 0 0 0 0-0.289 0.29-0.676 0.452-1.088 0.452s-0.798-0.159-1.087-0.452c-0.601-0.601-0.601-1.577 0-2.176zM20.303 15.048c-1.106-2.515-2.656-4.775-4.607-6.726s-4.214-3.5-6.729-4.606l0.287-0.857c5.507 2.041 9.865 6.399 11.906 11.906l-0.857 0.284z"></path>
</svg>
