<!-- Generated by IcoMoon.io -->
<svg version="1.1" xmlns="http://www.w3.org/2000/svg" width="24" height="24" viewBox="0 0 24 24">
<title>plug</title>
<path d="M22.607 7.082c-0.391-0.391-1.025-0.391-1.415 0l-4.154 4.153-4.244-4.244 4.16-4.187c0.391-0.391 0.388-1.025-0.003-1.415s-1.025-0.388-1.415 0.003l-4.156 4.187-2.825-2.828c-4.047 4.047-5.537 9.209-2.103 13.384l-4.156 4.157c-0.391 0.391-0.391 1.025 0 1.415 0.193 0.194 0.45 0.294 0.707 0.294s0.512-0.097 0.707-0.294l4.156-4.157c1.612 1.341 3.375 1.94 5.165 1.94 2.847 0 5.762-1.522 8.253-4.015l-2.828-2.828 4.153-4.153c0.391-0.388 0.391-1.022 0-1.412zM13.028 17.494c-0.782 0-1.538-0.156-2.25-0.463-0.778-0.335-1.528-0.857-2.222-1.553-0.822-0.822-1.4-1.712-1.715-2.647-0.29-0.86-0.369-1.775-0.235-2.725 0.137-0.962 0.494-1.956 1.056-2.957 0.281-0.5 0.61-0.994 0.981-1.481l9.722 9.722c-1.778 1.366-3.629 2.103-5.338 2.103z"></path>
</svg>
