<!-- Generated by IcoMoon.io -->
<svg version="1.1" xmlns="http://www.w3.org/2000/svg" width="24" height="24" viewBox="0 0 24 24">
<title>points</title>
<path d="M12 11.786c-2.791 0-5.081-2.29-5.081-5.081s2.29-5.081 5.081-5.081c2.791 0 5.081 2.29 5.081 5.081s-2.29 5.081-5.081 5.081zM12 3.556c-1.717 0-3.149 1.431-3.149 3.149s1.431 3.149 3.149 3.149 3.149-1.431 3.149-3.149-1.431-3.149-3.149-3.149z"></path>
<path d="M5.774 22.448c-2.791 0-5.081-2.29-5.081-5.081s2.29-5.081 5.081-5.081 5.081 2.29 5.081 5.081c0 2.791-2.29 5.081-5.081 5.081zM5.774 14.218c-1.718 0-3.149 1.431-3.149 3.148s1.431 3.149 3.149 3.149 3.149-1.431 3.149-3.149-1.431-3.148-3.149-3.148z"></path>
<path d="M18.226 22.448c-2.791 0-5.081-2.29-5.081-5.081s2.29-5.081 5.081-5.081c2.791 0 5.081 2.29 5.081 5.081 0.071 2.791-2.218 5.081-5.081 5.081zM18.226 14.218c-1.717 0-3.148 1.431-3.148 3.148s1.431 3.149 3.148 3.149 3.149-1.431 3.149-3.149-1.36-3.148-3.149-3.148z"></path>
</svg>
