<!-- Generated by IcoMoon.io -->
<svg version="1.1" xmlns="http://www.w3.org/2000/svg" width="24" height="24" viewBox="0 0 24 24">
<title>qrcode</title>
<path d="M16 1h4c0.828 0 1.535 0.294 2.122 0.878s0.878 1.294 0.878 2.122v4c0 0.828-0.294 1.534-0.878 2.122s-1.294 0.878-2.122 0.878h-4c-0.828 0-1.534-0.294-2.122-0.878s-0.878-1.294-0.878-2.122v-4c0-0.828 0.294-1.534 0.878-2.122s1.294-0.878 2.122-0.878zM4 13h4c0.828 0 1.534 0.294 2.122 0.878s0.878 1.294 0.878 2.122v4c0 0.828-0.294 1.535-0.878 2.122s-1.294 0.878-2.122 0.878h-4c-0.828 0-1.534-0.294-2.122-0.878s-0.878-1.294-0.878-2.122v-4c0-0.828 0.294-1.534 0.878-2.122s1.294-0.878 2.122-0.878zM8 15h-4c-0.275 0-0.512 0.097-0.707 0.294s-0.294 0.431-0.294 0.706v4c0 0.275 0.097 0.512 0.294 0.706s0.431 0.294 0.707 0.294h4c0.275 0 0.512-0.097 0.707-0.294s0.294-0.431 0.294-0.706v-4c0-0.275-0.097-0.512-0.294-0.707s-0.431-0.294-0.707-0.294zM4 1h4c0.828 0 1.534 0.294 2.122 0.878s0.878 1.294 0.878 2.122v4c0 0.828-0.294 1.534-0.878 2.122s-1.294 0.878-2.122 0.878h-4c-0.828 0-1.534-0.294-2.122-0.878s-0.878-1.294-0.878-2.122v-4c0-0.828 0.294-1.534 0.878-2.122s1.294-0.878 2.122-0.878zM8 3h-4c-0.275 0-0.512 0.097-0.707 0.294s-0.294 0.431-0.294 0.707v4c0 0.275 0.097 0.512 0.294 0.707s0.431 0.294 0.707 0.294h4c0.275 0 0.512-0.097 0.707-0.294s0.294-0.431 0.294-0.707v-4c0-0.275-0.097-0.512-0.294-0.706s-0.431-0.294-0.707-0.294zM20 3h-4c-0.275 0-0.512 0.097-0.707 0.294s-0.294 0.431-0.294 0.707v4c0 0.275 0.097 0.512 0.294 0.707s0.431 0.294 0.707 0.294h4c0.275 0 0.512-0.097 0.706-0.294s0.294-0.431 0.294-0.707v-4c0-0.275-0.097-0.512-0.294-0.706s-0.431-0.294-0.706-0.294z"></path>
<path d="M6.688 7h-1.375c-0.172 0-0.313-0.141-0.313-0.313v-1.375c0-0.172 0.141-0.313 0.313-0.313h1.375c0.172 0 0.313 0.141 0.313 0.313v1.375c0 0.172-0.141 0.313-0.313 0.313z"></path>
<path d="M18.688 7h-1.375c-0.172 0-0.313-0.141-0.313-0.313v-1.375c0-0.172 0.141-0.313 0.313-0.313h1.375c0.172 0 0.313 0.141 0.313 0.313v1.375c0 0.172-0.141 0.313-0.313 0.313z"></path>
<path d="M15 13h-1c-0.553 0-1 0.447-1 1v0 1c0 0.553 0.447 1 1 1h1c0.553 0 1-0.447 1-1v-1c0-0.553-0.447-1-1-1v0z"></path>
<path d="M22 13h-1c-0.553 0-1 0.447-1 1v0 1c0 0.553 0.447 1 1 1h1c0.553 0 1-0.447 1-1v-1c0-0.553-0.447-1-1-1v0z"></path>
<path d="M15 20h-1c-0.553 0-1 0.447-1 1v0 1c0 0.553 0.447 1 1 1h1c0.553 0 1-0.447 1-1v-1c0-0.553-0.447-1-1-1v0z"></path>
<path d="M18.5 16.5h-1c-0.553 0-1 0.447-1 1v0 1c0 0.553 0.447 1 1 1h1c0.553 0 1-0.447 1-1v-1c0-0.553-0.447-1-1-1v0z"></path>
<path d="M22 20h-1c-0.553 0-1 0.447-1 1v0 1c0 0.553 0.447 1 1 1h1c0.553 0 1-0.447 1-1v-1c0-0.553-0.447-1-1-1v0z"></path>
<path d="M6.688 19h-1.375c-0.172 0-0.313-0.141-0.313-0.313v-1.375c0-0.172 0.141-0.313 0.313-0.313h1.375c0.172 0 0.313 0.141 0.313 0.313v1.375c0 0.172-0.141 0.313-0.313 0.313z"></path>
</svg>
