<!-- Generated by IcoMoon.io -->
<svg version="1.1" xmlns="http://www.w3.org/2000/svg" width="24" height="24" viewBox="0 0 24 24">
<title>receipt</title>
<path d="M12 22.35c-0.225 0-0.375-0.075-0.6-0.225l-2.475-1.875-3.225 1.875c-0.3 0.15-0.675 0.15-0.975 0-0.225-0.075-0.45-0.375-0.45-0.75v-18.75c0-0.525 0.45-0.975 0.975-0.975h13.5c0.525 0 0.975 0.45 0.975 0.975v18.75c0 0.375-0.225 0.675-0.525 0.825s-0.675 0.15-0.975 0l-3.15-1.875-2.475 1.875c-0.225 0.075-0.375 0.15-0.6 0.15zM9 18.15c0.225 0 0.375 0.075 0.6 0.225l2.4 1.8 2.4-1.8c0.3-0.225 0.75-0.225 1.050-0.075l2.25 1.35v-16.050h-11.475v16.050l2.25-1.35c0.15-0.075 0.375-0.15 0.525-0.15z"></path>
</svg>
