<!-- Generated by IcoMoon.io -->
<svg version="1.1" xmlns="http://www.w3.org/2000/svg" width="24" height="24" viewBox="0 0 24 24">
<title>record</title>
<path d="M12 3q1.828 0 3.496 0.715t2.871 1.918 1.918 2.871 0.715 3.496-0.715 3.496-1.918 2.871-2.871 1.918-3.496 0.715-3.496-0.715-2.871-1.918-1.918-2.871-0.715-3.496 0.715-3.496 1.918-2.871 2.871-1.918 3.496-0.715zM12 5q-1.422 0-2.719 0.555t-2.234 1.493-1.492 2.234-0.555 2.719 0.555 2.719 1.492 2.234 2.234 1.492 2.719 0.555 2.719-0.555 2.234-1.492 1.492-2.234 0.555-2.719-0.555-2.719-1.492-2.234-2.234-1.493-2.719-0.555z"></path>
</svg>
