<!-- Generated by IcoMoon.io -->
<svg version="1.1" xmlns="http://www.w3.org/2000/svg" width="24" height="24" viewBox="0 0 24 24">
<title>resize</title>
<path d="M4.752 17.48l12.728-12.728c0.195-0.195 0.431-0.292 0.707-0.292s0.512 0.097 0.707 0.292c0.195 0.195 0.293 0.431 0.293 0.707s-0.098 0.512-0.293 0.707l-12.728 12.728c-0.195 0.195-0.431 0.293-0.707 0.293s-0.512-0.098-0.707-0.293-0.292-0.431-0.292-0.707c0-0.276 0.097-0.512 0.292-0.707zM15.712 17.834l2.121-2.121c0.195-0.195 0.431-0.293 0.707-0.293s0.512 0.098 0.707 0.293c0.195 0.195 0.293 0.431 0.293 0.707s-0.098 0.512-0.293 0.707l-2.121 2.121c-0.195 0.195-0.431 0.293-0.707 0.293s-0.512-0.098-0.707-0.293-0.293-0.431-0.293-0.707c0-0.276 0.098-0.512 0.293-0.707zM10.232 17.657l7.424-7.424c0.195-0.195 0.431-0.293 0.707-0.293s0.512 0.098 0.707 0.293c0.195 0.195 0.292 0.431 0.292 0.707s-0.097 0.512-0.292 0.707l-7.424 7.424c-0.195 0.195-0.431 0.293-0.707 0.293s-0.512-0.098-0.707-0.293c-0.195-0.195-0.293-0.431-0.293-0.707s0.098-0.512 0.293-0.707z"></path>
</svg>
