<!-- Generated by IcoMoon.io -->
<svg version="1.1" xmlns="http://www.w3.org/2000/svg" width="24" height="24" viewBox="0 0 24 24">
<title>rotate-clockwise</title>
<path d="M7.697 21.4c1.1 0.4 2.2 0.6 3.3 0.6 4.1 0 8-2.6 9.5-6.7 0.2-0.5-0.1-1.1-0.6-1.3s-1.1 0.1-1.3 0.6c-1.5 4.2-6 6.4-10.2 4.9-2.1-0.7-3.7-2.2-4.6-4.1s-1-4.1-0.3-6.1c0.7-2.1 2.2-3.7 4.1-4.6s4.1-1 6.1-0.3c1.1 0.4 2.2 1.1 3 1.9l2.8 2.7h-3.5c-0.6 0-0.8 0.2-0.8 0.8s0.4 1 1 1h6.3l0.1-0.1c0.1 0 0.1 0 0.2-0.1v0c0.1 0 0.1-0.1 0.1-0.1 0-0.1 0.1-0.1 0.1-0.2 0 0 0-0.1 0-0.2v-6.1c0-0.6-0.4-1-1-1s-1 0.4-1 1v3.7l-3-2.8c-1-1-2.3-1.8-3.7-2.3-2.5-0.9-5.2-0.8-7.6 0.4s-4.2 3.2-5.1 5.7c-1.9 5.2 0.9 10.9 6.1 12.7z"></path>
</svg>
