<!-- Generated by IcoMoon.io -->
<svg version="1.1" xmlns="http://www.w3.org/2000/svg" width="24" height="24" viewBox="0 0 24 24">
<title>shop</title>
<path d="M18.608 9.358l-3.741-7.163c-0.264-0.505-0.886-0.701-1.391-0.436s-0.7 0.887-0.436 1.391l3.242 6.208h-8.562l3.242-6.208c0.264-0.505 0.068-1.128-0.437-1.391s-1.128-0.068-1.391 0.436l-3.74 7.163h-4.267c0 0 1.19 7.007 1.719 10 0.524 2.968 3.422 3 3.422 3h11.469c0 0 2.897-0.032 3.422-3 0.549-3.101 1.719-10 1.719-10h-4.267zM19.125 18.999c-0.121 0.682-0.433 0.931-0.691 1.073-0.33 0.181-0.673 0.218-0.746 0.224h-11.401c-0.023-0.002-0.34-0.038-0.644-0.184-0.438-0.21-0.668-0.543-0.769-1.112-0.316-1.792-0.874-5.445-1.269-7.579h16.789c-0.391 2.111-0.942 5.731-1.269 7.578z"></path>
</svg>
