<!-- Generated by IcoMoon.io -->
<svg version="1.1" xmlns="http://www.w3.org/2000/svg" width="24" height="24" viewBox="0 0 24 24">
<title>shuffle</title>
<path d="M18 0q0.414 0 0.711 0.297l4 4q0.289 0.289 0.289 0.703 0 0.422-0.289 0.711l-4 4q-0.289 0.289-0.711 0.289-0.414 0-0.707-0.293t-0.293-0.707q0-0.398 0.289-0.704l2.297-2.297h-1.586q-1.406 0-2.641 0.613t-2.070 1.676q-1.289 1.641-1.289 3.711 0 2.086-1 3.875-0.531 0.961-1.289 1.726-1.109 1.133-2.586 1.765t-3.125 0.633h-2q-0.414 0-0.707-0.293t-0.293-0.707 0.293-0.707 0.707-0.293h2q1.414 0 2.644-0.61t2.066-1.672q1.289-1.641 1.289-3.719 0-2.086 1-3.875 0.539-0.969 1.289-1.719 1.109-1.132 2.586-1.769t3.125-0.637h1.586l-2.297-2.289q-0.289-0.304-0.289-0.711 0-0.414 0.293-0.707t0.707-0.293zM18 14q0.414 0 0.711 0.297l4 4q0.289 0.289 0.289 0.711 0 0.414-0.289 0.703l-4 4q-0.289 0.289-0.711 0.289-0.414 0-0.707-0.289t-0.293-0.703q0-0.407 0.289-0.711l2.297-2.297h-1.586q-1.648 0-3.125-0.633t-2.586-1.765q0.601-0.883 1-1.883 0.836 1.063 2.066 1.672t2.645 0.61h1.586l-2.297-2.289q-0.289-0.305-0.289-0.711 0-0.414 0.293-0.707t0.707-0.293zM2 4h2q1.649 0 3.125 0.637t2.586 1.769q-0.61 0.899-1 1.882-0.836-1.063-2.070-1.675t-2.641-0.614h-2q-0.414 0-0.707-0.293t-0.293-0.707 0.293-0.707 0.707-0.293z"></path>
</svg>
