<!-- Generated by IcoMoon.io -->
<svg version="1.1" xmlns="http://www.w3.org/2000/svg" width="24" height="24" viewBox="0 0 24 24">
<title>simply-left</title>
<path d="M15.586 18.289c0.193 0.193 0.289 0.43 0.289 0.711 0 0.287-0.095 0.525-0.285 0.715s-0.428 0.285-0.715 0.285c-0.281 0-0.518-0.096-0.711-0.289l-7-7c-0.193-0.193-0.289-0.43-0.289-0.711s0.096-0.518 0.289-0.711l7-7c0.193-0.193 0.43-0.289 0.711-0.289 0.287 0 0.525 0.095 0.715 0.285s0.285 0.428 0.285 0.715c0 0.281-0.096 0.518-0.289 0.711l-6.289 6.289 6.289 6.289z"></path>
</svg>
