<!-- Generated by IcoMoon.io -->
<svg version="1.1" xmlns="http://www.w3.org/2000/svg" width="24" height="24" viewBox="0 0 24 24">
<title>simply-up</title>
<path d="M5.711 15.336c-0.193 0.193-0.43 0.289-0.711 0.289-0.286 0-0.525-0.095-0.715-0.285s-0.285-0.428-0.285-0.715c0-0.281 0.096-0.518 0.289-0.711l7-7c0.193-0.193 0.43-0.289 0.711-0.289s0.518 0.096 0.711 0.289l7 7c0.193 0.193 0.289 0.43 0.289 0.711 0 0.287-0.095 0.525-0.285 0.715s-0.428 0.285-0.715 0.285c-0.281 0-0.518-0.096-0.711-0.289l-6.289-6.289-6.289 6.289z"></path>
</svg>
