<!-- Generated by IcoMoon.io -->
<svg version="1.1" xmlns="http://www.w3.org/2000/svg" width="24" height="24" viewBox="0 0 24 24">
<title>smiley</title>
<path d="M12 1c1.494 0 2.922 0.29 4.278 0.872s2.525 1.363 3.506 2.344 1.763 2.15 2.344 3.506 0.872 2.785 0.872 4.278-0.29 2.922-0.872 4.278-1.363 2.525-2.344 3.506-2.15 1.763-3.506 2.344-2.784 0.872-4.278 0.872-2.922-0.29-4.278-0.872-2.525-1.363-3.506-2.344-1.763-2.15-2.344-3.506-0.872-2.784-0.872-4.278 0.29-2.922 0.872-4.278 1.363-2.525 2.344-3.506 2.15-1.763 3.506-2.344 2.785-0.872 4.278-0.872zM12 3c-1.219 0-2.384 0.238-3.496 0.715s-2.068 1.115-2.872 1.918-1.441 1.76-1.918 2.872-0.713 2.275-0.713 3.494 0.238 2.384 0.716 3.497 1.115 2.068 1.919 2.872 1.759 1.441 2.872 1.918 2.275 0.713 3.493 0.713 2.384-0.238 3.497-0.716 2.069-1.116 2.872-1.918 1.441-1.759 1.919-2.872 0.712-2.275 0.712-3.494-0.238-2.384-0.715-3.496-1.116-2.069-1.919-2.872-1.759-1.441-2.872-1.918-2.275-0.713-3.494-0.713z"></path>
<path d="M12 23.016c-1.491 0-2.931-0.294-4.285-0.872s-2.534-1.369-3.512-2.347c-0.978-0.978-1.768-2.159-2.347-3.512s-0.872-2.794-0.872-4.285 0.294-2.931 0.872-4.285c0.578-1.353 1.369-2.534 2.347-3.512s2.159-1.768 3.512-2.347c1.353-0.578 2.794-0.872 4.285-0.872s2.931 0.294 4.284 0.872c1.353 0.578 2.534 1.369 3.512 2.347s1.768 2.159 2.347 3.512c0.578 1.353 0.872 2.794 0.872 4.285s-0.294 2.931-0.872 4.285c-0.578 1.353-1.369 2.534-2.347 3.512s-2.159 1.769-3.512 2.347c-1.353 0.578-2.794 0.872-4.285 0.872zM12 1.016c-1.484 0-2.922 0.294-4.272 0.868-1.35 0.578-2.528 1.366-3.503 2.341s-1.763 2.153-2.341 3.503c-0.575 1.35-0.868 2.788-0.868 4.272s0.294 2.922 0.868 4.272c0.578 1.35 1.366 2.528 2.341 3.503s2.153 1.762 3.503 2.341c1.347 0.578 2.785 0.869 4.272 0.869 1.484 0 2.922-0.294 4.272-0.869 1.35-0.578 2.528-1.366 3.503-2.341s1.762-2.153 2.341-3.503c0.578-1.35 0.869-2.784 0.869-4.272 0-1.484-0.294-2.922-0.869-4.272-0.578-1.35-1.366-2.528-2.341-3.503s-2.153-1.762-3.503-2.341c-1.35-0.575-2.788-0.868-4.272-0.868zM12 21.016c-1.216 0-2.394-0.241-3.503-0.716s-2.075-1.122-2.875-1.922c-0.8-0.8-1.447-1.768-1.922-2.875-0.475-1.109-0.715-2.287-0.715-3.503s0.241-2.394 0.715-3.503c0.475-1.109 1.122-2.075 1.922-2.875s1.769-1.447 2.875-1.922c1.109-0.475 2.287-0.715 3.503-0.715s2.394 0.241 3.503 0.715c1.109 0.475 2.075 1.122 2.875 1.922s1.447 1.769 1.922 2.875c0.475 1.109 0.715 2.287 0.715 3.503s-0.241 2.394-0.715 3.503c-0.475 1.109-1.122 2.075-1.922 2.875s-1.769 1.447-2.875 1.922c-1.109 0.475-2.287 0.715-3.503 0.715zM12 3.016c-1.21 0-2.384 0.241-3.491 0.713-1.106 0.475-2.068 1.119-2.866 1.916s-1.441 1.762-1.916 2.866c-0.475 1.106-0.713 2.278-0.713 3.491 0 1.21 0.241 2.384 0.713 3.491 0.475 1.106 1.119 2.068 1.916 2.866s1.762 1.441 2.866 1.915c1.106 0.475 2.278 0.712 3.491 0.712s2.384-0.241 3.491-0.712c1.106-0.475 2.068-1.119 2.866-1.915s1.441-1.763 1.915-2.866c0.475-1.106 0.712-2.279 0.712-3.491s-0.241-2.384-0.712-3.491c-0.475-1.106-1.119-2.068-1.915-2.866s-1.763-1.441-2.866-1.916c-1.106-0.472-2.279-0.713-3.491-0.713z"></path>
<path d="M11.962 18.025c-2.328 0-4.403-0.841-5.781-2.357-0.372-0.409-0.341-1.040 0.069-1.412s1.040-0.341 1.412 0.069c0.563 0.622 1.294 1.082 2.172 1.372 0.828 0.272 1.768 0.378 2.716 0.31h0.003c0.341-0.025 0.656-0.072 1.082-0.163 0.456-0.128 0.897-0.287 1.385-0.5 0.5-0.241 0.916-0.628 1.366-1.069 0.394-0.388 1.028-0.378 1.415 0.016s0.378 1.028-0.016 1.415c-0.566 0.553-1.134 1.078-1.919 1.45l-0.029 0.013c-0.594 0.26-1.131 0.453-1.697 0.61l-0.028 0.009-0.028 0.006c-0.528 0.113-0.944 0.175-1.388 0.206-0.247 0.016-0.49 0.025-0.734 0.025z"></path>
<path d="M10.003 9.578c0 0.829-0.671 1.5-1.5 1.5s-1.5-0.671-1.5-1.5c0-0.829 0.671-1.5 1.5-1.5s1.5 0.671 1.5 1.5z"></path>
<path d="M17.003 9.578c0 0.829-0.671 1.5-1.5 1.5s-1.5-0.671-1.5-1.5c0-0.829 0.671-1.5 1.5-1.5s1.5 0.671 1.5 1.5z"></path>
</svg>
