<!-- Generated by IcoMoon.io -->
<svg version="1.1" xmlns="http://www.w3.org/2000/svg" width="24" height="24" viewBox="0 0 24 24">
<title>speech-bubble-message</title>
<path d="M4 1h16c0.828 0 1.535 0.294 2.122 0.878s0.878 1.294 0.878 2.122v11c0 0.828-0.294 1.535-0.878 2.122s-1.294 0.878-2.122 0.878h-8l-7 5v-5h-1c-0.828 0-1.534-0.294-2.122-0.878s-0.878-1.294-0.878-2.122v-11c0-0.828 0.294-1.534 0.878-2.122s1.294-0.878 2.122-0.878zM20 3h-16c-0.275 0-0.512 0.097-0.707 0.294s-0.294 0.431-0.294 0.707v11c0 0.275 0.097 0.512 0.294 0.707s0.431 0.294 0.707 0.294h3v3.119l4.36-3.119h8.641c0.275 0 0.512-0.097 0.707-0.294s0.294-0.431 0.294-0.707v-11c0-0.275-0.097-0.512-0.294-0.706s-0.431-0.294-0.707-0.294z"></path>
<path d="M9 9.497c0 0.552-0.448 1-1 1s-1-0.448-1-1c0-0.552 0.448-1 1-1s1 0.448 1 1z"></path>
<path d="M13 9.497c0 0.552-0.448 1-1 1s-1-0.448-1-1c0-0.552 0.448-1 1-1s1 0.448 1 1z"></path>
<path d="M17 9.497c0 0.552-0.448 1-1 1s-1-0.448-1-1c0-0.552 0.448-1 1-1s1 0.448 1 1z"></path>
</svg>
