<!-- Generated by IcoMoon.io -->
<svg version="1.1" xmlns="http://www.w3.org/2000/svg" width="24" height="24" viewBox="0 0 24 24">
<title>speed</title>
<path d="M12 3c-6.075 0-11 4.925-11 11 0 1.784 0.425 3.469 1.178 4.956 0.169 0.335 0.516 0.544 0.891 0.544v0c0.747 0 1.225-0.788 0.891-1.457-0.091-0.178-0.172-0.359-0.25-0.541-0.472-1.109-0.709-2.288-0.709-3.503s0.238-2.394 0.707-3.503c0.453-1.072 1.103-2.035 1.928-2.863 0.828-0.828 1.79-1.475 2.863-1.928 1.109-0.469 2.288-0.707 3.503-0.707s2.394 0.238 3.503 0.707c1.072 0.453 2.034 1.103 2.863 1.928 0.828 0.828 1.475 1.791 1.928 2.863 0.469 1.109 0.707 2.288 0.707 3.503s-0.238 2.394-0.707 3.503c-0.078 0.184-0.163 0.366-0.25 0.541-0.337 0.669 0.144 1.457 0.891 1.457v0c0.375 0 0.718-0.209 0.891-0.544 0.75-1.487 1.175-3.172 1.175-4.956 0-6.075-4.925-11-11-11z"></path>
<path d="M12.547 17.575l-5.569-8.834 3.196 9.943c-0.112 0.25-0.175 0.525-0.175 0.815 0 1.103 0.897 2 2 2s2-0.897 2-2c0-0.916-0.616-1.684-1.453-1.925z"></path>
</svg>
