<!-- Generated by IcoMoon.io -->
<svg version="1.1" xmlns="http://www.w3.org/2000/svg" width="24" height="24" viewBox="0 0 24 24">
<title>spinner</title>
<path d="M4.954 20.045c-0.256 0-0.511-0.098-0.707-0.293-0.974-0.974-1.76-2.148-2.334-3.491-0.578-1.35-0.871-2.784-0.871-4.262s0.293-2.912 0.871-4.262c0.575-1.342 1.361-2.516 2.334-3.49s2.148-1.759 3.49-2.334c1.35-0.578 2.784-0.871 4.262-0.871s2.913 0.293 4.262 0.871c1.342 0.575 2.516 1.361 3.49 2.334s1.76 2.148 2.334 3.49c0.578 1.35 0.872 2.784 0.872 4.262s-0.293 2.913-0.872 4.262c-0.575 1.342-1.36 2.516-2.334 3.49-0.391 0.391-1.024 0.391-1.415 0s-0.391-1.024 0-1.415c0.793-0.793 1.436-1.756 1.91-2.864 0.471-1.099 0.71-2.269 0.71-3.475s-0.239-2.375-0.71-3.475c-0.475-1.107-1.117-2.071-1.91-2.864s-1.756-1.436-2.864-1.91c-1.1-0.471-2.269-0.71-3.475-0.71s-2.375 0.239-3.475 0.71c-1.107 0.475-2.071 1.118-2.864 1.91s-1.435 1.756-1.91 2.864c-0.471 1.099-0.71 2.269-0.71 3.475s0.239 2.375 0.71 3.475c0.475 1.107 1.118 2.071 1.91 2.864 0.391 0.391 0.391 1.024 0 1.414-0.195 0.195-0.451 0.293-0.707 0.293z"></path>
</svg>
