<!-- Generated by IcoMoon.io -->
<svg version="1.1" xmlns="http://www.w3.org/2000/svg" width="24" height="24" viewBox="0 0 24 24">
<title>square</title>
<path d="M4 1h16c0.828 0 1.535 0.294 2.122 0.878s0.878 1.294 0.878 2.122v16c0 0.828-0.294 1.535-0.878 2.122s-1.294 0.878-2.122 0.878h-16c-0.828 0-1.534-0.294-2.122-0.878s-0.878-1.294-0.878-2.122v-16c0-0.828 0.294-1.534 0.878-2.122s1.294-0.878 2.122-0.878zM20 3h-16c-0.275 0-0.512 0.097-0.707 0.294s-0.294 0.431-0.294 0.707v16c0 0.275 0.097 0.512 0.294 0.707s0.431 0.294 0.707 0.294h16c0.275 0 0.512-0.097 0.706-0.294s0.294-0.431 0.294-0.707v-16c0-0.275-0.097-0.512-0.294-0.707s-0.431-0.294-0.706-0.294z"></path>
</svg>
