<!-- Generated by IcoMoon.io -->
<svg version="1.1" xmlns="http://www.w3.org/2000/svg" width="24" height="24" viewBox="0 0 24 24">
<title>square-help</title>
<path d="M4 1h16c0.828 0 1.535 0.293 2.121 0.879s0.879 1.293 0.879 2.121v16c0 0.828-0.293 1.535-0.879 2.121s-1.293 0.879-2.121 0.879h-16c-0.828 0-1.535-0.293-2.121-0.879s-0.879-1.293-0.879-2.121v-16c0-0.828 0.293-1.535 0.879-2.121s1.293-0.879 2.121-0.879zM20 3h-16c-0.276 0-0.512 0.098-0.707 0.293s-0.293 0.431-0.293 0.707v16c0 0.276 0.098 0.512 0.293 0.707s0.431 0.293 0.707 0.293h16c0.276 0 0.511-0.097 0.707-0.293s0.293-0.431 0.293-0.707v-16c0-0.276-0.098-0.512-0.293-0.707s-0.431-0.293-0.707-0.293z"></path>
<path d="M14.241 6.838c-0.708-0.708-1.65-1.098-2.651-1.098-0.008 0-0.016 0-0.023 0v-0.005c-0.992 0.007-1.925 0.396-2.627 1.098-0.708 0.708-1.098 1.65-1.098 2.652 0 0.518 0.42 0.938 0.938 0.938s0.938-0.42 0.938-0.938c0-0.503 0.2-0.961 0.524-1.298 0.008-0.008 0.016-0.015 0.024-0.023 0.731-0.731 1.921-0.731 2.652 0s0.731 1.921 0 2.652c-0.354 0.354-0.825 0.549-1.326 0.549-0.518 0-0.938 0.42-0.938 0.937v2.188c0 0.518 0.42 0.938 0.938 0.938s0.938-0.42 0.938-0.938v-1.367c0.643-0.165 1.232-0.5 1.715-0.981 1.462-1.462 1.462-3.841 0-5.303z"></path>
<path d="M11.589 16.385c-0.247 0-0.488 0.1-0.663 0.275s-0.274 0.416-0.274 0.663c0 0.247 0.1 0.488 0.274 0.663s0.416 0.274 0.663 0.274c0.247 0 0.488-0.1 0.663-0.274s0.274-0.416 0.274-0.663c0-0.247-0.1-0.488-0.274-0.663s-0.416-0.275-0.663-0.275z"></path>
</svg>
