<!-- Generated by IcoMoon.io -->
<svg version="1.1" xmlns="http://www.w3.org/2000/svg" width="24" height="24" viewBox="0 0 24 24">
<title>strike</title>
<path d="M19.969 11.689c-0.086-0.086-0.19-0.129-0.311-0.129h-4.126c-0.65-0.314-1.423-0.579-2.318-0.796-1.611-0.389-2.663-0.753-3.158-1.090s-0.742-0.824-0.742-1.461c0-0.637 0.248-1.112 0.742-1.427s1.127-0.472 1.899-0.472c0.772 0 1.555 0.135 2.349 0.404s1.424 0.614 1.888 1.034l1.416-2c-0.719-0.599-1.573-1.063-2.562-1.393s-1.986-0.494-2.989-0.494c-1.558 0-2.866 0.393-3.922 1.18s-1.585 1.907-1.585 3.36c0 1.399 0.43 2.451 1.292 3.156h-3.499c-0.122 0-0.225 0.043-0.311 0.129s-0.129 0.19-0.129 0.311 0.043 0.225 0.129 0.311c0.086 0.086 0.19 0.129 0.311 0.129h4.929c0.088 0.038 0.177 0.076 0.268 0.11 0.599 0.232 1.476 0.487 2.629 0.764s1.966 0.584 2.439 0.922 0.708 0.809 0.708 1.416c0 0.607-0.251 1.094-0.753 1.461s-1.18 0.55-2.034 0.55c-1.709 0-3.357-0.689-4.945-2.068l-1.663 2c1.903 1.694 4.083 2.54 6.541 2.54 1.678 0 3.034-0.427 4.068-1.281s1.551-1.966 1.551-3.338c0-1.349-0.395-2.374-1.185-3.077h2.763c0.121 0 0.225-0.043 0.311-0.129s0.129-0.19 0.129-0.311-0.043-0.225-0.129-0.311z"></path>
</svg>
