<!-- Generated by IcoMoon.io -->
<svg version="1.1" xmlns="http://www.w3.org/2000/svg" width="24" height="24" viewBox="0 0 24 24">
<title>superior</title>
<path d="M7.612 7.142l2.482 3.811 2.569-3.811h2.896l-4.050 5.661 4.224 5.923h-3.005l-2.765-3.854-2.7 3.854h-2.852l4.115-5.901-3.898-5.683h2.983z"></path>
<path d="M19 6.112c0.155-0.22 0.232-0.431 0.232-0.636s-0.067-0.376-0.202-0.513c-0.135-0.137-0.307-0.206-0.518-0.206-0.386 0-0.752 0.275-1.097 0.825l-1.097-0.649c0.287-0.445 0.601-0.781 0.944-1.009s0.778-0.342 1.307-0.342c0.529 0 0.994 0.168 1.395 0.505s0.601 0.794 0.601 1.373c0 0.316-0.080 0.619-0.241 0.908s-0.458 0.66-0.891 1.11l-1.105 1.15h2.422v1.229h-4.326v-1.018l1.799-1.843c0.363-0.368 0.622-0.662 0.776-0.882z"></path>
</svg>
