<!-- Generated by IcoMoon.io -->
<svg version="1.1" xmlns="http://www.w3.org/2000/svg" width="24" height="24" viewBox="0 0 24 24">
<title>switch</title>
<path d="M20.906 7.187c0 0.281-0.096 0.518-0.289 0.711l-4.5 4.5c-0.193 0.193-0.43 0.289-0.711 0.289-0.287 0-0.525-0.095-0.715-0.285s-0.285-0.428-0.285-0.715c0-0.281 0.096-0.518 0.289-0.711l2.797-2.789h-13.086c-0.276 0-0.512-0.098-0.707-0.293s-0.293-0.431-0.293-0.707c0-0.276 0.098-0.512 0.293-0.707s0.431-0.293 0.707-0.293h13.086l-2.797-2.789c-0.193-0.193-0.289-0.43-0.289-0.711 0-0.287 0.095-0.525 0.285-0.715s0.428-0.285 0.715-0.285c0.281 0 0.518 0.096 0.711 0.289l4.5 4.5c0.193 0.193 0.289 0.43 0.289 0.711z"></path>
<path d="M3.094 16.813c0-0.281 0.096-0.518 0.289-0.711l4.5-4.5c0.193-0.193 0.43-0.289 0.711-0.289 0.286 0 0.525 0.095 0.715 0.285s0.285 0.428 0.285 0.715c0 0.281-0.096 0.518-0.289 0.711l-2.797 2.789h13.086c0.276 0 0.511 0.098 0.707 0.293s0.293 0.431 0.293 0.707-0.098 0.512-0.293 0.707-0.431 0.293-0.707 0.293h-13.086l2.797 2.789c0.193 0.193 0.289 0.43 0.289 0.711 0 0.287-0.095 0.525-0.285 0.715s-0.428 0.285-0.715 0.285c-0.281 0-0.518-0.096-0.711-0.289l-4.5-4.5c-0.193-0.193-0.289-0.43-0.289-0.711z"></path>
</svg>
