<!-- Generated by IcoMoon.io -->
<svg version="1.1" xmlns="http://www.w3.org/2000/svg" width="24" height="24" viewBox="0 0 24 24">
<title>symbol</title>
<path d="M6.193 6.359c1.566-1.529 3.502-2.294 5.807-2.294s4.241 0.765 5.807 2.294c1.566 1.529 2.35 3.384 2.35 5.563s-0.865 4.030-2.594 5.552h3.28v2.46h-7.403v-2.438c1.197-0.325 2.168-0.986 2.914-1.984s1.119-2.139 1.119-3.424c0-1.566-0.529-2.896-1.585-3.99s-2.353-1.64-3.89-1.64c-1.537 0-2.834 0.547-3.89 1.64s-1.585 2.423-1.585 3.99c0 1.285 0.373 2.427 1.119 3.424s1.718 1.659 2.914 1.984v2.438h-7.403v-2.46h3.281c-1.729-1.522-2.594-3.373-2.594-5.552s0.783-4.034 2.35-5.563z"></path>
</svg>
