<!-- Generated by IcoMoon.io -->
<svg version="1.1" xmlns="http://www.w3.org/2000/svg" width="24" height="24" viewBox="0 0 24 24">
<title>tag-2</title>
<path d="M1 1h11.312l9.812 9.805q0.875 0.875 0.875 2.117 0 1.25-0.875 2.125l-7.079 7.079q-0.875 0.875-2.117 0.875-1.25 0-2.125-0.875l-9.805-9.812v-11.312zM20.711 12.219l-9.227-9.219h-8.485v8.485l9.219 9.226q0.297 0.289 0.711 0.289t0.703-0.289l7.079-7.079q0.289-0.289 0.289-0.704t-0.289-0.711zM8.5 6q1.039 0 1.769 0.731t0.731 1.769-0.731 1.769-1.769 0.731-1.769-0.731-0.731-1.769 0.731-1.769 1.769-0.731zM8.5 8q-0.203 0-0.352 0.149t-0.148 0.352 0.148 0.352 0.352 0.149 0.352-0.149 0.149-0.352-0.149-0.352-0.352-0.149z"></path>
</svg>
