<!-- Generated by IcoMoon.io -->
<svg version="1.1" xmlns="http://www.w3.org/2000/svg" width="24" height="24" viewBox="0 0 24 24">
<title>thermometer</title>
<path d="M11.5 0q1.445 0 2.473 1.028t1.027 2.473v10.758q0.93 0.773 1.465 1.879t0.535 2.363q0 1.117-0.433 2.137t-1.172 1.758-1.758 1.172-2.137 0.433-2.137-0.433-1.758-1.172-1.172-1.758-0.434-2.137q0-1.258 0.535-2.363t1.465-1.879v-10.758q0-1.445 1.027-2.473t2.473-1.028zM11.5 2q-0.625 0-1.063 0.437t-0.437 1.063v11.844q-0.899 0.43-1.449 1.277t-0.551 1.879q0 1.445 1.027 2.473t2.473 1.027 2.473-1.027 1.027-2.473q0-1.031-0.55-1.879t-1.449-1.277v-11.844q0-0.625-0.437-1.063t-1.063-0.437z"></path>
</svg>
