<!-- Generated by IcoMoon.io -->
<svg version="1.1" xmlns="http://www.w3.org/2000/svg" width="24" height="24" viewBox="0 0 24 24">
<title>thumbtack</title>
<path d="M22.562 9.038l-7.6-7.6c-0.391-0.391-1.025-0.391-1.415 0s-0.391 1.025 0 1.416l0.191 0.19-6.222 5.090-0.775-0.775c-0.391-0.391-1.025-0.391-1.416 0s-0.391 1.025 0 1.415l4.244 4.243-8.132 8.128c-0.391 0.391-0.391 1.025 0 1.415 0.194 0.194 0.45 0.294 0.707 0.294s0.512-0.097 0.707-0.294l8.132-8.131 4.244 4.244c0.193 0.194 0.45 0.294 0.707 0.294s0.512-0.097 0.707-0.294c0.391-0.391 0.391-1.025 0-1.415l-0.775-0.775 5.091-6.222 0.191 0.191c0.194 0.194 0.45 0.294 0.707 0.294s0.512-0.097 0.707-0.294c0.397-0.391 0.397-1.025 0.006-1.415zM14.444 15.062l-5.506-5.506 6.222-5.090 4.379 4.378-5.094 6.219z"></path>
</svg>
