<!-- Generated by IcoMoon.io -->
<svg version="1.1" xmlns="http://www.w3.org/2000/svg" width="24" height="24" viewBox="0 0 24 24">
<title>ticket</title>
<path d="M14.045 2.272c0.154 0 0.446 0.037 0.695 0.289l0.302 0.302c-0.197 0.529-0.299 1.086-0.299 1.655 0 0.615 0.117 1.215 0.347 1.78 0.24 0.587 0.587 1.117 1.039 1.568s0.978 0.803 1.568 1.039c0.569 0.231 1.165 0.347 1.78 0.347 0.569 0 1.126-0.101 1.655-0.299l0.302 0.301c0.385 0.385 0.385 1.009 0 1.394l-10.784 10.789c-0.252 0.252-0.544 0.289-0.695 0.289-0.154 0-0.446-0.037-0.695-0.289l-0.302-0.302c0.197-0.529 0.299-1.086 0.299-1.654 0-0.615-0.117-1.215-0.347-1.78-0.24-0.587-0.587-1.117-1.040-1.568s-0.978-0.803-1.568-1.040c-0.569-0.231-1.165-0.347-1.78-0.347-0.569 0-1.126 0.101-1.655 0.298l-0.301-0.302c-0.385-0.385-0.385-1.009 0-1.393l10.78-10.79c0.252-0.249 0.544-0.289 0.698-0.289zM14.045 0.303c-0.757 0-1.51 0.289-2.089 0.864l-10.787 10.79c-1.153 1.153-1.153 3.023 0 4.177l1.393 1.393c0.542-0.541 1.249-0.812 1.956-0.812s1.418 0.271 1.956 0.812c1.079 1.079 1.079 2.833 0 3.915l1.394 1.393c0.575 0.575 1.332 0.864 2.089 0.864s1.511-0.289 2.089-0.864l10.787-10.787c1.154-1.154 1.154-3.023 0-4.177l-1.393-1.394c-0.542 0.541-1.249 0.812-1.956 0.812s-1.418-0.271-1.956-0.812c-1.079-1.079-1.079-2.833 0-3.915l-1.393-1.393c-0.578-0.578-1.335-0.867-2.089-0.867v0z"></path>
</svg>
