<!-- Generated by IcoMoon.io -->
<svg version="1.1" xmlns="http://www.w3.org/2000/svg" width="24" height="24" viewBox="0 0 24 24">
<title>underline</title>
<path d="M6.163 22.7c-0.228 0-0.423-0.081-0.584-0.242s-0.242-0.356-0.242-0.584 0.081-0.423 0.242-0.584 0.356-0.242 0.584-0.242h11.675c0.228 0 0.423 0.081 0.584 0.242s0.242 0.356 0.242 0.584-0.081 0.423-0.242 0.584-0.356 0.242-0.584 0.242h-11.675z"></path>
<path d="M18.247 4.348v8.7c0 4.212-2.585 6.369-6.166 6.369-3.419 0-6.329-2.075-6.329-6.369v-8.7h2.666v8.7c0 2.564 1.465 3.928 3.683 3.928s3.48-1.486 3.48-3.928v-8.7h2.665z"></path>
</svg>
