<!-- Generated by IcoMoon.io -->
<svg version="1.1" xmlns="http://www.w3.org/2000/svg" width="24" height="24" viewBox="0 0 24 24">
<title>what</title>
<path d="M10.172 15.169c0-1.040 0.127-1.861 0.366-2.475s0.689-1.219 1.336-1.809c0.647-0.595 1.083-1.079 1.298-1.454s0.319-0.764 0.319-1.186c0-1.242-0.558-1.875-1.673-1.875-0.529 0-0.952 0.164-1.271 0.502-0.319 0.333-0.488 0.802-0.497 1.392h-3.112c0.014-1.411 0.455-2.512 1.327-3.319s2.053-1.196 3.558-1.196c1.519 0 2.695 0.385 3.53 1.135s1.256 1.829 1.256 3.211c0 0.628-0.136 1.219-0.408 1.781-0.272 0.558-0.75 1.181-1.425 1.856l-0.872 0.858c-0.544 0.544-0.858 1.167-0.938 1.894l-0.047 0.675-2.746 0.009zM9.863 18.563c0-0.487 0.16-0.9 0.488-1.219 0.323-0.319 0.741-0.478 1.252-0.478 0.506 0 0.928 0.159 1.252 0.478s0.488 0.731 0.488 1.219c0 0.483-0.159 0.891-0.473 1.205-0.319 0.314-0.736 0.473-1.261 0.473s-0.942-0.159-1.261-0.473c-0.323-0.314-0.483-0.722-0.483-1.205z"></path>
<path d="M17.85 15.506c0.211-0.6 0.45-1.050 0.721-1.355 0.263-0.304 0.647-0.558 1.139-0.759 0.497-0.202 0.844-0.394 1.046-0.563s0.342-0.375 0.431-0.619c0.253-0.722 0.061-1.21-0.586-1.444-0.305-0.117-0.586-0.113-0.839 0.014-0.253 0.122-0.446 0.361-0.577 0.704l-1.81-0.675c0.3-0.816 0.779-1.36 1.444-1.631 0.671-0.272 1.435-0.248 2.306 0.080 0.881 0.333 1.486 0.802 1.814 1.425s0.352 1.327 0.071 2.133c-0.131 0.366-0.328 0.675-0.596 0.947-0.277 0.262-0.675 0.516-1.205 0.764l-0.679 0.305c-0.427 0.197-0.736 0.497-0.933 0.895l-0.159 0.384-1.589-0.605zM16.973 17.404c0.103-0.286 0.281-0.492 0.534-0.6 0.253-0.112 0.529-0.117 0.825-0.005s0.506 0.296 0.628 0.548c0.117 0.258 0.136 0.525 0.033 0.815-0.098 0.281-0.277 0.473-0.525 0.596-0.248 0.112-0.53 0.112-0.83 0-0.304-0.112-0.511-0.3-0.638-0.548-0.112-0.258-0.127-0.52-0.028-0.806z"></path>
<path d="M4.458 16.205c-0.211-0.6-0.309-1.106-0.296-1.509 0.014-0.408 0.15-0.853 0.403-1.341 0.253-0.492 0.403-0.858 0.45-1.12s0.028-0.516-0.052-0.759c-0.254-0.722-0.704-0.965-1.35-0.722-0.304 0.117-0.516 0.305-0.633 0.567-0.112 0.263-0.117 0.567-0.004 0.914l-1.804 0.679c-0.281-0.82-0.248-1.556 0.094-2.212 0.342-0.652 0.946-1.139 1.819-1.467 0.881-0.333 1.636-0.366 2.278-0.113 0.642 0.258 1.097 0.783 1.383 1.584 0.131 0.366 0.169 0.731 0.127 1.116s-0.192 0.844-0.446 1.383l-0.333 0.685c-0.206 0.431-0.253 0.863-0.15 1.303l0.112 0.398-1.598 0.614zM4.973 18.23c-0.104-0.286-0.089-0.558 0.033-0.815 0.127-0.258 0.333-0.44 0.629-0.548 0.295-0.112 0.572-0.108 0.825 0.005s0.431 0.314 0.535 0.6c0.098 0.281 0.089 0.548-0.033 0.802-0.117 0.253-0.333 0.44-0.638 0.548s-0.577 0.112-0.83 0c-0.244-0.108-0.422-0.31-0.52-0.591z"></path>
</svg>
