<!-- Generated by IcoMoon.io -->
<svg version="1.1" xmlns="http://www.w3.org/2000/svg" width="24" height="24" viewBox="0 0 24 24">
<title>woman</title>
<path d="M12 0.73c-4.25 0-7.707 3.458-7.707 7.707 0 1.915 0.71 3.753 2 5.174 1.267 1.396 2.985 2.276 4.845 2.483v2.425h-2.164c-0.475 0-0.861 0.386-0.861 0.861s0.386 0.861 0.861 0.861h2.165v2.165c0 0.475 0.386 0.861 0.861 0.861s0.861-0.386 0.861-0.861v-2.165h2.165c0.475 0 0.861-0.386 0.861-0.861s-0.386-0.861-0.861-0.861h-2.165v-2.425c1.86-0.207 3.578-1.087 4.846-2.483 1.29-1.421 2-3.258 2-5.174 0-4.25-3.457-7.707-7.707-7.707zM12 2.454c3.299 0 5.983 2.684 5.983 5.983s-2.684 5.983-5.983 5.983-5.983-2.684-5.983-5.983c0-3.299 2.684-5.983 5.983-5.983z"></path>
</svg>
