<svg xmlns="http://www.w3.org/2000/svg" xmlns:xlink="http://www.w3.org/1999/xlink" width="200" height="200" viewBox="0 0 200 200">
  <defs>
    <clipPath id="clip-austral-icon-design">
      <rect width="200" height="200"/>
    </clipPath>
  </defs>
  <g id="austral-icon-design" clip-path="url(#clip-austral-icon-design)">
    <g id="Groupe_58" data-name="Groupe 58">
      <rect id="BG" width="200" height="200" fill="none"/>
      <rect id="Shadow" width="150" height="150" rx="75" transform="translate(39 39)" fill="#fad7d7"/>
      <g id="Icon" transform="translate(-12.5 -33)">
        <rect id="Rectangle_1" data-name="Rectangle 1" width="150" height="150" rx="75" transform="translate(37.5 58)" fill="#fff"/>
        <rect id="Rectangle_59" data-name="Rectangle 59" width="130" height="130" rx="65" transform="translate(47.5 68)" fill="#e63a2e"/>
        <path id="Union_7" data-name="Union 7" d="M-707.5-370.9V-383A13.5,13.5,0,0,1-694-396.5h1V-422a5,5,0,0,1,5-5h30a5,5,0,0,1,5,5v25.5h1A13.5,13.5,0,0,1-638.5-383v12.1A64.694,64.694,0,0,1-673-361,64.683,64.683,0,0,1-707.5-370.9Z" transform="translate(785.5 559)" fill="#fad7d7"/>
        <path id="Tracé_59" data-name="Tracé 59" d="M602.535-52H573.816l8.658-35.522a5.869,5.869,0,0,1,5.7-4.478h0a5.869,5.869,0,0,1,5.7,4.478Z" transform="translate(-475.5 184)" fill="#fff"/>
      </g>
    </g>
  </g>
</svg>
