<svg xmlns="http://www.w3.org/2000/svg" xmlns:xlink="http://www.w3.org/1999/xlink" width="200" height="200" viewBox="0 0 200 200">
  <defs>
    <clipPath id="clip-austral-icon-security">
      <rect width="200" height="200"/>
    </clipPath>
  </defs>
  <g id="austral-icon-security" clip-path="url(#clip-austral-icon-security)">
    <g id="Groupe_78" data-name="Groupe 78">
      <g id="Groupe_34" data-name="Groupe 34">
        <rect id="BG" width="200" height="200" fill="none"/>
      </g>
      <g id="Groupe_77" data-name="Groupe 77" transform="translate(-5.425 -14.331)">
        <g id="Groupe_79" data-name="Groupe 79" transform="translate(14 14)">
          <path id="Union_8" data-name="Union 8" d="M65.426,162.466c-.359.131-.549.2-.549.2v-.4C56.274,159.011.031,135.435.031,74.736c0-57.3-.052-56.261-.021-55.225a1.03,1.03,0,0,0,.021.272c33.977,0,59.375-15.431,64.845-19.036V0s.186.134.549.38c.363-.246.549-.38.549-.38V.747c5.47,3.605,30.868,19.036,64.844,19.036a1.133,1.133,0,0,0,.02-.272c.033-1.037-.02-2.073-.02,55.225,0,60.7-56.236,84.272-64.844,87.526v.4S65.785,162.6,65.426,162.466Z" transform="translate(40 26)" fill="#fad7d7"/>
        </g>
        <g id="Union_8-2" data-name="Union 8" transform="translate(40 26)" fill="#e63a2e">
          <path d="M 65.42555999755859 157.1090850830078 C 63.05527496337891 156.1568450927734 58.75684356689453 154.2876434326172 53.55058670043945 151.3836822509766 C 45.82281112670898 147.0732574462891 38.77668762207031 142.0178070068359 32.60796356201172 136.3578338623047 C 24.44828796386719 128.8710479736328 17.99386215209961 120.4482040405273 13.42396259307861 111.3232040405273 C 10.76858711242676 106.0210037231445 8.716787338256836 100.4015502929688 7.325612545013428 94.62088012695312 C 5.802987575531006 88.29393005371094 5.030937671661377 81.60367584228516 5.030937671661377 74.73595428466797 C 5.030937671661377 45.22500228881836 5.017107963562012 31.22944831848145 5.007911205291748 24.6771125793457 C 11.56532955169678 24.39861297607422 18.18252944946289 23.57271385192871 24.7435131072998 22.21155166625977 C 31.53403663635254 20.80280303955078 38.32493591308594 18.80985260009766 44.92758560180664 16.28807830810547 C 54.35651779174805 12.68686389923096 61.42465591430664 8.76426887512207 65.34681701660156 6.366764545440674 L 65.42596435546875 6.420402526855469 L 65.50491333007812 6.366888046264648 C 69.42704010009766 8.764400482177734 76.49488830566406 12.68684387207031 85.92373657226562 16.28807830810547 C 92.52631378173828 18.80982780456543 99.317138671875 20.80277824401855 106.107536315918 22.21155166625977 C 112.6679000854492 23.57260894775391 119.2857437133789 24.39854049682617 125.8425216674805 24.67710113525391 C 125.83349609375 31.22002029418945 125.8196105957031 45.27581405639648 125.8196105957031 74.73595428466797 C 125.8196105957031 81.60325622558594 125.0476608276367 88.29312896728516 123.5251846313477 94.61972808837891 C 122.134162902832 100.4001007080078 120.0825881958008 106.0193252563477 117.4274597167969 111.3213043212891 C 112.8579864501953 120.4460525512695 106.4040908813477 128.8687744140625 98.24504089355469 136.3554992675781 C 92.07658386230469 142.0156707763672 85.0306396484375 147.0713500976562 77.30298614501953 151.3820953369141 C 72.09580993652344 154.2868194580078 67.7962646484375 156.1566009521484 65.42555999755859 157.1090850830078 Z" stroke="none"/>
          <path d="M 65.42548370361328 151.7054138183594 C 79.55022430419922 145.6999053955078 120.8196029663086 123.9306640625 120.8196029663086 74.73596954345703 L 120.8435516357422 29.38276290893555 C 95.23711395263672 27.33031272888184 75.35646820068359 17.86427307128906 65.42575836181641 12.13970851898193 C 55.49515151977539 17.86426544189453 35.61545944213867 27.33058929443359 10.00662708282471 29.38590812683105 L 10.03091907501221 74.73596954345703 C 10.03091907501221 123.9323577880859 51.30054092407227 145.7003631591797 65.42548370361328 151.7054138183594 M 65.97523498535156 162.6612548828125 C 65.97523498535156 162.6612548828125 65.78498077392578 162.5972900390625 65.42572784423828 162.4661865234375 C 65.06651306152344 162.5972900390625 64.87629699707031 162.6612548828125 64.87629699707031 162.6612548828125 L 64.87629699707031 162.2619781494141 C 56.27360534667969 159.0110015869141 0.03091870062053204 135.43505859375 0.03091870062053204 74.73596954345703 C 0.03091870062053204 17.43787384033203 -0.0214875303208828 18.47450256347656 0.01016870141029358 19.5110969543457 C 0.01510620024055243 19.66343879699707 0.02201244793832302 19.81578063964844 0.03091870062053204 19.78318977355957 C 34.0080451965332 19.78318977355957 59.40585708618164 4.352408885955811 64.87629699707031 0.7471899390220642 L 64.87629699707031 2.441406195430318e-06 C 64.87629699707031 2.441406195430318e-06 65.06244659423828 0.1340336948633194 65.42576599121094 0.3802524507045746 C 65.78904724121094 0.1340336948633194 65.97523498535156 2.441406195430318e-06 65.97523498535156 2.441406195430318e-06 L 65.97523498535156 0.7471899390220642 C 71.44564056396484 4.352408885955811 96.84335327148438 19.78318977355957 130.8196105957031 19.78318977355957 C 130.8275146484375 19.81558609008789 130.8344421386719 19.66353034973145 130.8393859863281 19.5110969543457 C 130.8721466064453 18.47091484069824 130.8196105957031 17.46823501586914 130.8196105957031 74.73596954345703 C 130.8196105957031 135.43115234375 74.58351135253906 159.0084381103516 65.97523498535156 162.2618408203125 L 65.97523498535156 162.6612548828125 Z" stroke="none" fill="#fff"/>
        </g>
        <g id="Groupe_76" data-name="Groupe 76" transform="translate(74.53 103.331) rotate(-45)">
          <rect id="Rectangle_60" data-name="Rectangle 60" width="8.33" height="36.096" rx="4.165" transform="translate(0 0)" fill="#fff"/>
          <path id="Tracé_84" data-name="Tracé 84" d="M4.165,0A4.165,4.165,0,0,1,8.33,4.165V48.59a4.165,4.165,0,0,1-8.33,0V4.165A4.165,4.165,0,0,1,4.165,0Z" transform="translate(52.755 27.766) rotate(90)" fill="#fff"/>
        </g>
      </g>
    </g>
  </g>
</svg>
