<svg xmlns="http://www.w3.org/2000/svg" width="70" height="70" viewBox="0 0 70 70">
  <g id="img-image-upload" transform="translate(-164 -575)">
    <rect id="bg" width="70" height="70" transform="translate(164 575)" fill="none"/>
    <g id="polaroids" transform="translate(166.5 585.275)" opacity="0.548">
      <g id="polaroids-back" transform="translate(0 11.837) rotate(-20)">
        <path id="Tracé_17" data-name="Tracé 17" d="M.008,33.906a1.17,1.17,0,0,0,.979,1.281l26.9,3.24a1.519,1.519,0,0,0,.829-.226,1.281,1.281,0,0,0,.452-.753L33.16,4.521a1.17,1.17,0,0,0-.979-1.281L5.282,0a1.519,1.519,0,0,0-.829.226A1.281,1.281,0,0,0,4,.979Z" transform="translate(0.689 0.773)" fill="#fff"/>
        <g id="Groupe_51" data-name="Groupe 51" transform="translate(0)">
          <g id="Groupe_47" data-name="Groupe 47">
            <path id="Tracé_7" data-name="Tracé 7" d="M28.8,40.028h-.226l-26.9-3.24A1.95,1.95,0,0,1,.4,36.11a1.8,1.8,0,0,1-.377-1.356h0L4.013,1.677A1.95,1.95,0,0,1,4.691.4,1.8,1.8,0,0,1,6.047.019l26.9,3.24A1.929,1.929,0,0,1,34.6,5.369L30.61,38.295A1.872,1.872,0,0,1,28.8,40.028ZM.7,34.678a1.17,1.17,0,0,0,.979,1.281l26.9,3.24a1.519,1.519,0,0,0,.829-.226,1.281,1.281,0,0,0,.452-.753L33.849,5.293a1.17,1.17,0,0,0-.979-1.281L5.972.773A1.519,1.519,0,0,0,5.143,1a1.281,1.281,0,0,0-.452.753Z"/>
          </g>
          <g id="Groupe_48" data-name="Groupe 48" transform="translate(3.1 2.422)">
            <path id="Tracé_8" data-name="Tracé 8" d="M25.1,29.167h-.151L.988,26.229a1.17,1.17,0,0,1-.979-1.281L2.947.988A1.127,1.127,0,0,1,4.228.008l23.96,2.938a.829.829,0,0,1,.753.452,1.079,1.079,0,0,1,.226.829l-2.938,23.96a.829.829,0,0,1-.452.753A1.215,1.215,0,0,1,25.1,29.167ZM4.077.837c-.151,0-.377.151-.377.3L.762,25.1a.453.453,0,0,0,.075.3c.075.075.151.151.226.151l23.96,2.938a.453.453,0,0,0,.3-.075c.075-.075.151-.151.151-.226l2.938-23.96a.453.453,0,0,0-.075-.3c-.075-.075-.151-.151-.226-.151L4.077.837Z" transform="translate(0)"/>
          </g>
          <g id="Groupe_49" data-name="Groupe 49" transform="translate(3.1 15.691)">
            <path id="Tracé_9" data-name="Tracé 9" d="M25.1,15.9h-.151L.988,12.959a1.17,1.17,0,0,1-.979-1.281l.3-2.486L9.125,2.336,12.44,6.555,20.8,0l6.254,7.987-.829,7.007a.829.829,0,0,1-.452.753A2.2,2.2,0,0,1,25.1,15.9ZM1.063,9.644l-.3,2.185a.453.453,0,0,0,.075.3c.075.075.151.151.226.151l23.96,2.938a.453.453,0,0,0,.3-.075c.075-.075.151-.151.151-.226L26.3,8.213,20.728,1.055,12.365,7.61,9.05,3.391Z" transform="translate(0)"/>
          </g>
          <g id="Groupe_50" data-name="Groupe 50" transform="translate(10.553 7.765)">
            <path id="Tracé_10" data-name="Tracé 10" d="M2.651,5.289h-.3A2.689,2.689,0,0,1,.014,2.35,2.689,2.689,0,0,1,2.953.014,2.689,2.689,0,0,1,5.289,2.953h0a2.539,2.539,0,0,1-.979,1.733A2.987,2.987,0,0,1,2.651,5.289ZM2.576.768A1.932,1.932,0,0,0,.692,2.425,1.875,1.875,0,0,0,2.35,4.535a1.712,1.712,0,0,0,1.356-.377,1.678,1.678,0,0,0,.678-1.281h0A1.875,1.875,0,0,0,2.727.768Z" transform="translate(0 0)"/>
          </g>
        </g>
        <g id="Groupe_58" data-name="Groupe 58" transform="translate(0)">
          <path id="Tracé_16" data-name="Tracé 16" d="M28.8,40.028h-.226l-26.9-3.24A1.95,1.95,0,0,1,.4,36.11a1.8,1.8,0,0,1-.377-1.356h0L4.013,1.677A1.95,1.95,0,0,1,4.691.4,1.8,1.8,0,0,1,6.047.019l26.9,3.24A1.929,1.929,0,0,1,34.6,5.369L30.61,38.295A1.872,1.872,0,0,1,28.8,40.028ZM.7,34.678a1.17,1.17,0,0,0,.979,1.281l26.9,3.24a1.519,1.519,0,0,0,.829-.226,1.281,1.281,0,0,0,.452-.753L33.849,5.293a1.17,1.17,0,0,0-.979-1.281L5.972.773A1.519,1.519,0,0,0,5.143,1a1.281,1.281,0,0,0-.452.753Z"/>
        </g>
      </g>
      <g id="polaroids-front" transform="translate(26.391 8.479)">
        <path id="Tracé_17-2" data-name="Tracé 17" d="M.008,33.906a1.17,1.17,0,0,0,.979,1.281l26.9,3.24a1.519,1.519,0,0,0,.829-.226,1.281,1.281,0,0,0,.452-.753L33.16,4.521a1.17,1.17,0,0,0-.979-1.281L5.282,0a1.519,1.519,0,0,0-.829.226A1.281,1.281,0,0,0,4,.979Z" transform="translate(0.689 0.773)" fill="#fff"/>
        <g id="Groupe_51-2" data-name="Groupe 51">
          <g id="Groupe_47-2" data-name="Groupe 47">
            <path id="Tracé_7-2" data-name="Tracé 7" d="M66.576,45.8H66.35l-26.9-3.24a1.95,1.95,0,0,1-1.281-.678,1.8,1.8,0,0,1-.377-1.356h0L41.787,7.451a1.95,1.95,0,0,1,.678-1.281,1.8,1.8,0,0,1,1.356-.377l26.9,3.24a1.929,1.929,0,0,1,1.658,2.11L68.384,44.069A1.872,1.872,0,0,1,66.576,45.8Zm-28.1-5.35a1.17,1.17,0,0,0,.979,1.281l26.9,3.24a1.519,1.519,0,0,0,.829-.226,1.281,1.281,0,0,0,.452-.753l3.993-32.926a1.17,1.17,0,0,0-.979-1.281l-26.9-3.24a1.519,1.519,0,0,0-.829.226,1.281,1.281,0,0,0-.452.753Z" transform="translate(-37.775 -5.775)"/>
          </g>
          <g id="Groupe_48-2" data-name="Groupe 48" transform="translate(3.1 2.422)">
            <path id="Tracé_8-2" data-name="Tracé 8" d="M66.987,38.156h-.151l-23.96-2.938a1.17,1.17,0,0,1-.979-1.281l2.938-23.96A1.127,1.127,0,0,1,46.117,9l23.96,2.938a.829.829,0,0,1,.753.452,1.079,1.079,0,0,1,.226.829l-2.938,23.96a.829.829,0,0,1-.452.753A1.215,1.215,0,0,1,66.987,38.156ZM45.966,9.826c-.151,0-.377.151-.377.3l-2.938,23.96a.453.453,0,0,0,.075.3c.075.075.151.151.226.151l23.96,2.938a.453.453,0,0,0,.3-.075c.075-.075.151-.151.151-.226L70.3,13.217a.453.453,0,0,0-.075-.3c-.075-.075-.151-.151-.226-.151L45.966,9.826Z" transform="translate(-41.889 -8.989)"/>
          </g>
          <g id="Groupe_49-2" data-name="Groupe 49" transform="translate(3.1 15.691)">
            <path id="Tracé_9-2" data-name="Tracé 9" d="M66.987,42.5h-.151l-23.96-2.938a1.17,1.17,0,0,1-.979-1.281l.3-2.486,8.815-6.856,3.315,4.219L62.693,26.6l6.254,7.987-.829,7.007a.829.829,0,0,1-.452.753A2.2,2.2,0,0,1,66.987,42.5ZM42.952,36.244l-.3,2.185a.453.453,0,0,0,.075.3c.075.075.151.151.226.151l23.96,2.938a.453.453,0,0,0,.3-.075c.075-.075.151-.151.151-.226l.829-6.706-5.576-7.158L54.254,34.21l-3.315-4.219Z" transform="translate(-41.889 -26.6)"/>
          </g>
          <g id="Groupe_50-2" data-name="Groupe 50" transform="translate(10.553 7.765)">
            <path id="Tracé_10-2" data-name="Tracé 10" d="M54.432,21.37h-.3a2.654,2.654,0,1,1,2.938-2.336h0a2.539,2.539,0,0,1-.979,1.733A2.987,2.987,0,0,1,54.432,21.37Zm-.075-4.521a1.932,1.932,0,0,0-1.884,1.658,1.875,1.875,0,0,0,1.658,2.11,1.712,1.712,0,0,0,1.356-.377,1.678,1.678,0,0,0,.678-1.281h0a1.875,1.875,0,0,0-1.658-2.11Z" transform="translate(-51.781 -16.081)"/>
          </g>
        </g>
        <g id="Groupe_58-2" data-name="Groupe 58">
          <path id="Tracé_16-2" data-name="Tracé 16" d="M66.576,45.8H66.35l-26.9-3.24a1.95,1.95,0,0,1-1.281-.678,1.8,1.8,0,0,1-.377-1.356h0L41.787,7.451a1.95,1.95,0,0,1,.678-1.281,1.8,1.8,0,0,1,1.356-.377l26.9,3.24a1.929,1.929,0,0,1,1.658,2.11L68.384,44.069A1.872,1.872,0,0,1,66.576,45.8Zm-28.1-5.35a1.17,1.17,0,0,0,.979,1.281l26.9,3.24a1.519,1.519,0,0,0,.829-.226,1.281,1.281,0,0,0,.452-.753l3.993-32.926a1.17,1.17,0,0,0-.979-1.281l-26.9-3.24a1.519,1.519,0,0,0-.829.226,1.281,1.281,0,0,0-.452.753Z" transform="translate(-37.775 -5.775)"/>
        </g>
      </g>
    </g>
  </g>
</svg>
