<svg id="ehC0l5DAdyj1" xmlns="http://www.w3.org/2000/svg" xmlns:xlink="http://www.w3.org/1999/xlink" viewBox="0 0 80 60"
     shape-rendering="geometricPrecision" text-rendering="geometricPrecision" width="80" height="60">
    <style>
        <![CDATA[
            #ehC0l5DAdyj1 #ehC0l5DAdyj2_to,
            #ehC0l5DAdyj1 #ehC0l5DAdyj2_tr,
            #ehC0l5DAdyj1 #ehC0l5DAdyj15_to,
            #ehC0l5DAdyj1 #ehC0l5DAdyj15_tr {
                transition: all 300ms cubic-bezier(0.25, 0.46, 0.45, 0.94);
            }
            #ehC0l5DAdyj1 #ehC0l5DAdyj2_to {
                transform: translate(0px,11.837px);
            }
            #ehC0l5DAdyj1:hover #ehC0l5DAdyj2_to {
                transform: translate(-9.162035px,13.204706px);
            }
            #ehC0l5DAdyj1 #ehC0l5DAdyj2_tr {
                transform: rotate(-19.999985deg);
            }
            #ehC0l5DAdyj1:hover #ehC0l5DAdyj2_tr {
                transform: rotate(-29deg);
            }
            #ehC0l5DAdyj1 #ehC0l5DAdyj15_to {
                transform: translate(26.391px,8.479px);
            }
            #ehC0l5DAdyj1:hover #ehC0l5DAdyj15_to {
                transform: translate(32.391px,-0.521px);
            }
            #ehC0l5DAdyj1 #ehC0l5DAdyj15_tr {
                transform: rotate(0deg);
            }
            #ehC0l5DAdyj1:hover #ehC0l5DAdyj15_tr {
                transform: rotate(5deg);
            }
        ]]>
    </style>
    <g id="ehC0l5DAdyj2_to" transform="translate(0,11.837)">
        <g id="ehC0l5DAdyj2_tr" transform="rotate(-19.999985)">
            <g id="ehC0l5DAdyj2" transform="translate(4.123159,-2.083129)">
                <path id="ehC0l5DAdyj3"
                      d="M4.6,45.2C4.5,45.8,5,46.4,5.6,46.5L32.5,49.7C32.8,49.7,33.1,49.6,33.3,49.5C33.5,49.3,33.7,49,33.8,48.7L37.8,15.8C37.9,15.2,37.4,14.6,36.8,14.5L9.9,11.3C9.6,11.3,9.3,11.4,9.1,11.5C8.9,11.7,8.7,12,8.6,12.3L4.6,45.2Z"
                      fill="rgb(255,255,255)" stroke="none" stroke-width="1"/>
                <g id="ehC0l5DAdyj4">
                    <g id="ehC0l5DAdyj5">
                        <path id="ehC0l5DAdyj6"
                              d="M32.7,50.5L32.5,50.5L5.6,47.3C5.1,47.2,4.6,47,4.3,46.6C4,46.2,3.9,45.7,3.9,45.2L3.9,45.2L7.9,12.1C8,11.6,8.2,11.1,8.6,10.8C9,10.5,9.5,10.4,10,10.4L36.9,13.6C37.9,13.7,38.7,14.7,38.6,15.7L34.6,48.6C34.4,49.8,33.6,50.5,32.7,50.5ZM4.6,45.2C4.5,45.8,5,46.4,5.6,46.5L32.5,49.7C32.8,49.7,33.1,49.6,33.3,49.5C33.5,49.3,33.7,49,33.8,48.7L37.8,15.8C37.9,15.2,37.4,14.6,36.8,14.5L9.9,11.3C9.6,11.3,9.3,11.4,9.1,11.5C8.9,11.7,8.7,12,8.6,12.3L4.6,45.2Z"
                              fill="rgb(0,0,0)" stroke="none" stroke-width="1"/>
                    </g>
                    <g id="ehC0l5DAdyj7" transform="matrix(1 0 0 1 3.1 2.422)">
                        <path id="ehC0l5DAdyj8"
                              d="M29,39.7L28.8,39.7L4.8,36.8C4.2,36.7,3.8,36.1,3.8,35.5L6.7,11.5C6.8,10.9,7.3,10.4,8,10.5C8,10.5,8,10.5,8,10.5L32,13.4C32.3,13.4,32.6,13.6,32.8,13.9C33,14.1,33.1,14.4,33,14.7L30.1,38.7C30.1,39,29.9,39.3,29.6,39.5C29.5,39.6,29.2,39.7,29,39.7ZM8,11.3C7.8,11.3,7.6,11.5,7.6,11.6L4.7,35.6C4.7,35.7,4.7,35.8,4.8,35.9C4.9,36,5,36.1,5,36.1L29,39C29.1,39,29.2,39,29.3,38.9C29.4,38.8,29.5,38.7,29.5,38.7L32.4,14.7C32.4,14.6,32.4,14.5,32.3,14.4C32.2,14.3,32.1,14.2,32.1,14.2L8,11.3Z"
                              fill="rgb(0,0,0)" stroke="none" stroke-width="1"/>
                    </g>
                    <g id="ehC0l5DAdyj9" transform="matrix(1 0 0 1 3.1 15.691)">
                        <path id="ehC0l5DAdyj10"
                              d="M29,26.4L28.8,26.4L4.8,23.5C4.2,23.4,3.8,22.8,3.8,22.2L4.1,19.7L12.9,12.8L16.2,17L24.6,10.4L30.9,18.4L30.1,25.4C30.1,25.7,29.9,26,29.6,26.2C29.4,26.3,29.2,26.4,29,26.4ZM4.9,20.1L4.6,22.3C4.6,22.4,4.6,22.5,4.7,22.6C4.8,22.7,4.9,22.8,4.9,22.8L28.9,25.7C29,25.7,29.1,25.7,29.2,25.6C29.3,25.5,29.4,25.4,29.4,25.4L30.2,18.7L24.6,11.5L16.2,18.1L12.9,13.9L4.9,20.1Z"
                              fill="rgb(0,0,0)" stroke="none" stroke-width="1"/>
                    </g>
                    <g id="ehC0l5DAdyj11" transform="matrix(1 0 0 1 10.553 7.765)">
                        <path id="ehC0l5DAdyj12"
                              d="M6.5,15.8L6.2,15.8C4.8,15.6,3.7,14.3,3.9,12.9C4.1,11.5,5.4,10.4,6.8,10.6C8.2,10.8,9.3,12.1,9.1,13.5L9.1,13.5C9,14.2,8.7,14.8,8.1,15.2C7.7,15.6,7.1,15.8,6.5,15.8ZM6.5,11.3C5.5,11.3,4.8,12,4.6,13C4.5,14,5.2,15,6.2,15.1C6.2,15.1,6.2,15.1,6.2,15.1C6.7,15.2,7.2,15,7.6,14.7C8,14.4,8.3,13.9,8.3,13.4L8.3,13.4C8.4,12.4,7.7,11.4,6.7,11.3C6.7,11.3,6.7,11.3,6.7,11.3L6.5,11.3Z"
                              fill="rgb(0,0,0)" stroke="none" stroke-width="1"/>
                    </g>
                </g>
                <g id="ehC0l5DAdyj13">
                    <path id="ehC0l5DAdyj14"
                          d="M32.7,50.5L32.5,50.5L5.6,47.3C5.1,47.2,4.6,47,4.3,46.6C4,46.2,3.9,45.7,3.9,45.2L3.9,45.2L7.9,12.1C8,11.6,8.2,11.1,8.6,10.8C9,10.5,9.5,10.4,10,10.4L36.9,13.6C37.9,13.7,38.7,14.7,38.6,15.7L34.6,48.6C34.4,49.8,33.6,50.5,32.7,50.5ZM4.6,45.2C4.5,45.8,5,46.4,5.6,46.5L32.5,49.7C32.8,49.7,33.1,49.6,33.3,49.5C33.5,49.3,33.7,49,33.8,48.7L37.8,15.8C37.9,15.2,37.4,14.6,36.8,14.5L9.9,11.3C9.6,11.3,9.3,11.4,9.1,11.5C8.9,11.7,8.7,12,8.6,12.3L4.6,45.2Z"
                          fill="rgb(0,0,0)" stroke="none" stroke-width="1"/>
                </g>
            </g>
        </g>
    </g>
    <g id="ehC0l5DAdyj15_to" transform="translate(26.391,8.479)">
        <g id="ehC0l5DAdyj15_tr" transform="rotate(0)">
            <g id="ehC0l5DAdyj15" transform="translate(0,0)">
                <path id="ehC0l5DAdyj16"
                      d="M7.9,43.2C7.8,43.8,8.3,44.4,8.9,44.5L35.8,47.7C36.1,47.7,36.4,47.6,36.6,47.5C36.8,47.3,37,47,37.1,46.7L41.1,13.8C41.2,13.2,40.7,12.6,40.1,12.5L13.2,9.3C12.9,9.3,12.6,9.4,12.4,9.5C12.2,9.7,12,10,11.9,10.3L7.9,43.2Z"
                      fill="rgb(255,255,255)" stroke="none" stroke-width="1"/>
                <g id="ehC0l5DAdyj17">
                    <g id="ehC0l5DAdyj18">
                        <path id="ehC0l5DAdyj19"
                              d="M36,48.6L35.8,48.6L8.9,45.3C8.4,45.2,7.9,45,7.6,44.6C7.3,44.2,7.2,43.7,7.2,43.2L7.2,43.2L11.2,10.1C11.3,9.6,11.5,9.1,11.9,8.8C12.3,8.5,12.8,8.4,13.3,8.4L40.2,11.6C41.2,11.7,42,12.7,41.9,13.7L37.9,46.6C37.8,47.8,37,48.5,36,48.6ZM7.9,43.2C7.8,43.8,8.3,44.4,8.9,44.5L35.8,47.7C36.1,47.7,36.4,47.6,36.6,47.5C36.8,47.3,37,47,37.1,46.7L41.1,13.8C41.2,13.2,40.7,12.6,40.1,12.5L13.2,9.3C12.9,9.3,12.6,9.4,12.4,9.5C12.2,9.7,12,10,11.9,10.3L7.9,43.2Z"
                              fill="rgb(0,0,0)" stroke="none" stroke-width="1"/>
                    </g>
                    <g id="ehC0l5DAdyj20" transform="matrix(1 0 0 1 3.1 2.422)">
                        <path id="ehC0l5DAdyj21"
                              d="M32.3,37.7L32.1,37.7L8.1,34.8C7.5,34.7,7.1,34.1,7.1,33.5L10,9.5C10.1,8.9,10.6,8.4,11.3,8.5C11.3,8.5,11.3,8.5,11.3,8.5L35.3,11.4C35.6,11.4,35.9,11.6,36.1,11.9C36.3,12.1,36.4,12.4,36.3,12.7L33.4,36.7C33.4,37,33.2,37.3,32.9,37.5C32.8,37.6,32.6,37.7,32.3,37.7ZM11.3,9.4C11.1,9.4,10.9,9.6,10.9,9.7L8,33.6C8,33.7,8,33.8,8.1,33.9C8.2,34,8.3,34.1,8.3,34.1L32.3,37C32.4,37,32.5,37,32.6,36.9C32.7,36.8,32.8,36.7,32.8,36.7L35.7,12.7C35.7,12.6,35.7,12.5,35.6,12.4C35.5,12.3,35.4,12.2,35.4,12.2L11.3,9.4Z"
                              fill="rgb(0,0,0)" stroke="none" stroke-width="1"/>
                    </g>
                    <g id="ehC0l5DAdyj22" transform="matrix(1 0 0 1 3.1 15.691)">
                        <path id="ehC0l5DAdyj23"
                              d="M32.3,24.4L32.1,24.4L8.1,21.5C7.5,21.4,7.1,20.8,7.1,20.2L7.4,17.7L16.2,10.8L19.5,15L28,8.5L34.3,16.5L33.5,23.5C33.5,23.8,33.3,24.1,33,24.3C32.8,24.4,32.6,24.4,32.3,24.4ZM8.3,18.2L8,20.4C8,20.5,8,20.6,8.1,20.7C8.2,20.8,8.3,20.9,8.3,20.9L32.3,23.8C32.4,23.8,32.5,23.8,32.6,23.7C32.7,23.6,32.8,23.5,32.8,23.5L33.6,16.8L28,9.6L19.6,16.2L16.3,12L8.3,18.2Z"
                              fill="rgb(0,0,0)" stroke="none" stroke-width="1"/>
                    </g>
                    <g id="ehC0l5DAdyj24" transform="matrix(1 0 0 1 10.553 7.765)">
                        <path id="ehC0l5DAdyj25"
                              d="M9.9,13.8L9.6,13.8C8.1,13.6,7.1,12.3,7.3,10.9C7.5,9.4,8.8,8.4,10.2,8.6C11.7,8.8,12.7,10.1,12.5,11.5L12.5,11.5C12.4,12.2,12.1,12.8,11.5,13.2C11.1,13.6,10.5,13.8,9.9,13.8ZM9.8,9.3C8.8,9.3,8.1,10,7.9,11C7.8,12,8.5,13,9.5,13.1C9.5,13.1,9.5,13.1,9.5,13.1C10,13.2,10.5,13,10.9,12.7C11.3,12.4,11.6,11.9,11.6,11.4L11.6,11.4C11.7,10.4,11,9.4,10,9.3C10,9.3,10,9.3,10,9.3L9.8,9.3Z"
                              fill="rgb(0,0,0)" stroke="none" stroke-width="1"/>
                    </g>
                </g>
                <g id="ehC0l5DAdyj26">
                    <path id="ehC0l5DAdyj27"
                          d="M36,48.6L35.8,48.6L8.9,45.3C8.4,45.2,7.9,45,7.6,44.6C7.3,44.2,7.2,43.7,7.2,43.2L7.2,43.2L11.2,10.1C11.3,9.6,11.5,9.1,11.9,8.8C12.3,8.5,12.8,8.4,13.3,8.4L40.2,11.6C41.2,11.7,42,12.7,41.9,13.7L37.9,46.6C37.8,47.8,37,48.5,36,48.6ZM7.9,43.2C7.8,43.8,8.3,44.4,8.9,44.5L35.8,47.7C36.1,47.7,36.4,47.6,36.6,47.5C36.8,47.3,37,47,37.1,46.7L41.1,13.8C41.2,13.2,40.7,12.6,40.1,12.5L13.2,9.3C12.9,9.3,12.6,9.4,12.4,9.5C12.2,9.7,12,10,11.9,10.3L7.9,43.2Z"
                          fill="rgb(0,0,0)" stroke="none" stroke-width="1"/>
                </g>
            </g>
        </g>
    </g>
</svg>