<svg xmlns="http://www.w3.org/2000/svg" xmlns:xlink="http://www.w3.org/1999/xlink" width="200" height="200" viewBox="0 0 200 200">
  <defs>
    <linearGradient id="linear-gradient" x1="1" y1="1" x2="0" y2="-0.211" gradientUnits="objectBoundingBox">
      <stop offset="0" stop-color="#e9edf3"/>
      <stop offset="1" stop-color="#fff"/>
    </linearGradient>
    <clipPath id="clip-austral-icon-calandar">
      <rect width="200" height="200"/>
    </clipPath>
  </defs>
  <g id="austral-icon-calandar" clip-path="url(#clip-austral-icon-calandar)">
    <g id="Groupe_41" data-name="Groupe 41">
      <rect id="BG" width="200" height="200" fill="none"/>
      <path id="Shadow" d="M147.4,30H52.6A32.691,32.691,0,0,0,20,62.6V137.4A32.692,32.692,0,0,0,52.6,170H147.4A32.692,32.692,0,0,0,180,137.4V62.6A32.691,32.691,0,0,0,147.4,30Z" transform="translate(214 214) rotate(180)" fill="#d4dbe6"/>
      <g id="Icon">
        <path id="Tracé_34" data-name="Tracé 34" d="M147.4,30H52.6A32.691,32.691,0,0,0,20,62.6V137.4A32.692,32.692,0,0,0,52.6,170H147.4A32.692,32.692,0,0,0,180,137.4V62.6A32.691,32.691,0,0,0,147.4,30Zm-8.015,12.857H60.611A25.686,25.686,0,0,0,35,68.468v63.064a25.686,25.686,0,0,0,25.611,25.611h78.778A25.686,25.686,0,0,0,165,131.532V68.468A25.686,25.686,0,0,0,139.389,42.857Z" fill="#fff"/>
        <rect id="Rectangle_23" data-name="Rectangle 23" width="14" height="44" rx="7" transform="translate(57 11)" fill="#436ca8"/>
        <rect id="Rectangle_24" data-name="Rectangle 24" width="14" height="44" rx="7" transform="translate(128 11)" fill="#436ca8"/>
        <path id="Union_1" data-name="Union 1" d="M-370,103a15,15,0,0,1,15-15,15,15,0,0,1,15,15,15,15,0,0,1-15,15A15,15,0,0,1-370,103Zm-36.667,0a15,15,0,0,1,15-15,15,15,0,0,1,15,15,15,15,0,0,1-15,15A15,15,0,0,1-406.667,103Zm-36.667,0a15,15,0,0,1,15-15,15,15,0,0,1,15,15,15,15,0,0,1-15,15A15,15,0,0,1-443.334,103ZM-480,103a15,15,0,0,1,15-15,15,15,0,0,1,15,15,15,15,0,0,1-15,15A15,15,0,0,1-480,103Zm110-34a15,15,0,0,1,15-15,15,15,0,0,1,15,15,15,15,0,0,1-15,15A15,15,0,0,1-370,69Zm-36.667,0a15,15,0,0,1,15-15,15,15,0,0,1,15,15,15,15,0,0,1-15,15A15,15,0,0,1-406.667,69Zm-36.667,0a15,15,0,0,1,15-15,15,15,0,0,1,15,15,15,15,0,0,1-15,15A15,15,0,0,1-443.334,69ZM-480,69a15,15,0,0,1,15-15,15,15,0,0,1,15,15,15,15,0,0,1-15,15A15,15,0,0,1-480,69Zm110-34a15,15,0,0,1,15-15,15,15,0,0,1,15,15,15,15,0,0,1-15,15A15,15,0,0,1-370,35Zm-36.667,0a15,15,0,0,1,15-15,15,15,0,0,1,15,15,15,15,0,0,1-15,15A15,15,0,0,1-406.667,35Zm-36.667,0a15,15,0,0,1,15-15,15,15,0,0,1,15,15,15,15,0,0,1-15,15A15,15,0,0,1-443.334,35ZM-480,35a15,15,0,0,1,15-15,15,15,0,0,1,15,15,15,15,0,0,1-15,15A15,15,0,0,1-480,35Z" transform="translate(510 42)" stroke="rgba(0,0,0,0)" stroke-miterlimit="10" stroke-width="1" fill="url(#linear-gradient)"/>
      </g>
    </g>
  </g>
</svg>
