<svg xmlns="http://www.w3.org/2000/svg" xmlns:xlink="http://www.w3.org/1999/xlink" width="200" height="200" viewBox="0 0 200 200">
  <defs>
    <clipPath id="clip-austral-icon-message">
      <rect width="200" height="200"/>
    </clipPath>
  </defs>
  <g id="austral-icon-message" clip-path="url(#clip-austral-icon-message)">
    <g id="Groupe_23" data-name="Groupe 23">
      <rect id="BG" width="200" height="200" fill="none"/>
      <path id="Shadow" d="M732.02,922.631a38.988,38.988,0,0,0-14.09-61.262A65,65,0,1,0,607.789,883.22l-10.528,28.763,29.815-13.837a64.706,64.706,0,0,0,29.405,7.037,65.578,65.578,0,0,0,7.733-.474,38.993,38.993,0,0,0,56.193,27.106l18.039,8.372Z" transform="translate(-552.481 -743.685)" fill="#d4dbe6"/>
      <g id="Icon" transform="translate(5 5.498)">
        <g id="Groupe_21" data-name="Groupe 21">
          <g id="Groupe_19" data-name="Groupe 19">
            <path id="Tracé_25" data-name="Tracé 25" d="M38.343,114.477,25.78,148.8l46.887-21.76Z" fill="#fff"/>
            <circle id="Ellipse_5" data-name="Ellipse 5" cx="65" cy="65" r="65" transform="translate(20 12)" fill="#fff"/>
          </g>
        </g>
        <g id="Groupe_18" data-name="Groupe 18">
          <path id="Tracé_24" data-name="Tracé 24" d="M160.465,159.246l6.5,17.758-24.258-11.258Z" fill="#436ca8"/>
          <circle id="Ellipse_4" data-name="Ellipse 4" cx="39" cy="39" r="39" transform="translate(92 95)" fill="#436ca8"/>
        </g>
        <g id="Groupe_74" data-name="Groupe 74">
          <circle id="Ellipse_29" data-name="Ellipse 29" cx="5.565" cy="5.565" r="5.565" transform="translate(108.12 130.437)" fill="#fff"/>
          <circle id="Ellipse_30" data-name="Ellipse 30" cx="5.565" cy="5.565" r="5.565" transform="translate(125.435 130.437)" fill="#fff"/>
          <circle id="Ellipse_31" data-name="Ellipse 31" cx="5.565" cy="5.565" r="5.565" transform="translate(142.749 130.437)" fill="#fff"/>
        </g>
        <g id="Groupe_75" data-name="Groupe 75" transform="translate(-57.01 -63.845)">
          <circle id="Ellipse_29-2" data-name="Ellipse 29" cx="8.243" cy="8.243" r="8.243" transform="translate(108.12 130.437)" fill="#d4dbe6"/>
          <circle id="Ellipse_30-2" data-name="Ellipse 30" cx="8.243" cy="8.243" r="8.243" transform="translate(133.767 130.437)" fill="#d4dbe6"/>
          <circle id="Ellipse_31-2" data-name="Ellipse 31" cx="8.243" cy="8.243" r="8.243" transform="translate(159.413 130.437)" fill="#d4dbe6"/>
        </g>
      </g>
    </g>
  </g>
</svg>
