<svg xmlns="http://www.w3.org/2000/svg" xmlns:xlink="http://www.w3.org/1999/xlink" width="200" height="200" viewBox="0 0 200 200">
  <defs>
    <clipPath id="clip-austral-icon-email">
      <rect width="200" height="200"/>
    </clipPath>
  </defs>
  <g id="austral-icon-email" clip-path="url(#clip-austral-icon-email)">
    <g id="Groupe_81" data-name="Groupe 81">
      <g id="Groupe_17" data-name="Groupe 17">
        <rect id="BG" width="200" height="200" fill="none"/>
      </g>
      <g id="Groupe_80" data-name="Groupe 80">
        <path id="Union_11" data-name="Union 11" d="M30-543A30,30,0,0,1,0-573v-70l17-12.113V-673a10,10,0,0,1,10-10H56.14L74.2-695.866a10,10,0,0,1,11.605,0L103.86-683H133a10,10,0,0,1,10,10v17.888L160-643v70a30,30,0,0,1-30,30Z" transform="translate(34 732)" fill="#d4dbe6"/>
        <path id="Tracé_86" data-name="Tracé 86" d="M80.5,17l23.692.237L160,57H0L55.959,17.129Z" transform="translate(20 18)" fill="#fff"/>
        <path id="Polygone_4" data-name="Polygone 4" d="M74.2,4.134a10,10,0,0,1,11.605,0l48.732,34.721A10,10,0,0,1,128.732,57H31.268a10,10,0,0,1-5.8-18.144Z" transform="translate(20 18)" fill="#fff"/>
        <path id="Tracé_91" data-name="Tracé 91" d="M0,10H160V80a30,30,0,0,1-30,30H30A30,30,0,0,1,0,80Z" transform="translate(20 65)" fill="#fff"/>
        <path id="Union_9" data-name="Union 9" d="M0-649v-41a10,10,0,0,1,10-10H116a10,10,0,0,1,10,10v41L63-613Z" transform="translate(37 735)" fill="#436ca8"/>
        <rect id="Rectangle_14" data-name="Rectangle 14" width="90" height="6" rx="3" transform="translate(55 54)" fill="#d4dbe6"/>
        <rect id="Rectangle_15" data-name="Rectangle 15" width="90" height="6" rx="3" transform="translate(55 68)" fill="#d4dbe6"/>
        <rect id="Rectangle_16" data-name="Rectangle 16" width="45" height="6" rx="3" transform="translate(55 82)" fill="#d4dbe6"/>
      </g>
    </g>
  </g>
</svg>
